<mxfile modified="2021-12-06T06:13:13.667Z" host="app.diagrams.net" agent="5.0 (Windows NT 10.0; Win64; x64) AppleWebKit/537.36 (KHTML, like Gecko) Chrome/96.0.4664.45 Safari/537.36" etag="36Nsv4mCPLuAr-CZCfN2" version="15.9.1" type="github">
  <diagram id="C2fSY1v2SiZeoUbDoYyL" name="Page-1">
    <mxGraphModel dx="462" dy="803" grid="1" gridSize="10" guides="1" tooltips="1" connect="1" arrows="1" fold="1" page="1" pageScale="1" pageWidth="827" pageHeight="1169" math="0" shadow="0">
      <root>
        <mxCell id="0" />
        <mxCell id="1" parent="0" />
        <mxCell id="5jSk7rVsMKAFzGFvwQ8h-2" value="" style="shape=image;verticalLabelPosition=bottom;labelBackgroundColor=#ffffff;verticalAlign=top;aspect=fixed;imageAspect=0;image=data:image/png,iVBORw0KGgoAAAANSUhEUgAAAVQAAAFTCAYAAABml/QNAAAgAElEQVR4nOy9y25k2XG2HXk+J8mq6q5udUsW2hIMG4ZkaCZ4oKGnvgXfjW/Bl+CbMOCZYcAa2BIknyS4y32oKpJFZpKZyWQe/gG/Z/HZUTtJtiz593fYAEEycx/WihXxxhuxYq3d2O/3+3/6p3+Kv/qrv4rb29tot9vxlGO/30ej0YiIiEajEfv9/knX/d961MnIMvxtHPl+TxmX3+XYPXZvvssy+G3L5VBbDrXvv2OsDh2/yRjWHf9/2eQ3ldNvq51Pfe5/5XkPjc1sNou/+Iu/iHZExK9//ev467/+65jP59FsNp90s/8uBfvvOv47jPgQgPxX7/tNjt/1uD10//9TdOa32Y//yTKp09//Xftt2/tdOKnNZhM//vGP7wB1u93GcrmMm5ub/0KT/+84flee//+x/P/9j//OMfx/+vI/4/A4bLfbO0BtNBrvMdPj4+P40Y9+FNPpNFarVVxfX8e7d+9iNpvFcrmM7XYb2+02NptNbLfb2O12sdvtIiJ+o4H+JpT9N33Gb/rMh85/iHXu9/toNpsVueSQodlsFq/JZz7H48J3Pofv83fc19/n59K+unNyWziv1WpV2tpqtaLb7ZbPWq1WbDab8nej0YjdbhfNZrPoTKPRKLrDd7vdrnzntu12u+j3+yUV1Wq1KvLd7/fl2u12W2Tsz/k7jxnX+z6+3sdutyuf88M90H3fg9/+28/Ozz/UNrc76z5j/D8NWN0my+wpqZ2n2OShPv8mrDfb72NRJM/w+Lpd7bqL2+12/Omf/mn85V/+ZXz22Wfx6tWrePXqVfziF7+IX/7yl/Hll1/GV199FfP5PJbLZSyXy1iv1wVcsyL8No/fJqB+06NO2Fmg+XwPvs8FiNrtdgE0AMtgCCgZ0PwboOEzfnq9XrTb7Wi323cDrdw49+e8brdb2neoLa1WKzqdToxGo3JOq9WKfr8fR0dH0W63y/0iIlarVXS73XJup9OJxWIRi8UiGo1G3NzcFL1pNptxe3sbNzc35bmbzab074MPPojRaBTdbrf0KyJiuVzG7e1trNfrWK1WxdF3Op3y+c3NTWw2m7i9va3opgGX35vNJjabzXsgsNvtSnsM3v5Zr9fleZxze3tbnIaJB7L2890mnp8JS3a2dcehtFye86g7rKeHdPwpz83P/F0Cau4jv9G7Q9/nNvL/drutkJi69qC/dXJp+0Ec0+k0Pv7443jz5k00m8149epVfPnll7Fer6Pb7cbR0VG8evWqKES+R0buQ8I49PdDRwanhwD20MDwrDqlqbtf3aA81L5DQMrnnU4ner1eATozRADQLLOujQ8pnVnTbreLVqtVwITrMwtst9vlN/dAuQC829vb2O120el0Yr/fR7vdLoDSbrej2+1Gv9+P8Xgc2+025vN5dDqdAnCLxSKur68LAN3e3lZYGuCDXjWbzej1enF1dVW+Gw6H8fz582i1WrFer+Pq6ipubm5iu93Gzc1Nkct6vS7P8W/AKbNHwBTA4zeAynkGOXTfoOh7c34GswwyrVarwjr5zc9jwPqQTh5ixocirbr7HWLt+XC/Dt03g57lnM/Jn/sZD7WTMavrb44Avkmb6+6dj9opfTzq559/Hre3tyXcv7q6qig+D3kqG/2mdPyxex0C0Ye83CGvfej4Jkz4IcXju263G4PBIDqdTmkvBpVDagOqjQjmyOf8xgAtg/wZ9+VZAC6fc6/M0PgcBsc5sD/6BOvudrsFgH0AOjDITqdTgLzb7cZqtSrg0Ww2YzweF6ZH+09OTkr7I+4BDUaOs7i9vY1ms1lSENmgzQrpv52IgTEbFWMGqDqqII1hOVm+bgvfcT+zVDvWVqtVWLZTCL9Nm6Jdv8trH7LP/0r6Il/ntA//+9l8ZxvLsj9kx9yj3W4X3eJo1100m83i9evXcXR0FC9fvozT09OYTqdxdnYW7969i9PT08rgf5NOGwC+KTutu0c+6j7LxnCIOdYdub253X7GIU+IAQKmsFBYXh0oRkTFsA8Bqg03/xhMfb2/I0VQp0TZ8bg9HIw/4X+v1yvhO/e7vb0t9+92u4Xd3dzcFLAkpDaAOy3SarWi3W5Hv9+vhO7tdjsGg0Gs1+sKw3bonPOQdTrAGHksuQdAazniALneTDQzTvqU9YcxxKnxXECZv60LnrswsFoP60DrIUbq4xDztXN9zFbqHFCdvA12lnl2PI8dh9h3o9GIfr8fEXcpKL7bbrfR7Xaj2+3GcrmskITBYBAR92NCdIYOQiJo/9XVVaUt7Trh9Hq9GI1GcXJyEuPxOE5PT6PX68V+v4/r6+tYLpcPgmAe1EN0+pBAEEbd93WfW4B1A36orQarh/pR14ZD7LjuGeQpAQefZ9CLiPcYKvfNf+fcqu/lH4Or2wmQttvtoiR+Nn3OYRH3NRuMiAI4XLder2O/35d0AwqKHu12u1gul7FareL29jYiorBVvH6/349GoxHD4bDkTxuNRqxWq9IO0g/kLCOipCfojwHMzNTgxWFgi4gKsHFuXdSAjDFYnkcqxTK1Dnnizt+ZVduWbNQZWD1OjzHXOr1+yvGQbT3G6B6z84in2aSvO2SLu90uer1efP/7349+vx+np6exXC7j5OQkTk9PYzgcxtHRUVxcXESn04nNZhNXV1cxGo3i+Pg4IiKGw2FsNpuYz+cxGAxKtER56dnZ2fuAWtfo58+fx3Q6jc8//zzG43FR+mz8FthDgFPHRvFEhzyWjzxoTwHppxyHFMCGcujILKCuTbA2wmHPUGNonuDJwJdD/hzOm1lyDr/zd263w1mHPe5PHXD4ueSBO51OAVfCeZ6xXq8rDA+AAby73W4sFosS5psVMjEFMJOLBThJV3AOOVk+o1+WOTI1u8xOM4NSnT5wrcM9O7ccZvonj4VTLtYfPnP1gxkrOmSHRU4621s+HgPT3Oc6wLScfE2WY77nN7XVx5juIZyxbn/wwQdxcnISEXdO+uTkpOTd//AP/zCePXsW6/U6/u3f/i3Oz8+j3W7H8fFxtFqtWCwW0ev1yiQrEdLNzU3MZrP3+lQLqKenp/Hv//7v8ZOf/KQYgZXdHtXKcghYDw1qBln+rhPUYwBWNxDZCPIgHbrmMQ9f97373mw2o9/vF2ZF6MA5mR0a/NxXs0+DmeViYM6GmSsGfHC+wcMAnp9rZtzpdCpMgr74HjmNAHPLP5Yds/a9Xi8Gg0HsdrsClhF3YRsTo+12u8yqcx/k6moTg2dmo5Zjo9EoQB0R74X4loudEMBuGfG3c+Melzodz8y4zibop8cHh8ZkYZ4wewhYOQ616ynXWIb5e+tOxoaH7p+Bue55/j4TvIj7fPj5+XmsVqvY7XYxGo1iv79LQV1dXUWz2YzZbFZ0bT6fR7/fj7Ozs/j6669jMBjEdDqNxWIR+/2+pKjOz8/j5uYmLi4uSnt5bi2grlaruLq6ik8++SSePXtWKC4hlVlpnaAeOh469zFW+F85HgNfnv9YGzKYZiAlNDV7M+sDfByOYsS+bx2rcd4zh/NOCdjpATL5Hjk/63v4yG3yRA55T+6bQ1szqO12W0DDjqTdbsdkMimLSmC7pEgAz81mU0pVfM9cD2iGCpttNBplkgyg8UQU/fHknMfEBmOnZRm7msKOj8mkLEs/m+9oh//nGfkcAznfZXln+dQxzsxEDzHpp9h47stjTPgp93no2Q99/vz58xgOh3F5eRlffvllDAaDMjbf+c53Yrvdxtu3b4ucer1eHB8fx83NTazX61J//+tf/zpGo1GMx+N49epVmQPZbDbx8uXLeP369eMMlcNJc4wuzzK6E08VXJ2gH2Ky/vubeM98z4cG59D98vPqlBIgHQwG0e12C4PLbNLM1ACYn2+Q82FA5X7ZKF2LmlmxmROTN3XsP4es+QCUHLk47PbEEIcL80l/7Pf7GI1GMRqNioLPZrMyadDr9WI4HMZwOKzIghQU/cj1n/TXZVmNRqMwOINyHgOYtB3Ofn9fQsb4MDGRx8asNTNkZAJIMsZmsWZzdbKn7XVMG2dFbhl5uBzNk3V1Udyh6Csf2ZYO/e3PnkKYPBZ2MHX3yBOknLPb7eLk5CS+//3vx3a7jdlsFsfHx3F5eRm//OUvY71exx//8R+X8+fzebx+/To+/fTTuLm5iVarFd/+9rdjPp/Hz372s/jss8/iww8/jFarVUjmZrOJV69exevXryvPPwioZiP+7KkM0+fWddrnW1B1z3jqYDx05HDqofN8HAJ5zut0OjEYDKLf71fyiXWD76J8vsszy3Us1QzY7JTDbCozZjNWs1AU1cCagdwTTYC0Uz0OffHyZqpMDuFkaAcLCTifGdjRaBSLxaJS1G9G71pRh78YUQa/nDLJwGX55tz1ofHILBtZAlR8biA1i8+ryOpIwqGZ9FxOVaeTAG52ssjFCxmQyyGCU6eD/r7OLuvO/Sa2mzHjIZZ7COgbjUYsl8s4OzuL7XYbg8Egrq6uSpT07t27ePv2bez3++j1erFer+Pi4iKazWYMBoNYLBYRcU8YXr9+HTc3N3F9fR3/8i//Ei9fvoxGoxGff/75e89/0tZSGMwh5vJYZw8B8SFvWKfIdX/zf1bAOu/5EGA/xnwddnGeJ5z6/f57YXhEdZbeYX6evPC5+bn+bfbp6zJIOIwFtCwL12q6354Q8vOyEXMd4NBoNEqKo9lslhVPPKvRuJu1Nnvi+tVqFWdnZ7FYLGI8Hken04nValVhi1wbcT8RY/Zixg+40U4Dai5Foj+wWi9qsPNAFgZfM1iH3zk3zbUGOwOwxyvL+JA+Wl+y7mc9zQ6WfKvTAj6nTv8eIlE+91AJ5UPXZ1vPAP8YGNdhQ6vVijdv3hTQZEwA1pubm/jHf/zHyjP2+31cXl6Wsfriiy/K+A8Gg3j16lVZYs3ye4DXx0FAzYDkshQG4NBAPHZ8E4B97Ltv6g0fCqceY66EjbDSPHtfxyYxGDO0DFAZgG1cuWzHNaiZdQLoGK4ZcUS8V+OX+50ZG+c6fcAzsyGyasqTU1yH4RpsqD+9vLyM2WxWQJT0SUQUpgpAZxCCQbB81XlRrypyaJ+dGQ4kM95DDNYz6dyH/+tm67ON1IX4+VyH9LkNPMv7HuQxZKzzfR1VIOdDq76+6WGZ/SaY8Ns+GCePEXNBOHg7AbN4X7/ZbOJ73/tevHz5Mk5OTqLdbsfl5WW8ffs2fvrTn77X3wcZqkMa505zzVxmLnye6Xu+L+fU/fa5dR7rEIs9FIbkdtQBcWa7GTCoz6Wu1EBTZ+zOqTFgfJ/b6//rSpZ4Fvf2tZmBZkDjcKrBwJ/HGkZdJ3Nfl3OD/CAb2CWTQYyvmdFqtaqU/dBGr7JiRRXXwybtbLimrujdTJHcqtMCdawwRxrZETtPbGdRN65m1AY8JpfqdD8bagbUOp0zUNOmzFQNIhAEy9LstY7t1tlc/r+OXbvdyNT3zw7hIaKUwTvLPNtUJhF5bPy8bA84dFIBV1dX0W63Yzgc1q+UigcOD74bXjfrmDt5KIQ4xEzzOVmxDgFeFnYemKccDwEukyjj8TjG4/F7yxvrGCmz1NzH4GNAtfxQMH+XDcbG789yW2iPmatZq8/JY5xln1mznSugAohRXzoYDCoz3mbO3jBkt9uVzUu2222sVqsKO0Me6/U6hsNh+a7T6US/3y85WssoTwbVMbXM+gF3G57ZrQG23W5XwD6PjZk7EV1mz1n3bPhm4vm37YeIgHvQr7rDfbYOWvesQ9ybMcIJZoD1s233We6OjOrA76mHceApWHLoyNiQ22/9b7fbZfIJxuoI6hsxVDfQ5SiPNbCuc3Xn5A48do9DwjoE3k89DrEwzzJTU1qXk/PsPV6vzjsaLA0ybnMG3swI6+6bvatB0rm/3M+IKLPkfOZZ+NwuDq/iyZUGfO5ZZgNvZo3oFcpq44O1UsrCNn79fr/ksxqNRpnhj4jKyimH/R5b2C6fGYjpr2XmMUamXq6YmSzOxGFkHluPi/XAjsH3Q36WDftBmNAYFK3LGaAzANOHXNPLPQywh8A162Ad4fFRZ7cmFT7Hcs7XPsSIHzonH5mw8dnt7W1ldR77UNTd78FZfjroUMArWuzx665/CAwfA7wsgMyA83f5vo+BeT7MIGCkhPcADMI2e/VMNIpQx3z4DoN03tWMyaCTB5b7eGOVzH4M2DmPamOkvbAo38/hfpYNRy7kbzSqu2hF3C3dY2s96w+rm9rtdrnGOgRjRTawWoCIlSoeA8veeyV4xpu+8HldWiCHyQYI/zi0zjLK0QDjyvkGVrcnA2Dd+Hvyy0wKsDPTzGCagRdZ5T64ugM52PYMqr62jiDV2aP7dwgX/Ew+97hkJulr6kjaQ2zY51rHM1PN42/9KefVPiGqXs+CyzmGOmHlzuVOZ4Hl663IdddkIdQ9t+5zrjsUbsBIJ5NJZcIJGXCfPPNNHooDwzfY5VDbRp+B0GGs5QRwOO9m43a7vKjAP74OI0Nerg/NcrZT8G/312zv+vq6FFMjN+SNx7cxA0Dsq0t7coplu92WPVX7/X70+/3SDpcyIScOsyoDWqNRnbSKuA/3YaLZsdCfnJ8GbBgH75qVddLnZt3Mf7utHkODZ2a81kX67/5xmLXirHLqBJlxP4+3CReyMsk6RITqGORDduvDQGtwPQSah4C07si4VjduDz3nQYbKhVa4LISnNvabnFcn2ENAShvrBih7G7eXQQfc+v1+HB8fx2AwKKVGWQHNyrx5M2zH1xDy8b//tkLW9SdPMGRQ428zNgOjE+0GPu6VPb+fa+AyiGcwBrT5zJNm7D0aEWUPCG+Ezay92wi4c07uL+yW8ci7UA0Gg9hsNnF9fV2qA7zZSs7rRUTZDJvcb6vVKszXjpCxsDyZyMnpHY9nTodYjjncznqJvLwajcM51ZyfrCMM1s3sUO2s65a2InsDb46IOLyfg1MEHueH2KWPQ0TrIWzI1/oZh67N93/syPfMx4M51Lq8icMJCyeDq1mdG3KoE4cElXMangyou/aQ8OpYLqtxCO8Hg0HFWMzSnVfkHLNFPue3GVIGwTqZAGJmR9mIHUZa3pzP377efc6sxnJxfadBuI4NAWhmxK1Wq+yqv9/fTz7Btn3tfn9fw8qSUuTt1VeLxaLkSm9vb2M4HJZn0T/vVLXf30+ouH91TIs8KoBl+cKgzbitjxwGbRyoyQdg7/Zkxmr5ZqfMuOTxNjgaTJFtzp9mXatLddgZe1IqO4ucDsiH88yMo1lsfnYdGPrvQyDna3MfnsJ+D907M9/cprr/fRwEVIes3Nw51EPsNAvr0MDlRud75Gsz43ysY4eouRnpeDyOwWBQSiAiqrv7YGhc41l89ymHw/5xH6z8/h9l86RD3aSCn2PFzgw2n5uVxM+lT+w/4PvmMTMzpWQER8NkFrPgZrkRUSacmJknJ0o+lT5FRMmpmjGhe07DLBaL2G7vXzC53W7L4gJSB/SR+7o/ZlDZ4ThfaXDw4cmnTCrM5rg2O73clgy0tN1MM+u8GapDdkdgmWTkqgbn8E0iGBM7U/LB3NPAa73Oudw6cPXnHIdArA6En8Io870O4ULdM92HfI9Dx0FAPTk5KWusYRwodZ0xHwK33PnHvNKho07Addd5QDyYGH2/34/RaBSTyaQAKYJj5i6iuioJ54LB5fxnXU7RrKOuH/6NjM0SIu6NxUbBkRU2P8OTF4dkyfdMwjmHaVCOuC905tkAKp/RZnbkwbjdRsuENrIuHxa6XC4jIkq0wHkwWfZIBXC32/vXmwDYBgw2GM55Tfef6g3+Zz8CnID1zDP8dRNRub+u8fQYOmqJiEptbo4I6Ivb4We6jeieQS478Ij3Ga9BNeuZJwg98eVxpA/cy+Vm1hGDKL9dNZLbdoiI8bvu84fwJJ+fSY9lmK+p+ywfBwG11+tV8nPlgsTO6hr8GJV+7PA96ljuQ8/hsGJSGzkcDstmHIR8KIwn3Qh7YKV8DmuEBfl8K5gNIm99aHZoxaS9ngSrY7wc/jsbVAZRG3O+B0bPFmaACYyK/vV6vVgsFpXNm5nRp/9sc+aUQEQVLNxWyqGcG93tduXljyymQN75RX7OqyIfjJqdqhqNRlk8kF+UF3HvOLkHLwF0mUxmbTzHQGdmy7nOQ3ucrJt5vMz4soNmLJ3fNfO1bdQxxAzC1g87/wy2BkZHqB7fOvacdc827dSVozHbovt6iLHmftcxykPHofMPsdinsONHZ/kzsJl1OGTyQ/2wPFg2/EOD4PMONTx32p4y4r4gn31JCe+9iof+4HUdvmYgc47RjKZuUMxMrPCZZVjGdXLIZU8+sqHb4C0/y4ZyKwOrjRqG6nFEufv9fkyn0wKABl+WkLKihLCfPmDIsElKqbxGPyJKzSqshfFkuS+REvfP6SfyuJYbW/7xbOsTY7Pb7couQ3YynjdAxtlpWtYAhSsXcjidw3KPkUHG93Wu2hNWeZzrcrAGcf+fV0dFRKXPHNYVM1LbZ66GyCTIOGHQti57DH1OTsn4oP2e63G7ngKq7mcG0W8K0BFPqEOlU37rZV1jHmKsdZ891kif8xRBMfCwE4rxx+NxheXgZf0cWInZpkHVBh1xz9IdrtlAGPwMzPlw+iT395Ds+LzuOjMTZFLnyOqcRc4XwhQajUbZxAQnhWMCpJjYAfDIZdoJMNlzfX1d6lJpIywF5gdjARzYgero6KgSTprpOS2Cvu73+5JS8ARZdjaMA28EiIgKw/biArPD7MRzTpLzaJNBNes1Y4ocLB/3zbpkcPfzLQeelVdV2SE4t+mqBZ7PvQ1ctNEgXocNBlPPEZiU2bZpQ7bzXG3hKIBnOG/+mx6/CYj6eHSlFII69FIwjtwIGzX38f/8XUfl8+BkA7DCRNyHe+z0zoaw1JJyvxzK8AOjITcKmwMQXToUUd3KLgNbDuMss5yPysaS5WEW7KNONm5nnTwdVlFMn1d2oZx1IaFBidzzaDSq5CS5v5mnJzIBW082IXdCdG/RB1sGyLm3dYrUzH6/L6Bn3eB+3BOGaOeBTGBo3j6QtgEgvHzQhu0URGa3tDNHGdYZ/4/MkGfdYX3KYJoZ+KFILusZz3VUknOluT1+pnXaR91CBrcj527r2K/7mO0Y/aH0jVVMeV4i21b+/9DfPj+ny+ocyIOACmBgSFZUh1o0om7gDh2HPMAh2u1r7MlgpIPBICaTSSl/MpAa+FzsbqbJwGBkzp9GVPNVXGejzKG9ZWJG5bx0djJmK1aYrAi5ZpC+eLb50D0ArvwaE7c1K6JZZERUtufLE3eZQaLkGJbX5O/3+zJmjJXzqpwDqBFp0F/6cXt7G4vFomxwje4a6DJrp62NRqOy8QosttlsFiDmfwDfQGq9zKktAzR6l/XfjjQDsO0LvTJDtq5lIHP70JWcz89OnPO9LSPnmxHmflsedc7e9mr8cD85N1+fCUUmIFkeyN3O1TZRJ6uHmGi2p8dY64Pb91n49g4PMVVfn8NPf/fYcw8xXYyk0+mUsJ4JJ4fueTaXsB2l8mQEfwOQPMfhVWYZ/J3f2GlFdjhk5cwKmpWLe/m52Yh9X4MnLNjMlIOVRY1Go7INHeGtvT33NwM3EDHR4+WjyJ48asT9AgeupUyKnCWRBO/5IRqKqL4Ohfu3Wq3SXpwCFQCe4Ud2BtbM2KwHsF+DKWPtTaG73W4J/Q+xTKdPDNR17N+6wj2cS/WeAXVsNjtvMzgDtfXGzNbyQHbk2mlXZm/cj2fghBjv7KjtGJxLtW3XgfMhB1RnS1me6LJL9B7DLD/H/3+T48k5VDfeSvvQ8VAu8CHPUfc/YNjtdstMPbP2Bg23zyDpXCgKwXWuXDBQOa+HoeUwy8zVSpMNynKkTzZgl7/knJmNMCtobpPHxp8zY16ntIThyMjf53Cee+eCdc4B6FBo0icGVMYI42Rj306nE91uN25ubkpo7Xw3AO4owRNHuSqlLiz3zDRsPeK+3CuDB+PJ88gd20idQ8w6b1DObNLg5HDSemS9qCM5tqOsb/7bzjjbWAYqRxjWOfqT9c1VDDmf6kiANvpz2uAIj+8tC39mJ+0NdTK7RU8Y2xwxH+qjjzq5PcRSH91gGi+JYeVZfjfmm6B5blQdDYf99Pv9kh8dDoflf4eZbivXo6gugcJwDZpca2XgPIc4OVmOkWYl57f7lZmDQdigaIZTp5yWt2XlaznXRu0dlrKD2G7vNw+nhMpvE6Ufdk7un2f9GQ9+W/E7nU5ls5TBYBAREdfX17Hf78sWiYCia0u5ngUZXqFkQPXYZOBxaI+TbjTuyqqWy2XlXINTHifaneuWM0PE8P09MnWomiMU2p+NOTuvbH8eUxyZHU0GW+uPmaOZJTLOz7V+5efnOnX67f5ZZ91ntynrOP2wTLmnU0TOkWP/TKp7YjFjVn5mnZwy087Ho/uh+iZ1D6MD/ryuAfb2vtZeFgEAAISozCoDolZ2lz25BtEG4FDc+b48sPxkFup+5RCNe5gl+3AbbWgR93lZzkMObocHnTDUfXMoZ2NARt5zwEzFLJj+wB6RvVm1QSYbAf+TKwQE3X/CcfY/RdF5dfRutyuv9GUcYbQ5Pw075scy9OQbMvQyU4eIDutZRVVnxPQJYybSmc/nBVS9G1ZdSqwOIG0TeXLT426gtq7wY2AxmHCunVxmoz6H81zbm202k5g6PbVzzxO+2ZYyQNOObG/WBxyyCYdllB0E59GWumqAOtyqY6IZK/I4HwRUhMaPlbFuwH3kh2Q0NxB4RyHCUiYb2ADDhfS+v4Fsu93Gs2fP4gc/+EF88sknFUX7+uuv4+c//3ksFovybIODBzCi6vmsSAYV52fNTpxfwlA8y2yjRxYZvA2KEVEBJ5TUz7UyWXkcepsx8CyMH0cFKN7e3hZn1mrdvxzPCm/jyLLzeCEztvLL5Tur1arUivKMvKO+5cR4+5XQdkTNZrNsbnu83ZcAACAASURBVOMI4lDBPG1mzGEwWUci7isGcDpHR0cxm80qr7d2e3h2Jg6HIhHG18/0/WhDHkf0P4fNyNBRRd2SZgORx83yoQ8mMDnU5jwWVGQAd3tpQ95j2dfwN/vgcs18Pi87jhmn0AuTLYOec/LUQ+c8bB1I+qgDWR8PFvb7b5e/8GOA9cMMRHxu0MTgGo3Ge4DKBEcGF3syWIeBr9lsxk9+8pP4sz/7szg5Oal436urqzg5OYm/+Zu/qSirmSr9zH0xE3QuzYLNM8keSOQGu/HzODJjsBJapgazHD7ltgKGHFlJaQvpE5ymZQ3QuNbPfW42m5UlqTA35ynJVRImA9jIm5l5gx/AS7mSdcGVGJZ1v9+vlDwZHFarVWE13NPlW5mxO0qi/w5jGY9OpxPT6TSur69juVy+5yQNfnYEtM3OxWwLvfF9HiIUGYgzQzNrs+5YRhl8OJfnZEZa51xbrVYhRDkUdymZccOr5OibN86hP2bevV6v6IxLvUhz5D4b+PP4em8Jf58P22Fm2j4eDfkdCuabHGKiptfOgTI7a1AyCNjYMyBHRGGszoeicCcnJ/HDH/4wptNp/Ou//mu8efMm1ut1fPjhh/G9730v/uRP/iT++Z//Ob788stKysBCsrLQDg+Ow8LsyW1MyAwDN1A7zHeYbiZjsDxkBOR3c34VhoZiMbFmJoH8YKFOSWCgDqdRwFxKZoZgmTil4bDdb0XdbrfllTJ20qvVKtbrdeU53MuMsdvtFkfv5+73+wLyrVarFOWjizY++kXfzPJarVZJM7EtIADGeJHXPTo6imazGcvlsjKeyMhgZsac9YvxyyVxmaUbQD1ePv8Qy7JTPcQcHR0ZgLJjy3Zop4izzCvhcCi+P3puvdtut0WPzTaxw0wmXH8KQOaJS6d4sAPa7LQUelTH1h87Ht2+D+8AQPC3B8iMFGPvdrvlVRVsdOEwzB4ZwWDQ9u6wHsIVznVIhnFE3LGRv/3bv42f/vSnsdls4rPPPos///M/jw8//DC++93vxtdff/1e261Uzj1GVHNjVlSHcTncRkGQmQfHDCqi+rZFe/4MsjyTdloOgFqrdbf0st/vV7y7HRwhD+kVAMdLZTEUz8hzZOdHWwA35JGdT2ZvlElR/uaQjXZmnQJsNptNKf8yGKKz6AMhOn3HyJEdY+DyK/TP9cq00ZMaABpy5j1a19fX7zFuyw15eqWZx5a/bcCZMZmNcs86ZgWLxvnQL4fJOcp0hUyr1arMX2ATBlCe4+jVOU7OYVwNpDjaunwsDg38MdEhBYDO40QhEavVquxElhl7BkbbfrvdLhET/eH6TPCy4+N48ltP88vVGAizHowUz4JhZiN0RwySTiC7rtEDgwEZnDkQoAu8z87O4vz8PD766KNKvaXBMysJxmdgrcs98b/DDu9EZHZpz23GYVlkVuPDOUUrAc8xmKKQjIFzqZYdgM85jUajbLAMoHhWmv6ZrZq1epzy5xER8/k8rq6uinExsw5ooWfZ2dqpUSlgx9ztdmOxWJR9VR2mO+fNd05dOEWB87YxMYbotMNExhzWBchTT5udvSMVj6MrZ7Jjzg7cjNaGTh/4DD0nEvHknh14TnOxwbrtz3tXmECge1lejoZou/vjfD26YhxxRQAOnogMoLXz5lqAfzqdxmw2i8vLy4oDdWSaI0D0G7LhxSWM10P2yfEgoNrjmZIjGIRH3tM7/Bg4DVZ1eRcrg4HSDMB5D4yPc7zuutVqxfHxcTnno48+ipcvX5bVNJnpmi3zmX/nv1EWh8Q5j8M10+k0Wq1W2QiEwcyhhAEFEM/VCwZRv5yNPrNCDJkYQC0bPzeHknj+zMJyBBJxX39oQ2FM0IUczl9dXcVsNiuyRBaePQcMMTa+8/dcCzNxuAZg0hb648Pj7g1x0DePrfvtEJfnYPzO5RL+s6LMgMrzfW9XERgoDSoepzrWZXuClWa74/5ephlxD0TsgeFqGuzdeW+PadZnEy47RusJ7QArGFNP7lkmjBP75noMs95x/UcffRRHR0fx9u3bmM1mFXIDSNvRck/PdRDhUIVyCER9PLr01NTcAAKaA3BehWS6T4iJcOtYYQ7x6CCD6Rl/g0D22HzOBMizZ8/ixz/+cXzrW9+Kr7/+Ok5PT8tzHWIxoFYWAwe/s3dDSQ04/IxGo5hOp+X65XL5Hqja49kzo8iZrZhZZzCdTCZF8ZwXpV88h/8zu+dgTDebTZlooZ+73a7iMJ0D3O/3BUCePXtWeY12jnBsBDgHjMXbBEZEBcRgKhHVEjLXSee0RQ4pMSSDjc+BbTlfa1bHuBvkkRclYfQ95+OYXbZcspPisJ6jD3YEzh3bIWAr1kWzS2S12+1KSSI/OBezVuuix47PzO5gqyZayN0/OXzmubB/M2mPJ84gpzzYU4KDiOH58+dxfHwcX331Vbx9+7ZsL+l25FSL8ctpH4Nqvs7Hg4X93tSC8hYQfDqdFkbjfALCoEGe1eczg0kOH1AilB9FNJO0onsGFqX/0Y9+FB9//HGMRqP49re/Hev1On7+85/HF198UcntGaDzoHMORmZPmhXOykq7p9NpYSp5DTjPw/A8eB5wG5nTFQ5xRqNRnJyclLYZyDKztJH6O4OJUyLs4M//KJWZkxlIs3lXdjSfz4sDpB/UmyILPneh9eXl5XtLeN2P7Ait4JZjTkvltBH3cxhsVm6Dzoblc+gzZMKMjE27r6+vK0AJ0K9Wq/ciJOubCQM6xeHoACd0qDLGzJvxJpphUtKbv9iWMpEyS/X2jI4g+czRrYHfYwAI8rdtnXOdVqE/t7e3xY65f7PZLHMBTGRdX19Hu92ODz74IEajUVxcXMR8Pn9v0Qoys5Nyqobvc4mXx6yMb6TDJ3ETNhpoNBoxHo9LSA2QOlmPcqCIeHAL1ICKQOxJnZtzDsfpAis6mxEzoKPRKH7/93+/MNXFYhEXFxdlMsMgbmeQw1oLNoe+GXwxov1+XzZqWSwWJXxi+zsMDmdjOTikMDOKiPecErtqjUaj0nbANm9uwb2c0+Q7DNZsymGtZ0INnmZNtJs8LMDqe3npn9NH3GM8Hkej0Yj5fF5khbHTL4CFcfdSUQMT6R0DIHrIdn7WxRwV5FA+4p65E0l4BtmpJwAde9nv7ydpGIv9vrpJufWZvjBOBkXuwXmODNvtdsVBuBwJGbPKkDypozq/qSHinqmb0WbHYGJDm7EBRy60yYTEE02em0E2xg3bIpUVfvW4nS9pR+RBvrvZbMYHH3wQz549i9VqVbaR5HeOxHJlEzri/SLqWOp7gOqbMAu52+1iMpmUFUh0fr1eF+ZhoLTHsrdkYNvtdjEWpwfMpAxY9v42chQaNoWX/vu///v4/PPP44c//GH80R/9URwdHcUPf/jDePPmTcxms0ofnADn+TkMqDsy26MtjcZd7pT/YXnZEBzKWzFRHBgD3xPKt9vtGA6HJayz4TjPw7U8C7lxADw2dpTIYO92ABZmTx5T50+9vNcGiwMmX9Zu320DeHx8XPp5eXlZcpB2CDjXHHayLHm321VmmDebTZnAQv/siK1D3DMiKuAQEWWSk8oVg6orYKyjrnC5vLyM6+vriiwBQofI1r+cxqpjzD6Xdput85sNhDw5aZ31/rRmpJZ1Bv+crrPOAUx+hiMws07kh07x7OVyGYvFosJUeQaAOZ1OC7hCrLwZyna7LZ95nqPdbsfz589js9nEbDaLd+/elc1+cEZO8ViP2+37DVfqjgcL+8mTfvDBB9Fo3M1eLhaL8uNQ2A1xnjSiusSv0+nEyclJYSSLxaKiDDA6PDK5FRuV2YHXedOGy8vLeP36dfzd3/1dRET84Ac/iE8//TS+973vxS9+8Yv3QhobpxXZXhXB+m8zPNoDqCDwfr9fQNyOIbO7/NtgOhgMYjqdVtIV1GrWsVzYFo4mojrrDjO0ogFm9AEDsLFnI3a6w6Bq5fP5XgEFUzo6OqqEp1QpTCaT8uxutxvj8Tj6/X7JVzq9wv6sZhrI2H3PbA9Z2rGia8jB6QEYj2uq8/NcMsUkIbKkljXifnLTpMNjz33dfuSKrru8x2MBI+/1emVHtswcsUvyvgZDAM73NdGxrptJYksOzxuNRnmvl5kujB49do7YbN4pFoPeZDKJ8XgcEVHZiYxyPPqF/ZACwEl3OncbpZ+cnJQIG31w+qIugvTkaD4e3G1qMBjEeDyO1WoV7XY7Tk9Pi2E4ZMLT2uvTKHvNdrsd4/G4eD4bsQHT3hpPzvX2es7XWvHxyjc3N/Gzn/0snj17Ft/5znfi29/+dnz99dfFUWAkOAcUwQCCUPnfQJfl1W634+joqNzbO9vnEC/nzsyQnRbodrsxmUyKUlIr6ZDLMjMjNQDy2+uYCZHcH6cLPJ4GPee7/Xz+x8kAThR4ewVNr9eLFy9eRKPRiPPz88IkiYgArYgoDBYnbJlzv5ubmzLxR3+RWW577pcNGd2ifMwpEcL31WpV9BgdRE8ASqIH7OjFixfR6XRiuVyWAnTajn577IuB/i+nZOeEfm+327i6uqrkInFA7DPrnDp99t7G2KflYPlwPSBiJk9USJvt6Dwx51wsgJ2fyfhwjSNl+geegEvImpTkdrstE7SXl5dxenpaokTaTSpmt7t/TTkYx6SVccbM2PKlrehWGa84cPAgfmazWQl3LAjX7bkheEd7bowEI7u9vS2DzruCzApgnDAVcmaAsEHZg+2czXw+j//4j/+ITz75JF6+fBnPnj2Ld+/eVdoymUyi0WiU8ibyLrTbIY/bl9ngZDKJjz76qIQV7PMJY/Bh4MEhAUzIAlZGaIliO6/p/DT/Y3goMX0hwsBDW3ZOm1i56SvKZGcH06V9ODn+N8vodrsxnU5jsVjEbrcrrOni4qKAArJE2Xk7gB0P+oCuMV6kp2AwsBKXX5lJ2mliTIvForAgA69BDhlcXV0V0EI3CPPNdhxJnJycxHA4jOVyWSZ5ne/0ZIyfbTAFrFhazLgCvrTJS4/N8hxyG0DNnIkSrO+eD3G7uL/rh5G37ch2iS7VVQRwP3LwVC3kVAds33XX3LPb7cann34aR0dHJc3XaNzl6R0pLZfLArgvXryIs7OzuL6+rpBAftspu58G0wcB1coDKudVSwYZ8mvOj9qjYEjO+Zh5Os9lNmigzDkvOsR3sAznPna7XVxcXMRyuYyjo6MYDofx1VdflTYjIIebGOdqtSqF6DlMNOXfbDYxHo/jW9/6VgUQe73ee5sR+3qH+fZ4rgt0SN1qtSp7eNqRcD0zmORHUWpyUn6eWQK5TG+N6Blz+o9sAWAYL7In/dJoNMpKLPJYzp0OBoOYz+dxfn5eXh0dEZUoYbVaFf0ApJEHskGeOZwnHMZYYTMup7q9vXvHFYYE00GnnbvjOciu3W7H9fV1TKfTMknLdbx+nbE3OJGiwDHydtVMDJzOcShP+3mlNu/Z4rnYqJ0Csss5YuuCdZCD/5Gh8+IR95Ub6MB6vY7FYlGAyjhip2zdh8FaxhxENdT2cqDf/J3zr6QEjo+P45NPPol+v18p8mfcnfLr9XpxfHxcHDQYZ/3PP3XHoyulELTzlzDKHLL2+/149uxZyduQ22q17ma5Ly8vi+fEWFBuwNUhBQMJyPF3xH15VqvVKrP8hGAwZkpwZrNZnJ6exscff1wGxiuaUJycxvCyPZQH40eo2+02JpNJfOtb34rhcBgXFxfFaAaDQZmMsMGbvTlctmFYCWkbyuV6Qe5B2+bzeVFmlJz9Ps3KWFVkpb++vi6GA1CYCTm8of0onXOO/A/LIBpho1/kTK7LuT2PnfOCfq4ZuJ2CGT5O1qVbdjqLxSIuLy/j3bt3xdk7lQHz5rkAsuWw3+9jNpsVZ41D8kSJa28Bk/1+X/RjNpsVUMVRctjhoqsG6O12GycnJ3F8fFzZfckRlMHAk5JOeTiNBMujj3ZmBk5SZYwrQORwnv66+sA6Z1lDWuhz3q7ThMNkgPuYQDQajbi8vIy3b9/GyclJIXlEySZH6F9ElHpW5jwi7icm3S87hHw8aT9ULna470Hr9/vx3e9+N37v934vTk5OyizcZDIpg9hoNOLdu3dlthRG4NyLDdXJaQDVZTam/6QQfvWrX5U8l8PTzWYTP//5z+NXv/pVnJ6eVsLinDszI4SFoeyEBwAF/3/88ccxmUxiuVyWEJ3XGSM3ZIBhGQTKYPyvMB8lxOvyfHKyBmEUablcVnKI9IfSENprQ3Xowm+89/X1dSwWi8qbYx2ewhBh0i6b4345J+lQO6L6ritPfqEHnGOHzg86kx2Vc3cZVDabTWHFhNyAbwbtzMx9GHxhRTi00WgU6/W6gCuycbrKaaPpdFreUoDcAG8Osy/aeHJyUvQCcL66uqrU9bq9vheyZqwM9C6TQh92u13ZowBAxVbM4jPwmV0biBxGZ8cHqHuBAmwd+XE/QnfbFfMzrkDydo6OIElJogedTqdEF1l/LMcc5vt4dMd+jsxOuPknn3wS3//+9+Pb3/52DAaDkodsNpulVMPJe/I97I/J7kLM0DIwzhnZ2DFMciFcs16v4x/+4R/KuYQngNnbt2/vOtyuLjSwc3CfzZoJCRqNuwkGlLbdbseLFy9iMpmUfgE6gG2v1yupBEDNkxCcT5E+7J/nUi7lXBJ9R2kIXxxmofyOBPJY2pkwpgBPxN1O+iwXhbHaOWDg3W43jo6OKrv8YFx8BrP3xAOKDtDSFud1s07wfNe12lic+zWQLJfLOD8/j4uLi0r6CTCk7xlMzQxpt3Vlt7ubfZ7P5+Vei8Uirq+v4+joqEymMaNuBg8D7Ha7xSHWsUue7VQBUQR6QLH+xcVFpTQQ2dmJeq4CQCNv6ZIhHDI2lwHFVSsR1de8ZDnlczNTxSaxlxwVY8udTqcyCUVkBAjTD+e+Z7NZmRMiJUW/cYSMHfbm9IBXfPl33XEQUB0qZZa439/N0n7nO9+JP/iDP4iTk5O4urqK169fF082mUzK4K/X62L0hHmj0ah03syGgUGZYByEwhT0eiljq3W/CzeD47wQ4JHrP+kTA4KwrMT03eH1dDqNo6OjssTy9PS0rMDAU5LjQiFsKA6hUQS/1sP5JkAZb+33w2O8rLrJDsL1we4zUQH9zX1EZsyIMnabzd02iS4Ly5MlnjCjjfTVhsNkjZP8Po/7cC+fGxGVydDM/CxDwHw+n5d6Q9pNfwEAp3G41g49EwpHa3byPme73cbx8XGxB5dOmXFS3gaoAuIGUOYxIqLowWg0isViUSaNT05OIiJK7t8ThbYJctQABzpBm2GirgV2esflUnZ8BkqH5mblJjr+3jlTZGvWS2RCuzw+Ts2AEfQDXXRaBJt0FREyaLVapX6cMaLvxoha3Mwf0LgPP/ywILUnn4bDYTx79iw+/vjjePHiRazX63j9+nXMZrPCNFnB40EDuPr9fgn1YShmmXwHa3GY6JIMhMa5LrZ1yOsZaNiT8yMOezwwBh3OIY3x4sWLOD4+jv1+HxcXFyVPCrBzPUzIni173YgozJS+AxAAFGDB7LDzWbBbgyLf501O6B+y8rVO6OcJH8bh4uIibm5uYjqdlo1fAF7uxfX0F4XFmOk30QUhMfphJuLcdmY45PYYH0qSAAXuuVwuKxOLrBf3zLMdKMYMWHv88oFskA9Ag+7d3NzE+fl5LBaLODk5KXlWT+TYsaGPFNpTKeKcuZ0PS3w7nU6ZDHKJGWkbRzwGcZMQ9B22ltmt2Swy53+DHlEkuu7DOOIVcBFR2VyJPub0jis6nNt1hYxTagAmtuV9cfv9flmR53w3eEdqj2vs8HOqzsfBlVK5sJtaSNhUo3G3TJDdXACS8Xhc8qgOY/IM9dnZWRwdHRVQZRYYI0NwKBu//bdZDEpsYMlJb5SJ8xxC1oVazvVMp9M4OTmJyWQSrVarhMM3NzfR6XRKOEYNKuUsDq1pv0NucqM2YE9qAEbkgzCEHJ7xTPpKXSb9tJNBDigJxkbfAQbvoYCS3t7exuXlZTQajTg6OqqwNoe0jhKY7Qc8UFTXL5uRMK45BUH7Mcp8jqMWUkgAqXUC5uw2cV+zFq/uAhCyQTmFcXt7W0nvmPExZhAVZupzuomXEBokDExOgzGrzpJSV1JQ7kh+3Ski5I+9oT/I0IedCfK2g6S9jsJubm4qaSgzTapfkKXD9cz8TGrMDl066ImwzEoBY7CENtNvO29sJyIqVTpOMRprnsxQszA7nbsdySeTSTGG+XxeNhrwADFp8u7du1gul0VITNTgQTmHwlpCYAYEQLEhkXA20PG5B4c25zDNQkeZ6CMgA9NA2KyXH4/HZUUPHh8FNTDT5gx4VhynDsh7edMZl6eYjdC2xWJRCXm89yvG4Vd+GKycu0N2LutyfS/K5TXfsCEmKYg4cEoYD+1xPhVHSk5ut9tV2JDzod4HwKEWBoa8eR7PQo6esOLe/s6bCJuJYUxmYpZJ1kE7/OywzLDMslarVTx//rzMPtN2QAXmRYSD/tihoQ+klFqtVlnuDDu/vLwsbQb0AP2Li4u4vLws+UMmxOiLSQV6ZSCHwU2n07J5PAAHGSJXjS54P1kmeCOq+wybraPv/I0usMTYk2iZaSMj7oc8AVAcHDbpRTNgEUyV1JIn2xwpWW4RjwAqnXDDmQHGEL1CgbCLImkMjgZxP+j3fr8vb7kEpFBojNf038zOTBTFoWNOjtNRwJaUgWsEXX+IERE6TafTaLfbMZ/PYz6fl2fZM2aw9EvvvL6YwUXxhsNh8aCAKX0FuPDy19fXJU8LoNnTohD20gC5Q1vOM2s7lF5Zr9eVpZiAD+PCuNlzW+kAGIeFLvp3u9xOjNh571whkJ9jMGG8kZ3z9JyDwZBWIUQ3wDstU5er49m01eOObvEbOc5ms2IPz549i06nU1k5xXNYGknO15EVz8vAhzM14OP4HbJuNpsSYg8Ggzg9Pa3of9YX5OxU2Xg8LiSL6goWYSwWizJp5ly+JxsZ75x6sZ2jF04Nut/WXcYQ50W7mRh1hVImGGCOddMOHTk4Ysghf4nsM4i6M1aizWZTcjL8EFICDJSjoLB0hpAYIZLkBcwABn6cEwWUMQYbthXc39mTmrmaKXr7L/KxnDMYDEp7Cd29xM8hs9vs/A3PRPAUO+Ml2SXKYMpgsSMWYcjl5WUpiXGpmcEnHw4TkV0eY08yZvZsQPBkRM4jYaA550l5CzqCUhpAMTZPDAKCOR2DUcJsIqrMg9+0z7ld2u0+wZbMTF0y5NQHRy7tc94Oebpvzk3Tfmzg+vo6JpNJTCaTGA6HMZ/PK2Nq5ux0lQ2b7+0AIRPZOd3c3JQ6Tdrf7Xbj5OQkOp1Oqad1iOvDqRYYL+OBs2SM+/1+TCaTAmSU9pllc9iW6Jvtx8Qj1yzjHK3L6B5jyf8GT5MiR22MD04O3fdCCU+i1h0P7jbFb7w34RrgwkbGzDJSVO58AwOLF16v18WTo6SAG0Jx6H1zcxPz+TxarVbJ48I+HO5mJbLBA96wFJgJ7SDU8i5J+/3dDvN5P0tyc1mwPDsPDAbkyRBXKrgkhAJkvru5uYnLy8uYz+eFaXibNSfhvRom50kNNjZUK4gV3Lksp0BcctJo3L8uhbyxJ/kcquX8Lg4adp5BF0dKxOKJAzMXjwtjS27SoTEG7zwl8nJ46Hwihu+ICCPkMKPkvkxiuHQsO3RC3vPz87i9vY2Tk5MYjUbFaRqMc5mYQRk503YOwAD5YLcAdmaBTCBTH07uHx3i3ug0G/UwNkzksWcD4T0pHeZeAHQIgfPljC964/SS+wcZ4yBnDclDfk4bmPDYWfKZbZnIxbblCcGHwDTiCS/pQ8HtJcmb7Ha7Yux4E7NaGoByIRAmcjBE51A9C2xvDXDvdrsYDAZFOTEeezYOGx4ghYKQj3F4ZXDkHUWcS9+9D6PByHk3hxQR97sFUWMXcfd+pYj7lRiUi1AKtV6vYzabVUqWAEA/NzNKgNh1elZKp01QFt/DSsZ4MYOP8XK+dcL94Brf3zkpMyWuMbPz6hUOvrN+cQ7XeoKIcSXcxaHwPGSCXOtYvm3ABMAGm9m6x4K5ACZjbcjIjjrfDz/8MMbjcSVdZr0h/2qdog/oLc7W40bljSfn6IO35zO4tlqtEmnaBpEpoX3OodsWAFacJXqPg/XSdLNCO1ZysMiYezqyca6bSVK3e7VaxWw2K+/5sjPib1cROKznOXaadtB1x4OAysAg8FarVXb6hjnSGUASJcC7+uGsTvDsP8bmgTPTxAjpEBt8oKisTEFRrNwMGoplzxYRlTCMkALlc/vN7HAQZkrOx3COvSOD3uv1SnsdYnMfctSsboId8yy2KcM5OPdsFogD5BzAh2daeRiXXDGRQQuH4ZIjHGIurQO8co7Vq7xQ7qOjo0rIz4Qa7SN8xIjRR4zbTJoDZmOnDBNGNxxR8GNwNMA6nDf42vjRlel0WgndOQ/7YZztANFb3jIBKBig6FNdCoUxNosln4pDoaKCvjBOXEOekslkxpY5AOwLXfGCE4M4Y+N+k/7L+1BERElhEYGhH56YxEa97ympCZ7V6XRiMpkU5ox+QFD+8z//M7744otK351Csz6YvXOYiDi94e8inrBSCkP0yqP5fF7pPMLKIIPwmZnDc5EM90x7zvM54V+n5F4X7gksjJABZ3AMPA5hCP0ZKBQWVuDyrbr2eIAcGnIOQIcy4VV5JvLz4DKxx3NJiWCo5LKz4eJEzB4BCbPmvGgjp2lyztTn2auj7DlkjojK2xIIARuNRqVkyJteYLjoCzrX7/fjxYsXpX4TPYLBOX0AK8zO1akG5GX2nlMkBlwDsHUbHbXM+MFYDWpMLjmtZONcLBbx+vXreP78eYxGo1IVY5Di/mbWdlDoiB1pnregv74Gu2CcSOWwqIRU03a7LSVa2Judc5ah2b9TJf7OcmUPXIDSbSQy9BZ77FypNQAAIABJREFUjAGyof/YMTnwfr8fH330UTSbzXjz5k2pV3YlDphAu6wHtM9kow4rI57wkj4GEY/FDH328J4NNkvc7XZlP1V7E4yBgXLOCCGaHUXch114hN1uV5SV5DUJc4wVr4rwUaBW6353nt1uV3JMgBHs26EXypJzkZ6MyOALUBHy3d7eb9CAXFE2noGhsNYYdgV7dQqGMeJ5Tp9wmOmgIHZYBlU7BNilFcysIDNYh+weY+7j1AD5dNa7OzIg72Y25BCXAyDgJ/c7h8JmmO4H4Gpg5Xo/nzDZgGpm76jELN1RCpO0vM/JNber1SrOz89LThXGaAaEU3bqAYeBbtA3h/S5//6M/qCbpB5Wq1X0+/14/vx5NJv3q/8AUxyXgRk95v6QB+eqOc9lYixgML7YiWDL2bGRa2dTeeZ7IBzYL6vVut1ufPnll/HmzZsKzrgywPjH/yYlD+VRH2SonkFkfTLsFIaIB0a5USoot0Ni56HqwieH0vz2uQgwd9QTCVzjchPnTtkpHrZFtULE/XI+Bg5jctkX/XCeJTMBBopcIBueZIfhjRzIfe52u7IbOYrCe5ZI8jtNYGBEqfPEiQGE8/y/lcXn0qebm5vSVli9x5nn+2/3EbAw6yPNwrmOHmgD/wOYLndC4QEQpznM2j1xyTX03ykadMmGjCN06sdGhbFyDya6YMkG74ioyBPAs24h09lsViYozb65DzPnllNm2WaMTsPQN5dq8Wxkz94Mu92uTJSNx+OSX/UEK4fZqPWK6IpFMA6dGXfIFjYMAJOKMHDTD7AEouFlxfv9vrI3CJECDuLk5KTsNkafDag5xWdS4bSh7Ynj0bee4pkAHvJ8s9ksFotFERQKCuMAHJlJt2FbuWmoC/ydkwG03EkrK6EhrM8TJSWv0b5fI0yOisUJzGgCwvb8rOd1Ebk9Jn3gWSgGIIlCoMBOZDvUYxJqu92WVVPMtnqWG4Bw/tMhEoqErA7lhfwZisH4GFQMPDYY5JEZdXZyAFIuHvcsO+Ex16MfZiEwMOuAQ3X/WNcwCIengLAnaXg248gP4OdUh2WHc2ScGVdXkKA/2QAxcjsnEwze2MlewpQdRUQlN4h+OAVCn8zm7YiRiWVkNo9dkJojDbXZbOLZs2dlHsCgRWRHP80q2TyGCAVbd5rJjoPvLTecBmNpHHIe2uTNeHN7e1swi1e8M/HM4fSWD+fuaU/deRFP2A/VkwtM2lxdXZUic6988eQPOUhYocNh02UjPgNrL+HvDaQoiF/Ol9MQADornjBkBplNZwn3M/s1cDmlAVhgLA73HJoyCZUZJUpFKE94EhFl93gXG6OsZo1491yfyd9mPPay7h+ABUj6HO4Fg0FRYZuNRqOkJHBkAAlAauDBOcFIYGAYB+0xY8MBAZ6ZbeW8KOkEh5WOJOhPZkk3Nzflc1cYoEN20g7hMXLOZZxub29LKZHBnLFwNEHfcm52vV7H1dVV2RDILNTPZPzptxn+Qyke7BA5Iuuc6yQ1AYiz8xjbDnoTFiatef0QBMylhh5TiJTBmPZQJ4yeu937/V2Z1NnZWem/7Q674Z7oCCSHyJkd74wZJnyWA+Nj0lB3PJpDpUNmCeRFTMV3u10lvxQRhYIDenhxhys5jOK3c4sZSPgMAyZvYkPEw7FLP8+4ubkpNbMMuPtr5XN42Gg0ykvXkAWKCDh41Uur1SqhvtkMRgYLhVGuVqu4uLgoYGUAd1huFuxNUWxMOAlvuAIjdK4U5bLMaYsZbET1Nc0cyM5hby5BI+Wx2+0qVQuc58m3iHtQ5H601UpNLh8Qc3RQp1vN5n31gNMLMDrOy2DlNtBXsxLag4NkjEjP4EgGg0HF8TIeACKhsJf5oleA6mAwiHfv3pXxbDabpWYZfTBrx85MUAzmzhsb0Pke4COlh46v1+s4OzuLZ8+elR20SF2gn8vlsmycTTsc2TFeTNB5rJAx7QBwySVvt3erBs/Pz2Oz2ZQ8LN95VRy2arZKFMfYMOmW+26ssaPHBlw6yrHf7x8O+evCxpxvIxzN53liYzablfNIPtO57Hmdn3SpR6bZZh4GQj5nFQpK6nq0PJNnr+P//WxYjyfGMrg4tOadRjlvSpuZhIm4yy9dXFwUxsIARtzvRm6WZsZLGwA1QJK0C8oOWwUYkAHOx4zeE1s8x6EaDofn58hiuVyWGWOH4RgloSSKayMCJDNYOYT1zLKZv8M9pzDI9VvmpDEczqFbTifZ+TDubm8mA/Q54t45zOfzygSbFyn4+dgCQIiTW6/XBZQJUdErsywMHFkxTrQ799N6xHdOG5j1ebILwBwMBsXO0NPT09Oylwdy8qRdjk4dAZhQ8VxSdczeU06I/jkfn8cop/6wR2x1t7uraffGQ26fr/PBOOaj0Wg8XoeaAcfGg/HRIIeFdJiBpLbSs+YMmHdGwst5YCPuQ1kM3YqB8qJA3W43jo+PS/5nsVjE+fl5eVlXRBVQsmJnOm9QtVxQEgbPjJzPEDzK2m63KxN5bHps5kE7DBgGexsf31sZkC9/e2LPe0UiV9qHgrqciZQNYRLgxoGxAaa0jXsZ4A0U3M/tZCwAHTsGGyYOGR2zntA36hpZ2QcTNntBhnnSxuGf9d3f+bO6yMjgiuxtJy6jc1shKc1ms+T7iAYnk0k0m82ymIacokudANNstwBGTon5HBOiiHuGi7NmrMhfXlxclFpwvmcc0ZEsN2Qfcb8Kz4s+7ExNGNAfohzfE2JGv/05B3qC3TvNRJ7fE4+2c2OCHVAG2ohHXiONQblzDtdub28rKxDsnS1gtvfCy7A4oNVqVYzVxby0AeOxNzMLdsdYxUGYv9/vy0oUiro90FkgFpwNlHMNWHUM16yO/2m3AQa5vXv3rrzqlj5n5mXn4plZ7oXhw6YjogJ4gIg9v/vh3KnbyXgCbBiD5cY9kRepIADVcuOeOBJfy339DiH3n/t4lpsCcRwUsnauf71el4lTZIycaa8dk+VA/7LcaIuBA8AB3HC+To85p8nGNl7osN/vy96tTEYxAfns2bOSYmJjdoCFZ+SowuNCX3J6INuASYLtxCE17fAE9ccffxzT6TS2223Z3pLJauYnTBI8puCJUyLWTRw0E8bZdukXtprJD+PNuYAhB1EZOWKDqWWYQTXbAuc96RUo2YBgXeT7ptNp5eYOGWAZecKAxjmUxFNn4cAmLNAcPrDRw3Q6Let7KadwLskCyjm07LkNCO6bWaE/YxBwFoAnysLgz2az+OKLLypvXvSgmRVwYCweaMsi4p5ReOxoA+d6ggVF9HI+zkPWAIc3ErHhkju0ITKRkQHcY49zMIPLjsdOAoP2pBEG51QJ+rnf70t1ilMbgKgdt/P4ntQwmOTwHvJA2I0scnqH3LVTB0RlrtPk/o502NqRGXdm/tmqDzJjR8b/jD2/DQ62BesSbbaTcH2r0wqNRqPse7pYLOKTTz6JyWRSmW9AHn4LKnLIaQanAXPtKasyc8rNbeQzR7n5meibF3/QV6IF24V1z/Zm+floNGpCfgOLb4ZHZ0OU7XZbcqIYKjkqdxr2xGA0m80KbSf0cSkSoGrGQCdzaQgslnce4fWZJSXhb++UmSS/Tfn9Xb7WIbgBd7fblbytJwBInu/3+7i8vIzT09PKzH5WBNrBtTZ039fhqCMEe2dKtjDkzMacyAecDP5eEWeDow2ETAYkXuq33W4rBfp8Rr/spPzbrJHNdAw4nGddgz3RdhuT88uWodm+x9cRmZkaMnfOlrf7cj7PMDjaedAO192iw8PhsIS2fq0NTG84HJY9hNlxnqgOVouTzjqMvdA26xg65xQYBIZUVI7mNpu72vRmsxkXFxex2Wzi008/LbtMzefzos/eptITYU79mSAxfjh57JjDTtqyZrwzIYKseeLWP05DkFq0jeTnHgLUiAd2m/LBAFBwu9/vK6UU3hHcYa5XSNFwjI+cBbv/o/ROGhvoGHiHOXgWF1+TWmCnqMwWXDObZxYtJBTMxpVlwm8AnHySAYeQIiLi9PQ0vvjii8quXIcYr0GF/zECs3eehWwz40NZzLo8HgaKHL7TvzpmDKiggB4DMzUmogANb5KRgRQDt7NFLoyj25AnIVyu5KoURyLZKdFm6wGyRpdsSOgd1zFZBOv0EmIMkrEgSnPayjnfzWZTABoAwqFRsxpxN8l1fHz83qIFGCJglkmBnZjlxn3pv1+Vbh2ANHAP+tZqtWI+n8fr16+j1+vFZDKpEBpHbBH3dcgeB4Oo9RsZ+DM7hEwAnVrwZzkFgg5a39DljAWAsvXg0PFo2RQ3h3XRAJSA0h+Hki5FirjfR9KTFLAP1wASlg2Hw4qX5iezN4wEL4gnury8LF4zGy39YhA9OAY556byoCB8BpMBgZ3acJkEOj8/j9evX8f5+XmZgPNmMhiWDY225sGmX87jZQaFfA0y9KHZbBY25/wbSmbGbSUyC8gMwEBDu82guXeeOeY8QMZjZTljIJmZ+FyYH0DqTXccATht5cjHkUJENSfKhAn5WvTW0Ydn6amltKPMJXrYEuNGSdBms6kQlogolTKkF9brdRwdHZX8IrrB3EaeQEX+/G97IIqE2bp9OW1jEhARhTm2Wq04OzuLdrv9HlPd7XaVVwRR4cG90VOzaOwKDHAqxc4hEwyO3E7sxYBthwcOkAbgnBzJ+n51x5M3RwGsGAA2IODFce6c6zNRuHxfFJsVIC6xYYAMVnxGSMTnMCBKK6gBBCBhSSis22DwQNBmK5nN5RlMe9Fer1epd4W97Pf7ePv2bZydnRXGbNDmPmYyBrCcE6PPDpkc5uIIIqKyRVquMfV17rfZMkaK7DxhZv3gOud5qfMkf47DhXmxdJk+26AYGzvwHMrRbsCW85xrB+CRCcBH2gbgw7llx44jQheY5PIY2BE71Mbo6QsycViNPLJzBmCY4QdoHY1dXV2VOQP6vFqtyiIWoiA7JDtd9NY1vfzQf9rINdnBms1z7du3b2M0GsWLFy9iOp2W5dKsFLTDNWvnuRH3y4VZNIT8caqMI5FsTkFhV9YTZEE7wQTub8Zsx2qyY1nm3DPHo7P8/hvv6/02AVADg43LudEcdqJkLrTle2rQeA7enplnDz4J+Xfv3pUiZMCGmj/vLIMAHR5b2Qx2KJcZjMF+t9uVFVEoHbnmZvNud5uzs7PKG1ABGJQGuViRDVbO6xAt2Pic96L9Nm57WZdU8Tl9hY15bEhneBzNBg22HMya2hAjqrvi5wkpDnTJzgDjR/aZGbuW2WyD7+0YPFnocTcwM0aE8eg8ToJoCMZp3UGu/M040w4zPkcj9Jt2o/csk2w0GnF1dVVxfPP5vLxJ9eLioqQHvA8p9zSzYvy9mQogcShK4KhjbqS7aPebN2+i07l7jdDR0VEhON6kxk4Q5g0WRNzvq2EcQneRpxmlnbIB3pGfGa7JRI5ePIntdAKHbSQfj76kz94TI64Lo/NDM5NBAGY/dJyJIzfW4baXorkiACa83+/L2vfdble8NMDlzZatFLTbwnG4wSBaHpnBwnw8WUYbz8/Py67sEe/vFZp/uJfr8XgOgB4RRV5mF2Z2LnyHmaJYDrMdOWT2Tl8zM+Ec2mxmx3XOSTm1QMTCeeiFN6Shrf1+P4bD4XsLDSwHjwvtdk6RscxO3mzbho380EmYoZ9DDhi9YtyROQYNATALzgac7cZ/02fWwB8dHUVElPwoEdl2ezfxB4iu1+tiJ84xeo7CskB3DCBZrofCXh/ONV9eXpbJYWrBYZPuq9uBzPwyxe12W64HL7gXMkI/60DT2JNJkpmmUwCO9pyusYy+MaBakEZyGKrZmZWVayOqpRo5eezB4Vy//xqmGhElnOf6nP/EaMnVeKIEj5fzaO6b75nbZ88MIACeLl73y9kAxLOzs3jz5k3xuK1Wq3hdAJ6DAXWJjetP/RMRFSM1c7W8Ya5WJvrg0rSIalF9ZuYYi9mzmQ/sPRslUcGhcNPOyWvVHXUMh8OSNoHFM/Zmt4A76QQ7MK618bgdyMETGX6JJMBL7TXLhj1+Zt4GTUJ62mKgsF1ZFrTP44Fun5ycRK/Xi6urqxgMBnFyclJWpbGDGsDe6XQq6R366TA467ttwufYdmy3fOb/YYrv3r2LVqsVH330UcWpYy+E7DwDltrr9cpCF0eq2AYpE5OCurSA+2Kwz3l93zeTR+Nh3d91Ry2g+oYI1grPdzkhDGM0svuesBW8lwc6Isr6Z6cFXCid2Q1/X11dxWq1qqypZnVMFoyZhJ/t7zPdxxjdZgaLGUxAkNKV8/PzClB7Isb1oi6dsWMizLQRGrC51mOUWSQKZDDl3rnYGrbqHLYZvp0Gz/Q45xwsSszSV+eIAUDnSTMbh/nmvF2uTfUkFN871++x4n45UqCvVIdg6DY80jpuK/IzA0N3GT/O8ZZ+1nvPETA+jK2fTwjPXqmXl5cxGAzK7mTMJZCiIDXmZanogFk8z822lXUpf2bwcp+wESaHj4+Py6y+bRG9xEZMDBhP0jmQGNI0jgrMGM02bXu01+eZvVo/zFJzJH4ob1qR5UNfmhXmnFcO8c3+LHAGInuATMM5D/DAK2H8CNclLeRBYWPkS+fzedmxKT/TSmyB2WM7FDwk5IgokwQ4ElZnscQV5XPaAVl4oAAW+ki7Cemd72OCyUDkRHwGD3tllJgiaisz9+EHgIVl5nuZxXAfp2QwctgybXN6A/k4B+sQHdADpJAR7JzIxqyFfKTbaGA204q4X3VFlIMu4TwgAJRH2S7cbjsLM2eeZUeQ2Tw/ud+MN7bDxiS73S6m02nMZrOyAQ99wR4ajbsaWdqIM3YUlFm7dTJHcwZS26/bnXPzy+WyhP/WOcbHaSZP7Bk0GW/6gA4ZGD1JRRvrWLQ/M5Y5Qshk0P02IB9iqrWA2m63K5MsBkmjv72BE9t+GELy8jJ3yt4z4s6AKXAm/GIWHYCBpeEJmZHd7/dla8GcZkCpnXDGaLxZAgID5LLnBWwIXbiG3WcuLi5KEp49CpjQcOhh1siz8cze7cl5X7y3X8lLO2B2yBFlcdjtkMsTH4yf5cr3sC4OlNggh0wwHNrOPRgjRwARVVaSwzXrFOfDpB3ee+WU2bx10KUwdgKe1GIbumx87fbdbu/sJIZDY6cnSICvy3lxHAyhraOSvOgg246BN+LOOZ+dnRUCcXV1Veqc8/2QVyYzrtmua392+AYUt9FO3Hrn/y8vL2M0GsVkMomIKCWWtAfnCGiir5AEj1fOnxt0aQfttiPIzjXrh/uQMc9j4eMbAWqv14ujo6MCWDksdgM56kIEFAjgoLEorgVvwUTcszqvX/eAIWhyLK1Wq2zLZwXy4Ne9IdXnoHxWdtqeqxU8q8msNs8nd+s3AOCFDYTIxsv7Iu5XR+UcIIrlcBklxFC8pR/5UodlLlNx/rHZbFbSJmYbObSzbBqN6o5QVkA7NId4ztPRHsA24r6EBRk1Go1KiUxWaD7nfmwcnENo35O2APi0y/nkZrNZwlVvNA2QeP03+m/HaXuJuK94MIDlcTGwuq/Wg81mE+fn59FoNEoRPWPGPbMOeExoiyMkg2gGHgOWo7kMVD6493K5jHfv3pX8KPZvkoYus6VmJjw8zxUC/iyz6nyOSZVJoB0V/fOkc2bnHPk6H7WA6hvnBhnM3HizGBshSu5w28Zlj2olIzdmxaRdri/kWawrRkHxvlaUnDvKygC7YDBh1aQfDM4odqNxP+PqFWMuLfNAsiqF3BYg73SGjRCZ8Tft9FhhwCgKwOTd4M2Ic9iOnGFgZqmMD38DpsgZpc8MzekDrnfelrbboWalRXe4pxkmYwljNcibqfJj5uWZbk+EWccMGGz5iAFHVFftAar0lbZl1u2w1BOGPAdGybl55tqgulqt4vT0tOR2vYjA9/UYMJZm8QbW/IxD4X4GocwMbcsRUV6d9Pz587Kaz84VpokjpN1OAaL/yM1zCkRAdmSWvyez/LeZMDrgqhL32Tr50PHgpFTOrXiQLfA6w8CArUwGMHsMgwe/c+jGeZ6woO5ut7vffcesxJ7dNW0ZsAwEObR3wa9zNgidGUvCfECS0MZhJHJi8sBbypl5Iz+H4xmwMGzakh2ffyMLp1f48TVmOIAW48ozNptNebeQi9L5G/lSh2swywDDMxjrPLFF38xMuA5dQR9wUJ74YyxxeBgNz/OzHbXgMBg7xsMy5hlEFgZ/dMJMjvs5P2gQ5ly322TDjp5+b7fbODs7i+Pj4zImJj5mlmZktkP6Z5bKGBrUuE9dm31POyOev91uy07/nhi1k7FT5vnWX+OQU2cZ/Ogr/2cWXpc7JUp0eWau5LBcDrHTiAfKpmi8J1IYWDMN5xty7gXg4zAz4jwXzCMMmJ3DQLw3f7sdvEDQg2Lw8KytDwsmh7gO9/l8t7vf2xPw9jt/vHoM5gkAw6pJB+CN7bjMonK9aJ60sRJ5MQTyIb9oIDbwuTrBoMH3PMdGzW/uRR7RbDSHazBoNtLg8OSVQYdrPY7WDfprhQc0V6tVrXOh3Rgj6R+AkBlyTwDlcBfZo6te5eUxwzF4ZtsMOhs9gIVj8NhyvnP92cHe3NzEmzdvYjKZxMuXL9+TG87BNkcbPHlnwDULRL7ZQaN7BkCTD8YMvSIdBkv1Lvlmxdir24qc3A/6iLxJbdhJGHMcqZjN2vEwV0PayPpjQmTWn49HGWoGKW7uB1mo2TtY6erSAnTKuVYbl40jd2a32xUg4/vcFpgFA+6BqfPWDkO8cojzqJFlog1FZy9LM1Ov5yZM44V8lg0DalaIAhCGAAY5cmAii2fAlLi3Qxs+d39brfsNPmazWVFKJqloF85xv9+XdezO47LDVE6zWOn9XOdOOdfRjwHH9zNgOufsCGK9XleWQ3MfDMKgxQKCdrtd2S3N+U7A37ptOdM/xgKWnA0wOycMnrGmjzg+sz5XlFhuzebd60G++uqrGAwG8fz584i4Tyn1er3o9/vvbXiSox7ruHXMkYxtibbm33WT04zJfD6PDz74oLTHtdQeJ0c7bjN274jC0V9O85moQYDqojineZrN+0ne/Hzj0CGW+uDS04z2FrCB1NegeNmL2ds7h8H/AK4/88BngEBpeRujc30GK3sihwjZY2dWDZjmvlFtAOsE0Hk1A8yHtnC/+Xxe0hLI0YNlkMd702/nAzNbM7D5AOwdsnvPSfoIc+52u5WNjAFNj6PvB+vEaH1/nJdn4IfD4XvgapZtXcmG7TpcAN21ppy3Xq/j8vKy6ATj613QuKbZbMZ4PC7VGUzueewwdor6W61WKdPy/awnNmrnVh31mM3bJupSO3yPTmDseWLr4uIiPv/88xgOhzEajQq4EyH5Fc4GAzNRxttjnaM47mkQ9HyL22/HERFl3w/eReW5A649NAGdMcB2aX32JBVzEnbIdUCZx43owtdlez10PHmDaf634RtA88NQHAsa4HMOz0JjcPNAmFU6z+fNKlA0CyF7EXv3bMzON9WFLY1GoyTUEToKdnt7v4UhCmI2y1aCZv4RURTd3t8yt7EZQGHIDoENtGbPEVEBEgO4+8oyyvF4XABov9/HaDQqlQOADd8BGOQTLUevf4+o7pxup+dUC3K2A6Z93B+gQmbey8CvGHGxupkhusj7kHa7XdGhrNu0Z7PZFCO7vLyM29vbwhYBLuttju4M+NYLIg8A3U7AEyjoK+eaeMDm2u12XFxcxJdffhmfffZZeUGjwTIzbPfREZv1MEdRTodkUmWiZHA1WN7c3MR0Oq0wQtebmw1mXXC1jOVLdGDdcp+zbTn6pf92HkQEzu2agNWlDzkefafUoSOHaj5y6M1guKPOXTAQzt3VsWM/EyPOXic/x9c5ZMnXWWkM+g43YGDkUWE0rjflehTz6uqq7DFAXzFe53eyMWdW79VR+/2+rEBCDk6FoJyWLfeGeXOvOuMCwFmJg9LSVs+mYviE2TmPy99uD/fJ49Bo3FeEmMX5OhsRzNVMhHG0EWIgjHO73S6LMFwX6THhPJ7tSMnA6S0C+Y7zsw45/cV4wO7zYWADND0B48lZbLDZvNuMZzQaxcuXLyvb/3lbSTvhOtZm5+KxoV3WTQPVITD0Pdlq0Pl7xtI2m+VkufjZdYzTaUMvCvB9HYG4LejgcDisbOBtppyjQR8PAmodyzNTtVH5fAvFxmoGlT2CE/g2JLO67OlYJ899zV7NVh1KcL/MjOrA3oLzBNtwOIyIKAx5NptV9oVstVrl1RCuS3TbHKogT8vSIMbhVIqVyQyevwFLPmOxBssReTayo/4Sxnx0dFSYKXtSTiaTYsgUkxP6wuRyNQV9cBE5fcURuMaX6yhV88YpjA/PtSwADvpBKsIO2uDjF+LZUeaJOozRbeWenujgyJMd1mN+G1jYaY1cLkwbR2CAN1NFh1wa12ze5elfvXoV0+k0RqNR0QMciifuMtvMbIyxsAP0mJpFZ9txX/kOuXs2nXe9UbWAPudILLNXA6In3hwRee7BtmBCw+RiXho8Ho/j+vq6Yisej0Og+uhrpH1kmpw/9/kIPAOAwwsa72Qz13EPKyyDBSvBiBwG2GjMHNxmg7yfaYDi4H60yYXfm82mLHPlnFarVV6za6Mwe8r5UFiK20+/OMdhhic9rCRmgZat2ZVndv2M7LGdU7JRuf7y+Pi4fJcZk38cdtlhopi5H8jYTseMyo4ZeQC8KDxAyUFqhnGwQ8hh9G63ey/NwTMAJvTPepQdng+nbLL+2QmORqPyLinrPM+0E0am2fHe3NzE27dvy8swmZAiqrKNAhS00dGmIxs7GpMA/2/55ajUDoGUCRu44NBh/LZR64jlyz2dn2Ys8zyBq4ZMpDwRaBZKe9iXI6c46ogmx6Mhfw5x6GydF8+Da6qPUMwirVyZOdqYLNhWq1VWULkNtA1heiLDR3YIWcnz/5yPkcMIyJuyZJGZ4OVWTUSDAAAgAElEQVRyWV4olsN4/jez8RJaDzzhqgfdMvXWcZZfVuSI+3SFFRY2utlsytsY/GxXGQD2BmP6f3R0FP1+v6QHCP3Ji3E+TpDnu4LCRklbXWGQld33MwgwucYEGOchG4Mkv2FLvFSOIn6AfTAYRERUDL/T6ZQ3VdjR2fnUOWfrG995kpX0wXg8jvF4/J5OWG8Nqs5FY69nZ2cxmUziww8/rNybVybTDoOk5xVyPzKI+H/3Kafqsj2RIvPqQyZA2c0L9m49zlEvnxnMbQfoCjp1yPY5n/kdQL/b7cZ4PC6Eyf3JDszHoxtMP9RQf5apcB1AZaOvyy8xyNnAfQ1Kk8Mq7mOA5zMLw0oOE6tjTNyXwTdzAlC2220BJMJ/F/PbqB2aA1SAE8/1jKevp83k9dxGlCBXEHgcLQvakoEG5cshNucBYt64hp3k6Y/HxGPoEBmFzeBio8lMz+NhEDVDdt/RAzMuDNpF5Y5okO96vS5vGOXVHW4ffWSnJ1isqxxoc45Osh1lwnB7exuLxSI6nU7Z59R5WnTYaRLSFegBIHV6elq2QMTB52oMdCGnuLJTODQeJlfum51fHmfL22H07e1tkXneYNrtyeG2qw+Qt/UoO5vsnOxkPYHLFpJUs+S8ct1xsA7VjTJLzd6LTuQJDv88pf6L+zskzAzVQnKokgfe1x7yur6Hw4FcztJo3M/KeuKMmlIUcbFYlF3TM6MCoBhcLy9E0SkodmiaAdkgCsBHRMW7YmheY27wdJ7LLM37K9TlYPPsLQYMc+U3snSI77H25JodlPUtswuHcYC6DYvn7Xb3a/M9YUUqIE8g2Rlvt9vCRBqNRjFo6xhOhGqCHGo6NcF9e71eyaVn0KFf9JFzAHRe+siEklMMtk2+Y6EFk4SXl5fx9u3b+PTTT6PX65U5BxamGFRJT3FfkxnbTx2o8LdlVUde/J1tnucAagAZZYmc4xQD+pbTHyYmfEYqymOA3DmQBzoBcTg6OqrUjiOfQyz10ZVS/LbnQZnduSywOvaYhRLxPgjWfWYFRBh1rK0uJMHrZIfg/lgB3C/uZzbAueTsKIsymPo8syRACFBx2VGjcf9Kbe7v3I3HJb/dlMGFKTuXaKaZFcBKZWMFoFBwF+GbMbN7PaAMeNflXmFVNloDkCev8qolM1Daw4bK6ApAmplVdk6cD4CgH41Go0y+wdoBKnQgRxueRLGuICvn95A3euf5Beuj7Ymyp8lkUvZi9Yx1jnwajUYp72L8Li8v4+joKE5OTirpgW63W8rFHEEecmzWDdumgdaOxf3xmPt8UiaMNfdcLpclx+qI1FUOLqEyMXOqIOOVN6O2neOgM9iTDhuNRu9FCeTg8/FoyG/DqKPMZpuc7wHy/bjW6A4o2WCoozTQcdSFe1zn3wyE281ntM8DmUNVzs07KQGA5DBXq9V7r4U26JB3MwtxHSVAA6tw2GxlMTDCtgyIngDzJjBUJHjyJY8zfWq1WiX/Sejr0rQMtFlP7OgcRjokzY4LPaGOmGjAuuYFCVzPdo2OFlD63W4Xl5eXlXCc/vO3xwpmyyqxiHsnigzYmyAblkGqjrW4TtRjldNSthnr9263i6urq9jv7zYzJz1jhsx9KN5n/LCl2WwWk8mkTLLYCXsuIs/aZ7uyrZkUuR92FmaN1hWH+LSFBROOpLzKEF3GhmCudmZEgugNEYXb4ck1dDZH4DkNRNjvdFxOO3A8qWwq5yQyUNIAg6+/82Gwyt8bOAzI5NxyDsqzkJkl+28rQ2bOua1m2Bi6V2Ex8YQHo2Qq38dLQl247NCY+znHw/NdSxcR5R6EnN5ODtDabrfvhfyesSfk9nhx34goS0fzklsmbrL8+Jt0hdeaIx/u5dyrdcH39GSUdYKJSPpncLWR5+WxXvWFDmW9zQyM+7rI3rqN4wMoveEJ93D4aCCnnwBXBlUmJ3P0tNvdbf7TaDTi6Ogoms37twVnsAJsYPmbzd2Ktqurq7KOHhLD384zm12aPPnIRIpz7RRsR3mGnXsgT6dzuA/ypU/kVyeTSQyHw0IUWKloEuDJ6Ey46sihz0FnfY9ut1s29AaY6+QS8UjIn8MBN6hOKZ0PxSNbiBg7IZ4VwgzMIUIdO3JYwXU5R5U9qu/tcN5Ai1Gg8K1Wq7zhEkAivLy5uYnz8/NYLpeV8JQ2ml3WsbjMkBxGwYq5z2KxKG8gcJgbUZ2QsCMwu2FsyMcRqpP0p62r1aqkE5AzpTauX6Rd9Mt5UBSfw07Q+VT0ClmQ6oAtZjbj9xJxL/rrFAghPPlH7uFJO8YK8LKOZ31EVyOqr45hnD0WBlzuhbxoK8t9vd8C8nQOOjsu2ORsNovhcBiTyaRSc2kb9SQn47xYLOLo6Ch6vV6pwSVtwr4HdYSIw99lMPGz0EmzQeRoElWXrsABUH3i8Hy325UFNIw5VQHUm+atDzMTh6ggc7NNbNMRKM/p9XoxHo+Ls8py8vHoO6U4MpLX5SgwCAvP31nANjQ/N084MFjudC6DwEBy2/OzfF8rjJWf5+x2u5IYrxM8a/cdnhWhttsVBTfbycpqQye3ZQbjVVgYOR4UhfG980BnxgBYwviprXQIxjluE5M0XkvO9/y2kzTImHE4lYIjcphXF4HkfpqVmfX5xwxsv7/fXjGzixxioyMYPM/12w0MFl7im0vlDBgGV+QFq6I8yjl498/y3Ww2cX19XRyj2bBTCjB5xnK1WsVqtYrRaBTtdru8FJOxdf+zDtUxOZ+fU2s4lmxn7o8JlO3aC2icfjB5ajTu8t2Xl5eF9FD2xvekVbwk1WkoZFWXPnR/XFZnoHa/fDxa2G8P7O8sFD4zaCEoM1IbgL/LIMd9ACaDGefn2WEDh1lzFpZBjcOgzbUom5UBkFsul6WY32zFHtCyc1jlkI/n5AGGNXgTEBiN80NWXrNTsxu+hxkhM97s2Wrdb6pL32HgjiTM7H1fv7yv0bjPdzIeZpW03xvPmLl57OmH81+ArJ2DxxyD8qtY8sQZfbReWS8wPI9nHTmwbJxrRvZm8Zmt5fCYthPyk9rw97af/f5uSXOj0Sg7hblPTiHxyiBK3GDHXiFkFpyjpQyeBp1sS7ZBxj7rIpGrJ1xtQzga7B+98XhERNkyc7O5W1xzfHwc4/E4Op1OTKfT8kptIi9jAM/I7Nn9sY3iBEejUSWSMMZwPAiodUw1CzcbspWq7nB4YqUyuHjVDcqH97aBmwmbsmcWYoPncPtgS+4Xq0yQBYo3n89jPp+XMMltAPS8govB4Jk2MM5h8LwjECVZnGfjxpv3+/3KJInZlvvNs2GlrjNl2z3CbhgxikQult2W6C/A73bxTOuPFTKiurmOGaPTBNko/Rl9AWy5px1pr9crpUYwl/1+X2GA2fm62D/ivuoB0DErxhHRBhwFVRrX19eVMbCsIu5DYhuxl/TCWGFHjJsBf7fblQ3Kx+NxSYn4YLksz16tVqUkqdG4XxyC83G+F/kDZMiZo85uM9s3YKLnOQWG3LMjsxPP9syiCp6/Xq/j/Pw8ZrNZvHjxIiaTSbRarbKHRl3kRJqIMcrtt60C9mzqMpv9f5Sd2XIjSY5FEaQWLqKUmdXT3Wb91P//Q/MJM21VWVpIamfMg+w4T1w5lTVhJpNERvgCBy4u4Evc16nrl289NWvwlTO1BlEbfdJoMwHXwd+eEQdcUQ6U0XVzGdBROMq0ApipOlXAAPIZSX238f39vYXfCN8Jd4fMCQDc63AUoyGczhCSPvEZBm4lRUZuzzhOX6JHG/GuHj/qIddadTxL04yFtZdVHyDMdxiJx9XrJtkZdSolgyOyA3eonc/ZCDiujXrzDNDc2bXb7dqMudkcqZUEPTNiHJFXAwzD8cBuR0wGA/qQDh3w9eSVAc0pFOuzw1ZAdRzH+vbtWztaEqfu/vG8dZb25AHm6FUyMANSfubnPLZpg1XHVQ4O++kbeuf2OKpwHjMju7e3t/qf//mfenx8rOvr67q6uprgEhEKesRZAcibcjIqJ4VCGhCdzWsYhtM5VANpMtJUHINcL2GbIYBpNQJ1TsmfVR3X4zmczES829jzkgZUA1OGJIB6sm2Ud7vdtvbYQzMZ4TI9+eS+GvyY8KEc358hV3pas0X3wc8YlFEYzgA1C+GQbE/AkPZwCA87o892YO/v7y3crjpu1+zJGlk41HToyud5PoCfNYibcc3nH4dm4wRgmZeXl+0lisjXBsSPl4XB3J3WAaCrjhN7hNHJuAFcO0QAH9n5dLCqD2BZLBZN3zMfmcDGsrHr6+u22sI2B4tjvMx0q6pt90RXAGHriO0Zufg34+y20T+Dj/WF+6xz1hPk7YjIE77GKevnf/7zn3p6eqq//e1vbTUAzr2XR+05EEd9tOH19bVWq1VLL6S9jeP49Sx/fuaHHY4nW4Q1GUQsQAMXobRzRl6C4gXbGWInWJq9OPxPRfBA5veAiPtNEt9gipI7z2PvxyAAFG4jyu08KvfaaDPkMDM3QwIEzLKt4N4w4GcTQABA7/v3s64TEDYr5m9YN0yedpnt4UAdbtrYk4FXTQ8btx7hmMyI7WzQQfKNTMJYX62/jIOdqc/rdGhIXT7Uw7vI/Bllk2JhNtts0jJyREPejvLSltjltdlsJjP5yO1wOLSQn5f64QT42zPfJk12ZhkaJxPNyND24GgmIw7bm1m6c5Uez5SDZXE4HOrh4aGGYWiHWV9dXbUI05EgTjxJSBIhnOjLy0v97W9/q+vr6/a5r790OEoPhAxkZotmn7m7BXCCxTBRYqNL2u/1h7SFgT4FqHllyGGwNdih+A6X+f/29rZ2u92nXRWE+lXH0J52WjGGYWgzrRi0FdWzsikzh2sAMPWhpDlOjF22EcXAgPb7/WRxOLKhbr89wA7QoOxcmIHCz8H6bVieHHAujcuen3YjC+sWWzXNQszaAazLy8uW47ScrUtminxHHxP4PevvfHLVMW1ie0EO8/l88nI/h/UGOvrNOl9PKjqUpe2AKDlV9wXgBpiZN0DuXkdsp9YDUHQvdY1n3SaeSUB19NYDNNuTWTCfJ5i6HL57eHiol5eXtlzs5uam2SHjxUHh9A9bcn9pL5tequrTa1K49y8dMG3ENstBAJ78sAAdNgOkMCZvj0NYZjlVx2UoaUR4boc3mbfMQXXb3PYEZk9AcO/r62vd39+3w4irqh2M4d0eqUDJoABTe3HPYlMvMvCOISuUlc85VOel3AaHSc7RVn3MljL5BiPg4n/YMeVTDqyL1QiMrdkxn9kAaXcaa9WULRrgDdoGFmTl/Cfj0dMPpxicWzMzyXQLssMxGezcTpyGx5d2I0OclM/PBWQNBnxXVW0HHdsdAU73x87s/f29fvz40d726u8ZT8YQYKcNTnc4srRNIGMzafpLu51S8HOE8plWcX0ZNabz4zPudT3IjKgC506Oeb1eN+eMvTOfQV89J+E6sPdcZsY1DF/kUJPK8nkKySGBP0N5UDJP8KQHSMXLgzqo1z8Oj3opAOrqeUozBzO+ZNqA68PDw2QdI97f/UBBGADa9/T01NarmjkhN/JkZpm0xZ7d+R/nLjEEb5WkbTZO2slC5ZS5HQoK59wWcvJa1AyJ2anChRwwAjsyg4hZUTpBA2yGkV6ahPxw1FXHU8LoQ+afMTyDaOb53Tbk6DQCnyXTTJaHjuB8YEcwZ4e3uTDfdscY2QY9yQQj3+129ePHj1oul+3kefSW1SS5Ftg2YdnbOXNl/hFZ2Y58mZRZz/13pl4oC722w0nMYbydSuNnt9vVbDZry6pYjYOd4HwTmI1RJjV+Y3FeJ3Oo6ZEQqDtPB7x3HCPq0XRCMofWFrjzhQjI37MtrMckrPTuqBXNbMi5X+pmLaD7x3Fqabw2IsvI6ymZkfSCb2RidmaPSBn2wCkbOxqHcBkKeZOEE/l2Smxe8CQUbc8wOL22+2rm5yjGjAHjoK20B5k6WqA+/vZ4GIQTbNEbGCHgwzM+QMZ5Uu7xOJgcVE1PNPJ42lHzt+cBPLmKw4HJ+3xd34vM3A7kbkfh5YS0cT6ft7N6v337NjkUG0B3ftZn5BocU18z+rNtGowM/ukwU17WTz/HvSYHtmO3zQzZZdjGHh4eqqpaHj2PWjSRcPifUS82nXl4ri6gXl1d1Y8fPyY5L4eXNnbPYtoD+TuHnRYALIUUQFL/pP8OWehwGjH12/sm4/Gz/tz9QLn2+33LnfI9YTu5LgyI/uz3+8kh0w7bUR6fNNULc2zctNeysxKi/OTaMm9nBwbAZB7TDDuZfG4qcH977JPQ0UDJ83lISi/6yDDWBkS7nFKw/HBQOEfYDbPYnDHKa0bMDntsy+QiJ0S4MkWAbBhbbKa37x+A8wSd1zNbDtYhRzJOfSATIquqarZMGWxFBVwAVK9usV3leKCfSbK4kuXbKVrGLsOO1xFHbopJnLG9UK/1kDJJ2z0/P7czbo0P1tvEIcqzo7cuuI8nc6j2VhSehSZImAX6fgMpz6e3d9l+NkMDykYBzVrcVg8Yv5N1+35PctD/w+Ew2XGBB2OiDPYCUJjRZkiQ3jM9ugfV4YgVmDFJeVdVWxbkEM7tM8NGIT3JxHg4T8k4efIoFdWy5T4rW4bHvtdyoO7MJTqHmoBHm30AS6YN6IvTF5zaRPrDhmRGgt4axLnMytEL/rfTnM1mEzYDaOIEGBuAHzDGaRmEkWWG+J7MNSuDqe52u/r+/fsEUF9fX9vBP7QDB5skKUGT/jGe/m19T4bL55nztsxN3szo+T4dXaYM+N1jxiZ1nNFBRMaPyYP7kXiXV3Omn76Ji4Y7RDbg5RYunmGQCUkcImNQGS57EPmMzhnA8hkbmYHTfUAQyYDSe9oAYTYuP9vDAJAvZWlVDrYFbxaQjMuDxvMOlw1ulOeZZyt2goAVDcfAsXQGkarjRAjjiJwvLi4mgATDMdg5/0SKh1Db40V99NNO3GOcfaIvnqG2nMymnRcHRDgzdDabtQk5ykDGTCSafWY6w2cq0G8z0wxRrfN2CPSF/tlR2JEZRExaGCendXjm/f29ttttbTabtvc/D2EBrGmjwc46mrZkZ+pIMPuf6QJHX4yZv3ekaRs9ZU+9y7LHAaAD9A89YFyIJByxpe1YL3vXX3pJnwfIBXkrpIXHEoPcdpnMkb8RrBd2+zm3IbfT4c09sAZMe0YzAxsbfztkszOgT14OxP3kwh4eHtr7pXKwvVbVe77T41E2rMmsq+rziVzI1BNRBisUMJctOZykDhTKY2a5wZ7W63UDVcDIeVX6iwxpx9vb2+RsBIdnlhMMqfc9fbexABA2Ysp3hFR1DM1JG5kVOQRkvNhuS7tzvsBgzd8+GHyxWHxiuwbXTHV4bJHZarWq9XrdQNc6brBlLEghGKQIdzkYhWjAzJQ2As6+HPWYiCToeoz8eUaHPWbq54wJBnPkZAfnyCWBN50yP6TsSPmQIuJdW+gDLzc0RnjMe2D+5QHTNs5sbLJLDJzzCQEjJ9DdOJfDzL7B0R7WjJcOMRFDrszrQ3sDZc+ahurJKO4xC/AaPp5zaPr6+trA1IbstZXUa2XhB7BzeAwD9AEpeFl7b/pgo0C+BhkzXPpi46RtgGoaDM8ySwqjY+eUJ8UwVtqFIwSkTumRmVFelOOUh3cjeezoh8vE+SIXO3/GwOySfqNj43g8BDu3AgNEyPXs7Kwxcr63w0lDTCbWszcDPuzYkYCB0c/T9/1+X3d3d/Xjx48JU7NcHUmaDdI3y9Lg6voy8uI37B178gw6l/XZkZfl0JOfcYoy3A7nlpEZKTmzdK+48eSsbcgkLHV1HL9Yh5rCMmO1EeDxABWS/WaA+YwHgL8Nqq7Tg35K0bzkwd4qwwy3wcoNGGCkfp7BtwLATMdxrNvb2/YqifRaPU/pfI6BbrlcTgzUDJwyzPoMZqxP9CQI/5ODg530ZoWtTGb3lj+gCdCbbTLOnsDqhZDWKfQJhbajyDyux9QgSPlepcA40Q6PZeaCDSLOv6ITNkhWBeT8ABEK9Tu14Yk+94O/0cMeeWETwuFwaJOiq9WqrQqgTkc3jD16S1k4/fv7+1oul+2cWKeS+J82uc3IzemjbHPmHPne7DJxxP9nbtkM1GWlc3I5Cbh2Kr5wTMx3WD9499bhcGgO1OuOTYiy/mE4sQ41B9+XP6Pjb29vtd1uP73DOsEl8zvuMCDi/KCV3vX1cjxuU8+D8JzZKvdgfH4OwPLuHLd9NpvVdrttrz/JUDQ9eNVxAbkZDG02cHoVALvKbDyWxcvLy2TroBfbVx3fY+U2VNWntbTeAeUQz/12rglFM5tN0PP/ZpdmMLTd61cBezsU2uOw24bH/14qlgBB++0gzayotxeBocP5mRfOY5D8n/KxbthJpmOibYC4++Yog7IN/mbQtBfd5hXn6/W6OR/ndU1c7BT4P6O4DOMTZNIWPF5JPtKZ99ZSWxcd4fTA3O3INnM/qUnLn35atiZVmcfN9p0EVOd1HJJQIQYJkLLw3ZcH04rrjlpADml7IOV29cpLBfE9yVYYjFxLCRvjVKE0Cpjcw8ND3d3dtfwl3zFQVi4rEOE8Ss9gmZ3baTiks3LTP+fiMnfp78kXrVarVj7yZgKGy6kKyvPWR2ROu30v7Wbto5km7N/g7TJtJIwFMug5tdQl/h6GYTI7zI/XBffYkA3D8iMasUPrgS99dZTlyZBTAM19zj06xwsI+FjFHNtcwsbJU+gPcmYZIGd72gESYbA106kgA+hXl8HVAGc7yzFMp0j/k5D5OddlefbIFLJKdoxcmUT20kJsk7af6n/qzC9DfnssFJxB9BIhC497TtFyQMuKzDOp5PaKKACD47yqlZiOZqjVa08yOAD57e2tASosFQB4fHys29vbT8eBJXCiFAweM+pV9WmpV86omwFZqaqOk2a0FaXAICjPIad3hQCEtPnUEhbqp98Jfrn8xaDviTUDg5XQzDYneCjP9fnyeNAug5KXQVHn6+trm2gA/DEawBZWjFOgHxidgQr5G/QBNm+U8HpSOzKnxDBgrypALo4EiUJubm4memQicjgcz2Y1ANPO+/v7+v79+wSAkTXyzGMXTWJyDK1j6J51yT85OefyvBnjFAFD99Op+rMe4CbAm40jQ04Aq6rJ2cHejp4kIK8vQ34rPAUxqJxa7zVrZku9ECcHwB4wGUoKjGdpT3ohh6reAZNezhNEPJNLSKqqLZlyzubi4qK22239/PlzkgrwYRYOfegLBx6Tt3EoxgwjCoXSOMRz/ghlcC7Q21KRhRUHJTeAIo+Xl5fabDbN8JGBDQjP7TK8SsAOBbYzjmPLC9sgnGJAzr4nHWHqpHUhgdZ9ph3WG6KOfIbfjAfyot+shwRkvRLBzyNrohrG30tzWClilp95wmTD1MP3sFVWIaA3BhfAybP6gAgL+71UCzl5g0oSjbQVj2sCH/IwOeD7DNHN7vme/ub9LiPl1muX864ZaVvenIGQ0R3lmUzynfvF9ZeWTbnRMFPyixaIBZD02MwnAdeKg+enXnsVDwJl2oCTFSIIf+8BzgH35IwXAZsV397etiPAemGIZcXEAsL3hgAzKRSZsnJfMR4yZ2T57dCdk/6RnQ/SIHT3eCRTsKKZcVGXmZ2XE5lVukzAl5DKxm5jYfypMxXWTINy+TzTSmk46BUvOqTNyJr28Jpi7qmqFqFktMF9nhWG2SVIWlfYgIGhO09qUM8Q1Xo2jmPTQdYEG9xtg4xZOj0I0Wazae02cWCyxnZmgmIdyXQJxMX6hU66DzzrMTYg9pyl04IeC5x9D+SyH24/zzvtxT3MdWBH2KnZbV5fhvzJUAmDrTT5TI/K2/gTCAyQHqSeYDyonlhgEPEcHuBk2l76kPlW5+xoqwHw7u6uTYhYYZ1APxwOk9ObzGY8w2/ggbXYMHPWehzHdhK+c7vOkxmEaGfOmLPtziwAxoPMkCFycB3DcDxW8fr6um0QcP7WqyXsmHqOx+GhASHB1I4T9oNROoSz43DfCen5zukVv0ETo+mtF87lf3yOs6g6HtuHbvvNsuM4ThysV5f0dgVZr2mHHRGTwBwsnVEOcqWPjnDe3t7q9va2vn//Xsvlsq3+QCbcY7naqRnoHQmZYCXrzzFOnUiwzWds1yYg6KwvA7Z1jr89wUc5b2/Hg2M8vqy79oR7OhGuLwHVND/B1IqeQkQomTNLQDW7sAIl202Wyn3OuQAuZsYYXtX01SnJyCjbS34Agre3t1osFvX8/Nxm9N03GxXyYEImHY9l5c+pk/aRu+OdUdvttu3YwluyN92KYsdEn60Eb29v7bg+GxYvb6Nf3uaIMzk/P29rSGFwPI9iAlyU4fGnrzgKJlJ82SFY+e1ELWsbM44IefqsBJyPc/BeOQHA+pQzH1YCKOc6aVI15NuY8HLKwSkx+oCscdaMNWe6otu9eQED2zh+HAp+fv7xYjpAgfFwSEsbrRu8H413MHlcWXnB30ya2sGbANFOdBA7cbrDOmlG7WfTtjK/bwdnlmnssF0aGHFsdlImI7TLk1Q4MY5CxEHk3AvXXz4P1csGrMwG1QRaX2aj6WkdijNApvA95mtF4zI4um3UkawnlwrxPCkNQqphGGq327UZfSuHBxoDw6ABeViJGUC2hb6Rn3a+2pGAlYYynJPkMgMD7KxQHjPnMdPonJpwGDcMx9dOe+0uwOOXoHlcM3rphXaWi43WOkVdDhEJzwnFASY2mzhvCPjY2dgB8zoYJrLMhJFlpl6qjsvU7MgMAtRLXTDDxWJR6/V68spwv9LFtsCPF/eTUyWd4DGmTm9SQA4coOK0QU6m2clY9/JvEyd/joPNyMO2kKzWfegRL64kUFk/emy9ycs4RMrPEdvz83NzerxF9ubmpkUyLvdLhkqn7eXNCjyT2jP0HhjmzGYqiZ+3QnhwEjBzULIfGImB0+mDnGE2yFxcXNT9/X3Lv3FlrluImLYAACAASURBVDYVH6eAMRmQaBOG7NAXQDUYkd+jba4Dg8w3WBoYh2H6viX2tBs4MydKv3Auw/Cx5Iatenz3/v7e3n/kg6Sdv0sH6f4aeBgjdIPLjjL1BhmjowDn8/Nzyw2+vr62tyVQHgbOel2DHu1Cr5mcxAH56En3k/aYMKDzWaZzd4A+5QFmbovLdiiOI91ut/X29labzWbyDKwSgAKE0Tvs+vz8fDIv4rA/Q/W0tbTXU8TJNtlL91C2t+9WTdkm8uQzp6cMoEl63Pa0I3/uSMqfPz8/t7QQyw8dYbVURH1xoUAIvafcPe/k8DeNwABooPM9HjSUj44SMpnJwlQ8mD2mY5BxO7JOhMkxb3hxQh+zLa8pZZDm84+XxFHW4XBc1gRokU7hQinISVIfcnHe0wyF/qFEORvvXG2yFZQaRo2ce8wKlr7f72u1WrX8KfX6tCvk6NDWTqTHYKz87jepEIDEIR0OCccCIHhdJqBC++z8aT8RhF+34+2lBhbqJnoAAFhOhd744BTakWkUszFPeuQuLQOxGdY4jpOTrJhIwvlSlwEvUzKw95ubmyYDvu+F+E4jOFr1D2Nrvc4ddM5vprNM/TilM5TH52aa6JPJRzqFdOJgnIGd51mfe3Nz01ZX9K6TgOoZSCtTgmkCK4BiofKMET3D3t6VoGhAwIhPldEDcAzV3s07VSxgBHh/fz85fISyzUA8sFU1OaEKWeR7wB3uAqJmvXyHUgCAnnWmDT6CzHV5/DxbT78pl3vdP58TyrP7/b61iVdKMB6EQii0F/MTGjEeBkqz6FMpAf8GnA32AKMnfnJMLi4uar1eTybJeLEd7aX8ZDvWeZi9xx5gI3+KvJKJArYwUL8Opwcq8/m8hfBs6aa9yMOfzWYfu/eGYehuL8UBkUOGod/f39f19XVdXFw0puywPxlk5j8Npu4DfaMN3JOTlHYu7huXbTxtKJ2M9SjHjnb5d9bhthD5oR9EaLwJoXf9kqFScLI7G73vM73PvJdDiWSfBmeuDPlTkV9fXycHCXttqA0wJzt6grTXpD7nswA9coaerPMaVOoise2JJjMOnjc4mi1WHRkbgOWwn7ozp4dsUabclsjnvBLj8vJy8tphM1qPNzLiHgABh+EZ/szperWCIwEbqRU/F1PTBk862fk4nOR7Tx4iW0/yLJfLWq1W7YQhO1HGziwo5euwEeZHXx4fHycnF6GjZ2dnLSfPpCLPOzT20i7K8MoECAUkJSf3ODzay++cU6fdXhLEpBMpIdv4qfA7wTVZG7LLpUZJyBKgnSbj/2ST1hfaRN9sy6fsPPXZNmKQB1eenp5qsVg0x+b8va8v16EayPiMDiQDsHHwvwVFAy3IFIwHwcrbo/w8a8Oyglp41AcAeZAcwnhwnZ/0gC4WixYCepG2Bw/jR078D1v0i+MAbIwD8GWGdRimky2wC5QHUDartHJiyD4tiL9tQHacfG5mk+NG33INp8HHwMl4mKF6HDKflkwiDcg5LsvdYZ7HgnrYMj0MQ11dXVVVTRyaHbzDUq/lTBBJEuEw+XD4WEb37du3xpA52jLBwQDuDSash6yqBsTYSI80wGjzFDXL0vZNuoTlQeiDoyQ7V9uYd1X1nGXalsc9sSEBke/oU6aGEn9MiPiNI0k9SrBNHEpsIDXCxJR11NcvGar/Tlbh7zJcsUEl03EnuCy4BL40MCuv/7chW0gGSh+Ekmv1qqavfPbh2GaBDpEZNAbYwO+2YEh+uyLs1MqL8fMbY7HCOMeYDiWBKsHFExJVx8k1tx0DJg+IrM2WKBPAdpu824jyyBG6PbTbE1fIhdym1xs6/ZRl0UbqNdOu+sjLrlarCVjA0DOVk6kIxnI2mzVHZwaE7Ghjyps2MHvspVROSfGc5wQMOvTNY+eyaPs4jm2VwvX19UR3kRNAyRh5OSR6B/v1q8QZb4fTacv+G73IHHTe61A7dRoZWV+Qs8eOqK0HoD3Hbv1Jopafj+NYu92uzs/Pa7/fty3Mef1ylt/CSXaS3jhpdQKdBZdXz3PQYSuCvZINKMuy0FA6FJx2WIgesKrjQb3Zd3tjmCJ9NVsBCDxRwvY2t9f1JihSjtMAPEOICsN0n3jWuVR/7xlqynh8fJysQyQ/6ll02k5SHvbFjKcdKU7RdcJQ0rCrpq8Goc20xSzHgOv2eRwzlcTnq9WqTeJQJsuFMGLWELttyBdwcEhOqJzAyw9s/+XlZQKmHkd01mBZVZ8Azkt0AF2DnZeEVX2E/ufn5/Xt27eJTHrRlMu33Xrewf0zaGUE6fSCwTDtnnJoc9pAMkb0IyPcZKcuL/vbc1J+LklHAjqrSLwO3GX/JYba63SP3hvIUtjueAJK1mdj8XcOAxAW+bZc52b2aKNybi09nMNwKypnJKb3M5ulrwa15+fnFtKjCA5JqdMMxQpg8Gc1ASzErJt8HuyRurkXBUkGTR5xHMe21Miz3u6vZ0Cpx+G6DS6Zo+u08ecY4DCp00u9ekZA3cNwXBPLPdZDGzYMizL5DKeB3MmZW59gbd6m6fSOgY52OKfOpJWdiNmu7Yi+UQb9cx7VDtVEw+yaXPd6vZ5sOjCDd5om7dHOkLGiTUmYMs2T6Rzrh4lDMlzrDu3w9xmZGqfSpvltUM/7eziATZmp0g9WuySgDsMvzkP1jfYIVvr0Jva4DuPM4lxuKpE9VA5QCt/sxcDpshBc5pu438zCCkgZhLcIEKDxMiP6zf2cwuX1i24XbM4szKzUISR99ox61fSVGq4f+cP4cjKD8g1GwzC0k7AIaS377GOGxXYQXACNldiKbAWmDhu0c2kuxwy7p6P01SDJxJAn8chJOrz2kiUcKHVTbzpA15sRhuUOOGMPZtrca7bo+vietiBfL4GyLOkLofFut5vk1x1FvL+/T8J9238y5B4emP35We5DV6qmZ8daH6wX1mPflyCbBAR7yHZYJ1xHMlg7IetV6jQY0WOoVSdCfjMn/nfnUYZkJdkw7vdnqUCuz/d7WU2P7WZ4S4ft9TzRYdbkdYbcS1sc+rKW9P7+fgIaZnxmasPwMcN7f3/fzoel/TZs2koo6ImtXuhi2ZoleHKKe1i0z/Ke9Xo9kRtn17Jdl1e3WAYZXlZ9TMYR4uc2xlRAjN0z3+RRbSRuNxsGEmxJE8AMkb/HwKzTZRqAAFSzRoD18vKydrtdAyLkxeYAXrcMa2ZMyccDlsm4PZNPHz3GlMVYYhekXM7Pz9t2VIOMDRxdYHzQpdlsNgnhb29v6/r6utmgHTnPsbmDscqwPQkIZdvGGR/a2dvw4mccvSXemFSl/Sdr5TJumMzQZ/fftm8SkyBuonfKoXN1AbVHwTMkcceTfZgtehDSO7hRCRgZ7iewmGm5LteZwATjsNFgrAYBtwWmAvukLSw38qCzCQBDog6zCDsV9ysHx2BfdTzMwdtYx3GcnHKEYVEXbAtZVR3XF7KM6/n5uS0I9/ueWFEAk6EvOCOHo/QhWavHNvXI7MfMAgVn5QKM3EzRRptyMlu0oSI72szF+Bmc/D8yns0+1uFut9vWrpzQ67Fy6zNydVjt8WZXF5NltM+6b1Jglpr95genyzkcy+VyEtVhj6Q4TBBov23X48v4GRxzvBNL0iYTvBgfM37biZmqCZXbQ/tzfsdkzG3xOLkdCfQ9rMnrlznUZKcWVlbi57LTNJKOkAPydz3ancDoDluYvQ5m2/JZKwwDAAvicAizbv6256Nt5FWcY8L7e6sm8rNBYjywFod8VUc2j8HmRI1DUUI7Ox76TLk2mp7cDfL08+3trbE58rkGJxTVUQJgaDmdMhDyex57h3256cEAxv+5hA3ZGDS93M2TbLSViTxYL+MBwPO31w/bWXuNovtIqMj/zivyt9Ni5PENkugllyf4YLFnZ2eTpWF2ciylwgkbLH1Kv3Xftnkq9P8KfBPkrSs9R4rdJOim7ToSSaJnuVin8zpFyuxMs69uU+86GfJbMd1wG4bDzUR6DwL32jsgtFwgi9ImNXf5Dn8S8E/1xQOfRkc7MRLeNupJCq9943PW7D08PLTF4NTpgbah5wDjXFBw2FBVTYzHE1ReQQDrMNgmmHvWEkMz0LDTyoDrsM2TXuzbR3auM50eISehPPLI9YiOFvg+GZQZto3LUY0NJI3CumeDNgtFH2k34Ep9rNN8enqa5DxhgA5ruVxHOgwbqSf9GFuz0ZSzATRJDs+Y2TKGnDbm0+kpjzDfDoGyuM/2kowuLzs844TH2NhAe+38DNbWgx5r53LUYKzwvakb+bzrdNRNef8vhsq+56TrSZ3tOVAYd8Lg6oa6g+6oQ/oei3EonnVn2TY8Btdhqe+n3cwqVx0VO7fd2jje398bMzUzyUklDN15PtjGMAwTVsw72MmtZrI9878wKFY6WJl8BB3s10wDhrXZbJpBUYcnVMw0vOaUsfHCeStwRhHIDYC3TGmLd3bZISODTDVQpvWA+6qOZ89af+1E+J7JREJfnwJFrpT8M3UjE7/yG7DwObEGHbNNT9jY9pCBQQPmiYP2PZTjaAjZZy6bvm02mwmwEZ05j+rnMqRPILSNImsu669t0d8bwNO2LbN02u6n7T3Log/WO0emtlXKd729aK4Hql1AXS6X7dSanjdN+pvszwOdypzC7nkfAzkgaCHynO9x5095EDMqf+bBZKLIgk1Pxh7n29vb2m63TRmZxMBgAWNk4eU69NsAbrnxuRWPz/mMXVs5RpnfI/SzkgAYntkGaDFqVjPwWdU0/KNO9y1ZYI61Jwx8ZeTjNb70ne8AKTtYQNbniVK/1yH7PuuRgR1gZaxpD0vKkrlaj3u65//TAVmGluXZ2VlbjmfnCEvmM69Ptg5jN5zjydgNw9C2pl5fXzeQ8WJ97ktd7QGbbcTA65STbT9Jmsc/I9VT91bVpE89XaIuR4X+LPXSTjvbadvk6jHyqhOAagZgduErmarzLf5tMPRAZeeTYfp/553cFp7NmfbsvL19OoYMB2CTLs/1ooB3d3e13W4nymMvnZ4aBmx2g6FiPIAy7crZRE94kKKg3bBZ2udJpaqq9Xpd4/gRSnJGgSetvLzq7OysLYInDcLqAdp7fn5ei8VisgEA0IWN8zfyRa+ow6GUjdRhPqCPHLxyAhnZaCnfqRlHNQkQZuI2fOuwWS3Ly2Cm9B2G5EjIbJvxsU3Y2fL3+/vx1cZOeSGL5XLZnLWdgmVO25E3zhH5spSK15+w/rg3VqQWqMcO0zJKZue0ge3N9uK0j226Z7voNfqeE7sJgMjM97j9VTWxn4wqs+3orBlz7/ryNdI9dorHN2AkUCUtRtHyOytRfuZBs3A9oEm7CdtScC4T4RkADaoeZPJpyALFvLu7a8ts3EeH1hhVL8/DISdW9qrpKVS0wW/ZtPMy+FseBmtmbX0IincKcUAKgIrMYEgJXjBX74qCuXlmln4dDofJEX/Wq9QXO0UfVWh99CTQOI6TtJRzZpYRcq06glKPiXF/hpCeEORVKZ5o8XpWO3OD0jAc1xHn+8gAW+r2GQWOzqgD3WJyEKZqcsAEH3KDZXMfdrLdbuvHjx+TvKxn+m2zjhbMqA3EtlH6mCkN7kkWb902C06GS58MalmWyzNueQIq6+Aeyk9mm7jz/2KoblTv/2SmvRDHBtITpD2zy3CHDdS+75RHMkvO8vjcZ5fSxqT7VcdcncPrqqqfP3/Wfr//FA6hjB5EGweMxi/ucxjOe9I57YjvvGcZ4M3QhN8O25jth7Xc399PThHycYK0taoaAPNshspVn9++4HDNAIRs/RlyM3uGhZpJOn3g1Im3x/I/9aIPzp97q6f1F7BHbjgnXmMCEDGR8/7+cZA2obIPm/FYmEUxZs57e2neKbklq+PyqpO3t7f2fjDKTcAwuLHm1jnE3W5Xi8Wirq6uGsA4fCaP6ty7HZHtMEEmiZPt2LiCTmU01iM7XC4jo0PLjsjB7bNzt5Pne8uxB5ruV+/6ElATAHv0Ou93OJMN4cesiud6QkcxsmM9L+OZ+Bxse5lkqMmc/LcZ2zAMbcE+fUgv6FDfjIlQmc/pO7PFV1dXk6U7VgIM36yI9nh9rHOxVR8smJevDcPxPVTUjTPhPtqduVDY5nw+n6xA4O9kp2lUNmg/Y0NgYu3UpKYdrJ0sjsdri82m0AvrBO1Kw/UByORKfUg0hrZarerf//53XV1d1e3tbQOz3tZk6yvgT5vS+RMRJcs0YNKvw+FjguxwOLTXngA6TjP0wMkHZ7++frzhgFyqxy3tOSMLp+acHnMZp+Rt+7KdUY7TI1wmXQbA1BHK8bIqkxqTpCRziUF2UD359K5fvlOKgg1evQZ44LIBp7xT0mmX6f+znh5ztgfy4PEMOaZ0BtRNzs0DDBBUVd3e3tbd3d1ksofnM2fKIOWMLd/DgDCAt7e3ur+/n7TBM6zJXpzLMVsDpABhwlGciNnd2dnH2ZzX19ftXUYAvJkXO7tgtVbOquOkoV9/YmVHfl6AngZvFuLvrPzWr55OGnBdpvXRbJS6HNpTLuMPM2PVC795qd0wfEzwPDw8TMqcz4+Hy9APH+hC+gDGDmD7+dRvLssD5nx1dTV5K6fJD3rvvw2OLL1jZ53TSMjR0UnPWdjue84vwdX9SkJyqg6vDOGz3rP+3GTM9TvSTRLle9xG56jTefj6SyF/htAWeAKewzqepUE56++f7HiyRNeR4O46M3SnzVYKG5jbyrMua7FY1P39ff35558t/2jgBagMsIT1KSN+AFSe//333xswmWmN4zF090HIpBbw5M5jMU7b7bb2+31dX1/X09NTe+VwTgh6GdNut6vZbFbL5bKWy2UDIIMWIazHKMN4Kzc/ZqcGWuTt3Bly9EsPM1dHvWaFOBLKNEuxITNmfMd4Pjw8tBwn65DX63Vjr2ydfX9/bwff0J/VatWYNuOP7DhwGt3wGMBas20JCpnn5YftwzhGn0VBtOHUE+OE4zgcDrXdbievr7EdOs+fE29um9lijn1GfwajJDjopCfRzOLN8CnbE5HGhZ5e8V0SuwRagyqOF/s0K88+/CWG6iuZQAJq735+J3M8hfQIzYwm63Q59jQ5WPxvYZgJGaCyzewY4QVoKDDluSyE7JlvDDrXkrpvPhMVVnl1ddXahZGyLZELcLdSpRKbxVlusBSM8vHxcbIw3c8bAPkxGyU/CJNLh4thpNL3QkL+9zInjNnRh3UB2QOMpDVyrSyXHY+XSJlR7ff75lxwOHbAjM3hcGjHOXISv9eIekcVffGEHxfrVXHCrMIwANv50R+M/vn5ue7u7toyqapq+XKTGMYVB2cn9Pr62lgukRPpIt5k0EuTZchsG3ReNHHCY5MYYGLgaJCyzZaNEdxrXXL91JkEkH7kqgBf1JOfZ7+/3CnVe6DqCCbukL2CcyIJOhaMDSs9m43EzDJzKfaMLt/hpwfCZfcmMixwWItPljI4OWdLSEhYDMvwdlP668kdWCMTIPbOMJuqamBBro0+IoeqI1CadT48PHwCw7OzsxYuwpzOzs7q6uqq5vPj6fu8T4sJDYA0x9vs05sXPKuOnNIxWeaAqMu33mD8Oaauh2gBWTrNY4bnEN+6CNi5Tyx380QlYHd3d1f7/f7ThhBk62MgWcNKaofP0Qf0zG+FQD6eTLKMkN3z83P9+eef9fe//71Wq1Vtt9ujkZ9NzdwOGN3a7/e12Wxa/7xqweNiZpY23sMQ7s8VI5neMc6YgDgNkYw1bZ6y6aPBNUHVssg0EePe60uvPb7vlww1C82rp/zJJA1Q9kgOEfydE+GZT/LzFl6CtRlQfobXNaBWHSdkqj4G9fb2th0cwown9Xo5kBmbdzdZ8OQzHe7nOknK5YQh991AbYMwINhIbSwwSUB/NjueQsXWVa8xhdXADpOxOoTmfwCbfnF/6kUqt+XfywFyT+6sok3Ul6yT1IS3NpvNMKaedGLMfMo84TPMbz7/OAUfR/L777/X/f39RLY4PsqiXTBaVhI4dHf6iAkxIh322Tsa4Tvr98vLS/38+bO+ffvWNp8wNoyHwYjVHKQwcrcR39FXoqKMEE2Y8rNTRMqY4PE3uCVombUypl7Caefq++3kXH+26RQDNXZ8dV/VF6dN0XArdVL3zDNwpbGkEA1sFnx6wARK50tcJ4ZgZpTGY++TXtYeCKDabrdtJnUcPx8Zh6KSzGdgMUDKAbS9/x5j4j6H82ZhqUAsKscYWNJjxTUbMEOrqna4SVW1VQWul3aizMgKECM09CuPUVRkmCF0D1TTkdpBYNTeEWalNoC6niy3anpeRE/3YJyMKSC82WyaQ3XYfnV11cJyIghkAQizDbnqw0GzbpW1n8jaZMBjl7ZRdYyeLGszKBwv+VLeYorDeH2dvlXAdu31x14Khp1xL7KyneTY80MZlGs7MxmyndIe52nthA2OOfuejtrPuW7f12uTyWCPATuSMn74+ks5VDek53EsuFPI7VCU++wRXTZKZiVPZtpLIzik43/+Nrhm2iDrxli8fdGCh3k4ZwgIeGkM6Qrn2szsqqodRp3MLNvpyQ8Pdi4L4n6MmWUyhPIAOKwL5g0jspIzXgYgj53X9OIEbPCelXXOOWXpMQdUM8RDBl6TmjpnQ7fCu85cToP8AUZkxKE3lA2L3e/3bSxvb2/r7e2tgaxn8mkvbJV0Ak4NJ5r24nG3Q+K8U5yI32bAeOGEWCf97du3lu81KCIz2kr0Y7kkmSJ68SoIpz9MSijDuXCnCd1XO+0e4Ps+xsFj6rptBxnW038zffpmHcxnIE5J0P5fgJqGbeDqMdLe8260QdMGawFk3RY0/3O/jdHerGq61dX3u7xkwW7D2dlZW29KezFCQIUQHyOzRzfDs2GYhTFQzBK7Tc7T0H5PxtBH6lqtVp/SJtwLoLHDxzLZ7/e1Xq/bJNhvv/1W5+fndXt7W4+Pj58W9WNQZhSEgzY899njmjkpj1nqmxkXvz1mBkycFvc4inD+jrZ6rNMZLBaLNqu/2+0mYz2bzWq327X6vENsGIYGkNYBANGpBB976DSGmZX10rL2ZJcN286CvpFD/fbt22R7sNNIzNw78umxRtuT9c/fmZ32nvd96fz9PbqDDZlQOB9+iuClI0CWrsO26c89f2Hc6REq66mvXy7sp2HJEN0YN9xCMUM0hTc4WpBcaTwOIbJuA0jv0Al7Py5CYdqcyz44bb/quKyFethhxA9tRDlRfPrhEHYcx8mbVA2Q6aWdRqBvgBeHsFAm/QBEfUCIQzrAAGWFPbGxYD6f1/fv3+vt7a3JYBiGxl79XisvIPfCehu2x9AAaxbD/9YH6xJjxdIlG7OdkZmQy3PqoWr6HidykZ5RZ5MDE1N2fj5Qxo7b+dB0EtY52CI2gMxy9UIP/Jwigim6/0leWNvMzi6Dt6MP2gHL9qvT0ROnkMxI3S4DYKbXzB57No4MvBbXzyRoYgcZrSTYWo88g29dzDbDrO2w7CD44WS4+/v78nWSoebfSYndWb6n0T2WmDmZZCkux/8ncGX+hHaZfVBfzxvOZtNJJAt7NptNQjoU2AY2m80+hYk5oOyRxzide7QReCcOfWCCIA0fUKmqBpp5IlPKMPvtg6zdl+122/KDT09Ptd/v2yoA52Bns1kDXkDVzNWKeqotycLd9nTGTqUQJvsEegNDRgKOEqjP7QEgABNY39vbW9teTF9Zc8okjrfN4my8asEOk3qyTfTVzrenq3yOQ3GZXiOcOUfKfXh4qIuLi1qv1w2wGC/vzKJP9JXXvtjx8woXf5aAdoqZcn86HTtDyyXZKwBKedisQ/P8cd3GrxwjynGUaEzI6NiOO/t78rSpnmBsKDZkh3pW2p5ALQQEmmUnc0XJTL/9LB3kGZfpOjE2e/5kTV7m4n6wzhCGYcVPUMXoUMinp6c6HA7N8ABswNYOJ9kWDJllU7QB5oBszVgta9YXOt/LWLHW8OfPnzUMQ93c3NR2u235Y4OUFc5rT2GuGRXYgFIXUv4ZcXhcDMR+kSCGneGY6+e5dLZV0zWSljXO0s4EJkufDG58R1k44dTbqs+nH3kWHQdqJ5EsN6MBszC/6cH6cDh8vE8K5+dx9FImcsHOsXsszI6rpm9jqJqmAWxTOfZudzoCO9mevaezTtJleVC+yzXBStLoNlmPfNnBuW2+TjJUg56FwZWd8OdJlZ2c7oXgDhE8iL7HYUUKlef8k4roHJsvC453QdmhABoYMIfwToSo7YyXl5ftvMrdbtdCRQa1t1/fg4rRVB0Pw+D+w+G4DMeHTGNQVmTKubq6qvV63Zb9cPiKjf3l5aX+85//tNCVFQRV0/W5GaYx8cWZmwYzh6j8n/f09C4ByeNo3fF6TjtYWL8jmUw9uV+wdK/OoAyXjbPyISNPT0/t79w6mnbTi86SMdF+O0anABhrg7H7Rp2egQcgHx4e6h//+McklUSZlivluu3pIJ2i8Dh9FSHlfQC6QdHy8f3Wa/pl+VBXOll+emQuSVDel1hncE1s8jO/PL7PQNoDACueG5IgZ+En8jtkN712fSiHO9gDR9fh9gPmABHGwXMYlb03HpmTpNJwnMuCQQG+f/75Z3vH1DhOl/g4B4dBe/C9FjRBbBzHSZg9jmM7mMNAv1gs6ubmpq6vr9vMMgpjpnR5ednCQUJ6mFoqXI4d7XQ6x3nXTEVkmG/FdmiVeuExQe6ACjltnvekSIIAYS5lewWJzxZFll5OxY4lM0l0iH4Z5JKJJxFIoGAsWaLldpsNE92Q82TcPE5cHjOf1E97nJd3G5FNnsZGX008EoTS9py2sq1QtwHVeGH9sFN0JIzOWU4ZBRigTch6LNV652f8m36ardqBnGSop/JOGZ7RWYOiwTArdFkux//n315y07syxErvwXee/Mk+sLDZQue0JvrnNXqArZekjOPYQmY/l4zdLMYL9XOQDboGf/43S+VtnCirz+4E5NTfxQAAIABJREFUNC4uLurm5qblDC8uLtoRcIAGCuUQjva6bvSjd2J81THZ73QB7fP/POeJrATiXtTB5164bx0zy7M+m/3jHNnBRF8Ab3TCQOpNAzDzcRxbyE3ddgQGSTslgy+OEaBjVQbrVz1Rkk7Jesnn6I6d1u3t7WQCyjv7bEc9xoodUpfLNcjZ3tJmTYIclWbE5/HuOYgeA/bnTlMZfFNPe3VY59yWHsi7LK6TOVR7pgTHbDjfoWgeTBtKz2tQXzJSf+7lKXn5ucxvmOEYmO1FvYvEwnPYSz0GZMrHSF9fX+vu7q7tJaf9/u1lLbk8gwHv5cdsTIC3J2N4/TNLYDhNn1l5L0bnUGaWhZ2dndXNzU29vX0cjrLb7SbvmafvZnu5SsLnZVZV13Hl2JoNJej1nnUZHj/rieVG+yxz1+MX7jGOgIv1jv6yLMrOZRiO+Wyz4h4ZMcC77Yxv7gRjTSspBgDXzte6yY9THuRNKffp6akeHh7qt99+ay925HmvkEnZ2r7IzXrSJh1gj9hwD+3xZ0lWnNbIpWW+MuKxbuVnxrLUqSzL7U9APYVDXCdDfqO4f7tzzlnYADOvY2Zrj+Yf32dq73J7ZeU+ZT5Pj517rc1YATfykxcXFw1wsq82WgALRWXfPY6E+lJxUq70lxDL21MBLADUeTPytZR9eXlZq9WqHeeGAgAKpC4wIBQJpsVSqQQzDNthmsfEqZgENee7ktVYz/w8f1u/nG/zcwYvxtyfO2T2Pn9k4N1e1kfkzRtC2eE2juMkmqFfjIlXXoxj//XXlOM+VtVk9QDtdHqrFzFaR70MitRA2gWv2uElfTyXzI/y025tD+hBL+9qudjBGnzzswRM65PbZmBkjPm8t460RwaTJFCXcYc2UIYdKWXk9eWyqR7d5XODBpeNyTnPU+X3hEgn6KgnRWACftYdthCrprtzLEQrOAMyDEPLM3obqY/mg7XABKo+lqWwEYA2WvHcXvqUrBrjpEyMIVkB7IO+v7+/N+Dkcq7PEUBVTcDD61N5NQozvQ7HfL/XoSbbTOMzy7HTyDHG6dlIKJNwG1km60mnZCDHAByBIAs7RM6CZd8+E3NnZ2e1Xq9rs9nUcrlsy4leXl5qv9+39uA0CKXpBxOYPswF2Vh3aYdz4r6H3VmAkhmol06lwfu9U5QN8O33+7q5uanVatXk7OVxCRSMnXU75W9wTlywPphsWVaJMTnGBk7uM95kRJ3ytuOt+jwp7PqsbwZn61qmLJvuVefqdcodYaB7wuGenEByKOTyToGuG50CT2aLV/Hicodg9qQ5geZBoJ2E2ClIK/XhcKi7u7t6eHho/TCj8oC4HpQ7D6JgkO0g3Acup1QOh0M9PT1NDIZyvNjcAO9cIA6Cw1gox/lFnAdgytg4b20Gm7LlfrOQZA/Wg2S41kHLwGXQnszlwY7slK07TDpdX1/XMAz18PDQJlzYhXZ1ddXypbvdbtJG6xPA7QlG5Jzh51fpAfpE7tT5QMJ/xoh7LQ/bCHlhL49Cpo+Pjy3HbqBKkPRlAErH5j7Q3pxT6YXhSW7MFD2Oll0CtG3F+pMydTqh1z8z4uyfSR7lug7u++XhKK6MxqWn6qF4T4ApfCu3c2epZBaWAdnlZFiEAvp712HwMVjisS0HgITzSs/OzuqPP/5o56Q6DPYaRQ+wjTidig3CfaStgKBl+P7+3lYmVH281ZSdPfTbkxmbzaatM8zdVPP5cS0l+TzWqCLHxWLRJrDM1D3p1WP+VkRvZMgxTWU1KMDIEjxttNZR65ZDTjNXSAGpE7eVSUWP62KxqNfX15YjR3acHIXOOL9N1PL8/DwBd+q3rjqnzLI7xt/9Y4MB95jp58oMmK93Z1H3fr+v1WrVzoZIgHE5JhyWn0mI503c7tR1l5mOlivB1I4S2zWztQx6OOTyHZH25JtOyXqaKbsknuM4VvflKFZo/2/v0/MGVGShJPilJ8z/U7hZrlmNBe3fbmuCroXlMpJR+TfloKCchs/gOneDgTqEok7PFtsYACxAy7PovETNkxpO1JMTZfto1TEpjwIQetJWb6H0D6BD2O92wFBznSeACvjYMQHadsI94800jlm9x4o2OS+cRmtDsIMFyDKstq46VfLy8jLZgsw42Zk5F+o3yp6fn9fV1VVtNpu2lM7pkyyLH9uJJ6poN2OPI/BEko3e0Q95YOsy99A/g6FtvGdv6E3PlnzZhpI0GczsyNyHzJP671Ps2OXyv9udJM+RS7LWxC+3L3XLdX05KeWfBECEY6XKwt3AFLyF63sNbu4k9WYoYUEmOFqI6Ry4cvLITMJtJufoMP/s7KwBKc+aRWXOh9A4+448AE0zJ5iiB5dyuNc5tXEc27ZUjwk5QrNi73qx14elA6TsceceT2ixJja3XlrOPc+eeuXx9E6srxQ99QaZIEtPmNJP7wBLx4px4/Senp5aSoXVD3ZSnqSkXuSBc/Frpv28682Jvpy0ym3IgOFqtar1et3GDTafqTivFODe2ezjTQ28V8w6SZ8cTTmt1iMpCYq2N8rO1RB83wvzaYNtxCG7na7r69mW8cnslPvtQFyOZZXt6rHTqi/OQ+011jTbhdq7prfKctKjcDHx4UFI0LQRmGkw+E7QI1gPkst12OVB4nKYw7Ij9rij2F7YzsJplMMrDDIMMaia3QKOgNYwDJNDOZLZMfAOYV0v3yNX3hI6juPkFCW3069d4T7ejIrMadsplmgZsLYzFdd61nOOMICegSaDtZPP1Ai/Mz8NO6Q91gHWgb68vNTvv//e3mpg0LW80RH6/vj4WPv9fpK/9CtZrGekYbABfqyzHNWXuuoXMTqdQAoCe4WlOrIYhuNmFucOkw3TPuwv86298D9t22yZPmV6ht+2UTN627/TBZ4EO4U/6G2vbTxnB+Y2JBnjfoOsry6gEnomEPTWDiKonIxJRuHO9Wi5QdxhgT1XCoYrmY4NzpNQGTZYITC6qg82yhIowBRm6n5nWAJTs6G5XZRtMGAyg35zD+tF/e4o54yoY7VaTZbAYLgYEqkAGBZlwVxgcoCow19CYLMSjw3jbubtJV92LMg7AcVXhlLphNA7G0YqdhoyOpN5S+QDi6Tv9Ge9XtfLy0t7DQyM384Q2ZAG2e12td1uJ6BlR4KOcLHulYgg84XUx8V40H6W9pEuMoOzTLnYJmtQ8lIy5GTwrJpODhoMczxtC7ZJ4wJM1Y4pydIpPenhiu3LqacEQT/D3z22mYQtsSpJjesZhhOTUt6PbuQ26KWXoXDnBXusyt7MjTSw2ZP1BsoDb2Hyt9sH87Vh91iKlcz5ttlsVs/Pz+2toZRhA6zqe19YrN8RlLI0G5nNPrZ+kqObz+ct1PZ5m5YHzg9vzdjBjFarVV1fX9fNzU39/PmzpSsOh8NkuY4NCqD0S+U8NjYWOwMzOGSZDNIAY3n3vH6yXofL6Zz5DOD1c7nLyGwMZuklT6x4uL6+biseeIYjD8kps6kDtkdaxf2hTi+mR1dZroZz9WoR9w9dyqgLZ0jUgJ74lSzoHXZplgmbZWeW7SZt2440865pn45kTYisM/ydoIz8MmXDbxMrl99ALXbJJeZkesJYZIDP70yQ0unz9y9f0pcCzjDWyp6hvFlYPkPHDbgGbAOjjRcQOpXLSS+X7bG3zbDD/RmGj735+/2+/vzzzwZYBkRPLhlYHBqbEVnxPBiwVod+lLnZbJqcMAbWy8KS+A4wwYDG8fjKlevr68aI+JxxZc0irNdhsyetzDjtiBx22avb+A0wpxSb5x125ppGj7GfTZ1ze/jf+mv9cBRjEE8HR59xjsju9fV1EtFkXZTrCSAvQDcw83++4cGTfWkTRBcANt8xlsnUh2Fo/WGdK2/azTFBt6jb7THoGDOSoFiumc5IJ2fb/+o+X05z2WlTpw/lMQalM/AraqgXWbgt7k9eX+ZQrbTZ2V6juDeVMkMlGtZjqmlYCaqnrnzWxu/60mCzn/wm5N5ut5OlMpRnpbGBwXY8eGamDku83IZ0AYpgxfDuJpiK+/X4+DjZnshaSrMq9vpbybbbbXunO8zMqQAAtmq6c8dOp2q6HS91JeVLeRhXGhjycuhvJ5vG62cZl1yF4LFzu+kXjsnsl3JSVzL1QHtgurSR7bg+Es9ODF1hFQD3PD4+Nv2zzKgvx4O5A8aGc0wNJLl7y2F9VbW8OSs8bG+2Fz+TzNPP9CKNjGCSiJy6crxNuhyO853rQnZEFU6J2Nn5eesSeoPMKfsrLPpLB0z3GGOCVwLfVwyCxtmLZMhnI+JvMycnot2OZLmUjSDtZTPU4HMU9Pb2tp1B2jN+MxEGzwZM2GyFc5hJGblsxgOPEVLOMBzDxKrj2wfIrwHAfM6ifIDq/Py8np+f21pLFvizTpVyHdryShT65rB/HKeTJr2xr/r8toDeeNnJWha5pMjGkOBqp+ews6fXqTfUR9spiygAoMTBAlyAIv0kHeC0ih2SZ/F5+wKgzrgPwzDZcsz4GeDSFt/e3trh5skYsRWcAvLhHt5+6/ptaw6z7UAtS9pp2ZtJOwR36sf253t6bDTTddYhjyN6lrZqvKFdxpbUC5O6jG4SlMfxRMhPYyxIs4PMTVCJhYeA+Y5yMySh0T3h+VnK5X8DYxqwhQKo5CL/HsvBoMbx49Soh4eHk8Bt78hzDLIXUvt71nFSN7ldDMGGwQUL8Q4e6vEJSe/v720NK+wSeVAeC/pJA3BcIUDKgSqEkOThDNJ2blYqK3qywGQ8Ob5WWORv/esxgvw8gdETePz0Vqhke2Bp3kk2m328JmYYhvbiPhgnOs1qCEL/q6urtkLDZ9U6NYSz2O/3TfZOvwCiPJ/M2OBgnXx5ean1et0+px4/A7CyNIoIq0dQkEvmTQ2KHnuDYeq0gcy2lemdHmimbXi8E4+sF7B/CEVGydhPgrpJn0EeW16v1590+SRDZX8zTMVX5h75rAecOTCpCB4MA6PZa7KZNLBMJbgfBjsrn5XCwHdxcVHb7bbu7+8njiFXMbhML4mhDufDaAv9guEwMEw8EfKbDfs1xrPZbBIiHg6H2u12k5UD6/W6hmGo29vbiaJgmHxmwALkATSvDuDNqORmmbyxszRYJrDSbu613mAc9vTOk5nVmvl7zP2s66U9yNPy7wE8AMMY86YDQnfWcvLMdrttp/s/PT21U74Ye5wqgEodzo+bfdoecKIAXb45lX6gI46OqHO1WrU0UOaTPX6MPVHLZrP5RDhMHByR8Rn9sp3mcibGzuOYwIv+ZD7e9mP7PkWOkmAhb5yU5xIsl9Rf18tFvy4vL+tf//pX/fd//3f77iRDrTqeF/ny8jLZ5mYQSkbao/kZHrjDZnG+DEwWjJ+3ACwUA6RDGtpICGZPxz1nZ2ft5KjMTdnQrcAu3wA1DMej3ZDd09PTJ3CGdRJuvby8tL319AXghTEOw3FSwSG/wxPP4CMLszbAd71eT7aqMibU5102ZqW02/K2wzIjtPHZqNM47TCRpQ9s8ThnGiAdaUZPtP8UqPI/AIPMN5tNkzEyRU48v9vtJmeN+mASl8k4WL/zwGrLizHF2XpNryd6zd7QhcfHxzaGnmzxRCpOBN0glUQbfF86MEepZs1pwxlSG2T9vX+c8srx9Hc4XeNC6p/HtqomL2TMCCZxxaSuh2t5MNFJhno4HNordf/444+Jx+BBV2pF7oGdldoUOgVr4zBgp5fKjrp8t9GgnMrUa+/hcGi5RZdh4zS79uQS5cEynQLg/pyAQq7kIMfxeFCxlcOnPOWyJC+rArDn8493sgPiNhT6fHFx0Y75g53ARnNLI33FiK18/O+zN20ElnNeqU/pND121h//7+cwIDvSZH8Z6WTZ1jfGcbVaNfCr+nDK+/2+MdaqahEdztDM02cowDydBzWr5YQr1r+y5A5Gb4DKNcweL3TZdtSTL1EZrJicfToo+uH0hcfw1DjDOA3IBsWeXvQImMeRscmUZA8DqNeRKXYC2/cziR++fM/j4+OnN55WfbH1FEDFIFOJEZYNq+fxkzmiaMlseoL0YGUne/X26s/ByDbZsHa7XVNCysEQeN7Mz+v7qqqFwwAlbDLZtmewMULa5TwSk1peVkPowne0E4NjDSJrUQH7NEqY1OFwmCwJ4kg7g5NZiVMdXOkUzUBTV9I551gnuBr0EhBok5/PUNjyORUtMZaMN79ns+OrQ3g1DN9xWMo4Hg/tJq9KvhuGSLrA+VADneVPrjp1HED31llPBpq8wFRZEsXSO48pZaKnfM5bA07ZJHXnZ2mPvscEivvQYeTvOm1vqSMeWxM618//jDfL0Gwnu92urq6uPk2wOgIy06VMoo5xHOt///d/K68vT5vCK3kPtO9J0ErhWjHtLRIUex7G3uBwOHwKcbJeG7u9WNV00X0+T3ve3t7aJBRhE0L1cigzTy+HIgwjDKddsD5PiMBUAbzMcfG3dyn5NdQOu2GkNiA7AZ9UheLi2XllNv2jb+wcMoty3o9cId87tZBGZYZwKm/m8ND6kY7ZhuTxtU76e4NROrQMU70+GZ1x+7zc5/z8vC36z33/l5eXtd/va7fbted4djabtTDR4O0NGwAabWXy0WkX9IE+eCmeTwND156fn1vePSfmEjjzDQRcTtFkusb5U4+Rxwd9cllJeHrgbZs34PXIVuof/6OrXttLRMeBQr4sG5OwnqzyOslQPaDugDudHoHfaTQGtGH4fG4p5dvb2MB4FqAww80cR8+z+l5fzi/aMzMAfOc8lvPFBptkaZTlnUYoNCBKv2Eebjd5HtiTZ30teysvbTI7pB3Or2ZoTHspD1YLG+dvg1IP9FJfclzScNL55ucuP1mqHY9BNBkynzE2jKsX81s+XnBvB8JYZluZwNvv93V7e9tY49nZWe33+xbdHQ7HN+Ii48wzmxHh5NFbysSZke+3TVV9PkOWut7fj4eR2w7GcZwsz3IqKicCrZ+n0mb+zp9bx6xrjn56mOB2YkO2P/7ukbtsc35OPjVfy+K0kgHVckhnzvXL06bSa7iBVOxnqj6ftN+70shOCcHG4oFOFpJtNzCZHfeMl7AO5mLwRZFZs2nAsKemXfQZxujXSPuwYU8i2UDm8+M61apqIQYyom0+o5WyAAbYsyfAkB+K4tcmA9xMYDw+PjYgoS8+dtBy9VhxUYf70Rtz5Ou0Qm/s8nlknABrg8yw1u10P2yYea9znLA/+uf6mLwax7Ht5ccB3d/fT5YMcbTf09NT7ff7qpqetws4ehIR50ckwCTm2dlZOx8V/SJl5dUZh8Oh9vt9O0fVpMR5fc6t8MsKLX8cip0RsvdvX3bySUJ8vz8/pVc9ltrTPe7NiChBmjQAob/PD876fNlu8zoJqAa5HqNIb5AKbSXlM5hpPtNjMw4Dex6mJ9TMkfq+TF67TNipmczZ2Vk7IAYF8xpST8zAzHoH/PIOH4DarM9LVmAwnkn2DKa9JiE+RuTBpf3b7Xbi0ByapyNYLpd1c3PTZOBxomwAFpmZ9TviSGVLp+txdKrDuSwzg3S6PfZrR5nMvac3AFc6WUca8/m85U3dHvLOuZnh/Py8fvz4UavVqna7XQPL2WzWJgVZa7xarVo5PZtyu/wqGy+Noq2c40A6iOefnp4muoZz9wsbEyzM3quObLdHilL3bYeZP6U+21zam4GxN24ZRSUA8z3Pwu5ppyM0yqj6ANWHh4cW+ie586SfGfh8Pm+v5Pb1Zcjfuyw0D3w2hE54Js3Pp5E4/5nlmJkaPPne93qQnDLI+qnH4b5DZVjZbrdrob49NAOZOSvW/lEWLMErAVIOLFEjR4tcc6lJj7nRTi4Uh7WuMEtCRU4o4nMYKnvWMULGhDyuZ/ndB09SJagaeHOpGM875HW/0mnlZ3xuJ+P8nsNz6wb18pxnyvPtAKwt5b4ck3TOy+VycsgKfX94eJgc59dzJLYB6jNz9XOHw/HAF1YaGDxSl2kL+XWfjeo+UQ4O3rbk/uYqCpx0Mru0TzNVO9BcfWO8yAgLPXGqIFfFmET0UhNuD+t839/f24qZUyTO6QBWyeT1S0BNNmclSsbQC9F8AUpZ5ld1co+BMZmoPRP1UI7D4d4geykK37Fdk7AYI0GJvVvJbaNdLMa3cTqBX3WckGKAnK8ahmHCaMwGzSIp3wBFe2gjBscJSjbW5XJZq9Wq/vnPf1ZVtW2QBkaPR08Pcvyo3+wa2SQToWwDnQ3dBupyHAq73lR+Pk+jok5PulUdnZNnnHEoAIx3ofWcY1W1SIMcp1eO+DUqgJvHI8GB6Kaqmj54EpIxY6y4B+ds9v329nEwtbfD0g5kkSzV4+SxAhRzjLxKxZ+h4wZ6EyjrscfUoMjzfOdUUbY1Z++zHyYpEJDZbNY2xrhftitfvbp/mUPl76qaKL4ZgpmgJ3FoOGzIypsDAWA4lEjA7rWN//FUbqtDYxuiWTbPOO9XVc1rpYFlaOp99YRevFqCHCJKD8MzeGKksFiOUqNNlhls6eLiojabTcvPsmwHmdk4UTzAm7wo9f748aP+67/+q56fn+vnz58TMMbQc3lWb52q840ev55ztJLnuCMfp4r8rPXPudAeE8rUhoHa7NoG7bq9L9+gSxvNZtA32LEns1jOhqOBrVZVc9q0x/31mmZsi/7RB7NhdIP7CHvRD6IhllJ5XJErNuOt0E6LWD62IxOMUyDrlTGpD1zul8vIy2BsOfiZJAHWBb43drBKg0liO3U74FNkouqLw1GyARlKeyCSTfint6aOhqW3Sa9vwVqIVrKq6UJzTwzZ0zvM4hmv/5vNju9UByD5H0ZhI2YgmdBhQ4BzWZaVJ4QcagP0KLCV4+zsbDIrbOXh4GnWk/L3er1uAPD29tYWiOOF6ZMnmXgLQZ5/6tRDMphM5TCu6IyXatk5GOh66R07QIMy31u3UlcYZxtj1pNt6eV/vRwsjcigeX5+PknlUJ4jl4uLi7q5uWl6xFsTAFUmDzlpyluRs5+OhOxMkCn7y9FD2zHX+/t7bbfbOj8/r9VqNbEf+uF0WkYp7qs/TywwE/VYILtcPZSO2HrD5fyoMaFXj59xqA54osMmAy8vL7Xdbtu6XRNGE4e8XOeXIX+PCfpzg4S9pMHYhmcv3BMshpgeDkFbURns9IhmdWnwaZz2as73ElYDTBgXIAUImrlW1QScWb9rQIU92rvyc3l52QDWjN99JdR8e/s4eo/ZXhaQ413f398b4FYd1xbCmmHAw/ARUv7xxx+TCTGzWDNFRyj+nX/zv43Nzzjc7BmDHecpp2x97AGs9dF12dl5ORrtY5UFjqmqJs7HuusxcbuRHxNa5FZZRkVu9vHxsTlg2sbFZoCMkGgjY5EMGR32gSqvr6+T/euHw8cuqvV6PbFH/xjQLWvbkduU37s/drQ98DWueCzdt2SgiTP5vceZtnjpoUmR7fH5+bmt2jAxQ9buZ082v8yhusHuIBWkQG14DvVpgDvNb8CKcuyd7IXTU6ehmp73GGrmIjEqwiIPTLbTrM/1seCecgDSPBDDzgRGaU/LshXqxygBQjM+QNXg5yQ9S7yQQ66tRMFg6DBtyss8d1VNDMyRg6MT+pthkfNyHiPaa4U2K7ZjdJ1pgKlb1kODVOqqCYGPznO4DsCyBI37cf4eF/72crEcA4CYvy8uLmq327UZeC97G4ahnWiUtpMbEdiMwXguFouWw3XqC/BGb5mpzvx2gqkJT4/0+FljhUE6bQv5GDxzjCxD64pTdb6SXNlxOgWUKR7aQbSIfSUrTeKQ15c7pU5dNNJGlc8b9CyY7HAOYnqyzH9xpafwT9V0p4uNMpWEEKyqWk4S8EU5Tf89uGbXnkwgB2MgrTo6mGS7Zjdczs8hb3tTy4UzMK2w5NI80ZTHl/E36xNZu+ixskNM8Myx5p5ehGDWfYpp5Bgly+Uzl+Fye23zWFvHXCbjaUdLXwBUZGFDxjHyrJ3nMAyT97Lx2nE7K44JPD8/r7u7u9YOR16OcOgLenN+ft62GKMrTD6yTtUHoxgUZ7NZA9R0lk7JJWDamfnqER/rcdoyv3upg1NhtZk044Ns7HSddvDZv26rgdjpLGyNRf92XE7/9GRQ9YscqgWZjekV5kqSOZiZmMHwjP+3UACCXrn8RthmOdzvo+16/bMhpNdKdgMQsuff4SKzrtQ5n39+46cZWHpwQjMzIiu0PaaZDovw2QXDrDB7zT0bCxOjf5wkRa6WENcTi14qRfttBFw5Boxjz/AyVHOd/J+ztLlUx+OeBuxVHzbQHhiYmdhYPF4ZqgJYXsFB+E/5yI4++iAV9IqVJByTyNZnOym/+pvUTlW1vD7nnvb6eXV11dZZmhygDwCHz/VkEo5+OWVnXbce5GWn76VePUfK/4kBs9lsIk+TGY8f/7tMA2ymdXJizMQOW3h/f2/5bJ8GZtn2ou6qXyzs73l8WByFes2bFzrTOOfgqNgrANJAM0zI5RRfhSXOwaIMXpycXs7hAwOWSzusFM6ZuUyeMfjQf+rJd60jI/72bhrKf38/nitgUCRF4ZDEmw5oG0wGMKY9ALcZNiw3GRh9NkhZsXs/DuctZ6eOElgzH56M1g7O+czUBZ5zW/keeVCmQRTm5zZb/3wKPmOWKzdoA84h24cTY1ccEYP1Yb/ft7XC6YCrPgCPHW3Pz8+13+8/bbgYx4/IC/Bz+E899O35+bmdpmW7TbnSJ49nsn2DXo9RMq7W8x5QpX2kk7OO21bSeTvt45UGCd7IglQPusBpX71x7Dnzqi9C/qS24zi2941nPgOFSiHxbIJBMmDfbyGZDSeQ+u8sn8+8uNvM2GEdS1ocXhlY7TxclidWzCIzZ+l++lQf5GZvj8KyVRUwt4esqnZ6PN7Xmwvoo3f4oOhenkV/6aOPDUSxkBl9Jzy17Hvhj8fNrNCMhv8zwsjy+N7j7LKcG0d/Uo/9f7JTfiNPyvM1SVKIAAAgAElEQVRYAKaE0I5kSLU4lLYzsA0gf8sNUOMe+rDb7Wocx3ZOLnXyzikmI/0mB3SQi2VAdgbJLnmetAZ9N1PsEZG00VNkxasRkL9DdTu4LN/jnaBq2eZv7jdx43tsH/1OYkU96IOJFu3yut+8fnk4CpUCpl4Ll7OPKTh7Lz73lYCTnzvktgezkWV7ubcH1FZyPnP+yUpedTxRH5BkUTYTPix3QUkYPIcc9B+FrZouOXL4BdgBfl7Hmg6sx7xhtFbA2ey43TUBJdc1YtT0raomuWDX5/pT4czqDZhOi9jJnTJW32edolxALB1O71kiCNqWDtjPw+CTiVEvQODPcMAGZzPGlDGnP+33+yZPxoi9+WwfRm7oB6dceSINXWJMMpWyXC4/nY5mlsqC9rQR62hvPHo2aJBMW820hMfScszvcuydGklQ9T1ssgH4eykC66nPxkD37YhyKV1ev1yHCvXd7XbthXUYb3bSTMEC74U/Hijus3JYiG44SuMZ1hxEG4nTCb6fOlxvz/PAKlnykqe1z2bH18/6oF5CZq/ppA3z+XxyFF/VNBTxKUO0zYu8YbCU5bRFGhmLumez49meHl+PEQ7EO4a8ysD1pUK6PINWKjn3egz828rNZ74/jaA31tbBzPdaH5NlOX2FLL0NF9Aj7YXBOez3uGDAPobR6QBSMdZNOygA1+mkqpq8UZVDn3FU3odPH72bCv0k0pjNZo0kLJfLJt+0v7TP/JzPKJO+I1ODeEYmHvO0zx4mIGs7busQdYBdEBLsjHutw3Z+1l0IDo4t25jXl7P8GDKH5iZj9E8CZo8dZtjsHEmyWw8Q96N0yY6yg9SfecUMwwAxlNttc/jmiQHKcL6NAaw6LpmxkRiIqMvJcrNKg2eCCEDrySK+IzVhwwUAkLvPPu05wgTN1AlYs3NTVuJkAQYz59d6+dee7vhzZO/Q3rrTi4ic7+7V5c8pn3Ebho+lZBw+4vDUbNwyc78I1THIqprsXuOMCAMLk07IlfXChPkwKNrz+vra8p/kVJ3fRRc5oCcP3kGHePbm5uaTrKwnHhP3N79PMOb/HL+ejplBelx6JMB6QJu8axFHw9+kHzJ6snOAkPC/iYxtGAacVxdQzXp6ayrNnCzMFA6AYiXuKXUCa3oMM5Esz2Wa/ud9zpfZ4A0oFvRs9rGshBl9K6O3pRIG+KBo8lZ4SbMD7jMwE+bxP4vvCVFns1l7KyZsybkt+oURMYYY9OFwaCzEsmFXDopDbpWlN16LyTO99yQZ/G1QBic7B4Nh6lw6ZjPXrIvvMZQeqNvZ2wC8My3ZF7L0jDiGaAP2872DTNAP5IA9eXIMmXGPtw1zkPUwDLXdbic2QqgO8HpCkbZRNukmyuTtASYsPjrQAJNlmXAk4FKH73Mo7zIs9yw/wdSRB397Q4WBm8vrSTmx/+npacJqc/4i9QFH5VP6Lf/e1QVUTh9iwXoqqRULo05mh4BQzjSWDMUcDniAcsDcYbMvrl7Oqmq63RWFt+F7kGCReHYn+gE0PJlDO8rEeLwtlDo9WeTZWUJBXj0zn88beA/Dx5pGnjc7cHiCTFCy19fXNrlBuoJQkRyc2b773zMqKxJy8ETWKcPjsx4Y8XdvIiR1wCw3dcSMhTJO5d6sgy4D5kY0YF22/tuRMbYc50f9fluq+03bcpLD6QPaCfiynXS327XnKI+Jwqurq5bWqaoJ+zSrok0mR7aLzIWnzdF+JmVzDADaTKGgO94YQ/lO+1gHGAuDtO/xeNim+fF27fl8/ulUudls1pahee++dZNykKkJQRK7qi8Y6jiOk5NuPACeeElPa+U2+3ND/b/pPB23UDAiD4BZmQ02Z8Q9WDyXE2lWCHsqdhtRD+BKXa7TL8EDbPkNCGYeCVbKOYy0HTDllRoMNOsVYamPj4+TAzbe39/r6uqqGef9/X09PDw0RSB/ClsB6HlfktenJvug3ZavJzi8XM4ypcw8EMN5ahuTJ4LS4Z6KPPg/w0e3xTqZz3nsGSvnNtGXw+EwYZw4Q2yEw8Ft+O/v720HHv2242P5E+DtJVSLxaIOh0N7fQm6hoNlrHDa3qDiyw7Bmwpol8d0t9u11087pWOCRJlEZZZ9EgsDbqaxuD9ZMHrge9IZp+7YYSIn0hhswabNlGWSxLjQn9x+zavCSf/YQeR18q2neEwLyV7bDMDrL/ltL+zPU7HT++Xnvt/e06Dsge4J2KDO9wmKDhv8LnWE7YkEP2ulzLNH/T0KtVqtPi3PoR7vsKJNrDe1YhK+G6DJ8ST79uQERuyZypRjRh1V01UPdkhma3Z0NpJcRYGMzXSTrZ76rreqxPcw1mZBvi+B2N9nBAEzcaRzOBwm42Gn7+jKBpfhInJifSMnkzE+hPHMzBOpXF5e1nq9noDBxcVFO+DEh+Uw6en6uNBfv0mX/ngrsu2FvqJnXGaIvejVNp2Mzs7a8qGMHltMlpxzOm4DfTHok6biPr5DDlkWOucTupBhHgDPdXKW3y8OwwDsfV3xKS+WHsnCsUAtzGS4Zrm9sNDg2RO+25VhSLYdr3t3d9dAMieOsr2Hw6Ft3cTrA0akC2hj7tX2rKF3aOQ+bfrF7HLmuzg5aDb7WGqDfHgFcW64IB/sN7gS5toBUTdyR4Hze4eOOaFlGWeZBm+znF5YbQPzPQZT66bHPb+3jqRztH4CXo5aMlzPFBN9SKfD33agAOfl5WWLMnAIZsGkea6urur8/HxyopnfNsEKEB/m0rNHQId8qp2D++v25/j1ZG9iwjMQhJ6t98hVRqweI9u1J0RpJ3XgHF0vMoC4ML5EGF7WaH2jzRxkw6Sho3dfJxmqG5RA6Aaa2ltInkVMD511pfLbE/lZG12CbhqgFQplsJFY6CgvYQIKbMdCmYCumSFAmYPL9wZjJ7m5Bzn55CGXkUzQi8k9eTGOH6+2ZWKLXTnkS9mFczgcGth65hOAN+NMx0U/DCw8m6kZp2sYK+Rop5zs1ozScu1NhPhe/6TT74Gp0w3c43YYxLEFVr3wfe5SMiB6jM2c0RfnsKtqolcOl9frdS0Wi7Yn/fHxsXa73WRJELJxu5K0GKwsD+dwAdRTE32etLLNZOTS+/E9jnrsiDy2vf+xD1JhxqgEU0/SJb44yvYrjijHK2oOh4/Tue7v79vKi5xb4fpyHWoywFP3caXh8B0GZ2M0iCbYusNmTVw2Uv/vMq08Nnwbu5PkVVWPj48tFwboOUdLHQ75AEzfZy8PY+Nz7yumLAYw14jmpBvlYUhWDoCS8gzUDmeTZadceVsBBpXKmPJGnl55kBGNHZrHw31NGdv7G1STFbnc/N7/Z7RkEuDnnZ7AoCwz7qEMgyXPORecS7ccsntxvtcs4/ze3t4mkyYGNdpJCsnjZN21s+c+xsp5c3QFHczVGXY6XBnh9ZyYwZjozCSM56w7vlxGOgKH+IyF9c46YADlb/pN1IfNZL8hWKzFJ+32lxlqT9H43ILMK8GHe82Cenm7qs9sl3LyfucdcyBpo0NJ2kVdKDR5EE+0QePNevHW5EzIj9LOxWIxAfzcMz2bzSYTXG7j4XBoE1qeSXQEYEeEXMxwq2pyfCB7t6umjsxsGllnrjGNzOkKKyTt86aFjDJ6CXvGwopvPfjKqOxEGY90rNYRnFrqL3Xb+C2DjKI8VugnbeB5p0KQizdGuFzLy8vccjwJR4dhaGzIQLxcLturVdBHz1T3WKV1ymyMdiC7ZI+OFHAQzlOmDjntZVsyIFOebd26wdXLp56KPjz56bGy43f7bONeEdBzwoDodrtth870SOYv33raA84MqRxO81nez2+X6xwidabBmQ3Z+2dbzOQAQQvRTsLels89g+/EvMHNBtwLH/x205SHlQ9PiJFg4Ll/3m0AfFmg7NCQmV8fEG3jpWz3Fa/LlsSMEr5KqzA29vaeLfazZhZpVMg1GYS/s9E4PE4WajnZwbndSRCS4eD8/YzLzgm2XJWADGys1AMRMIj6dDGH+KRk7KRY/uboAdbk3C5y9nm6pCVwpl6twI8dKc49ZWwn4nGwjXi8c6wSB/jO42H2aVvz83b2KedxHCdsnvutTx5f65tz10lqKN9ps54unsyhWhm5vqL7DsEsrB5NzxDQYOkdS1l/MhK3MxWENvkZC9xhEgf8GmCdajAzxrAB0KrjZBaMEG/p5614w3A8iIPL7NHGCpA6pPFkBSHaMBxzYYSNs9msPetcEEulPC6MoxP5Bg5ffuuAwdBhNPK34iF/G37P0NIhm2lbF1Jnc3VAGgyX64PZ9UDYDp466ZPzwG6LmSz3OVLyc9aHtAVy3Cx140Acxp31pyyvsqxIHxFic2/uQwdcccR8n/LoheQJtJ7stawSlGG3PGf2iNxM0ng+Ix6TLudKGZ9ehJTkLduGbLFx2kh5kJefP39OUinWy5MMNXMWnuVyw5NFQNEpA0Fl2J0eKukz/1tZLQQDrjuGwRqYuKwUACqhvt9UyoA6hMBzMRvvLZ4eGDx8b+IK2Tg8MXMxsNE2H5do0AUYU+kcihi4URTe7jgMH8tkHh8fJ0cB4kzoC4BCCO0cUypjT2/cFhu+gTSZ3Ffff8U4PR5m0sjO/9sYk0DwPDKx7ro9yN55u2RVHlO+s3wN0HZAgB3AcH19XVXVcnjWSdaz5higa8z8pwO0U7Tt8Ld1wvL2+HK/nRcglNFGRoU+G8GglVhgubhu99eM1ekSt7tHDq0zPMtEtHPV6Mzr62v9+eef7RUpeX25bAoDheYyiCghDUfprDSZp0hlI9+T4ZFzOJTHfXQq2agHKZkJA2Xl5TsAhQvm6oEHlOfzeTuE2cetsY6QWVWfDGVG6WPYMn8IULOExTOuVTVhnn7Rnpme++uxWCwWjbHAWrwfn+dym6XlnnUwTqlQDrl9OR1j4zULSnDqKav1k2edw7OxGVQSTO38MyWRbbUcKBen6jFIZp9lpJNjnAxaGKzlafYPcM5ms7ZlmLGzzvowFr9byu+VsuPONAXO1g6uqtqsfsrKTsBy5h5Yr/UHXfNuKGTnSV87POOO6/J9HovEhxyLHGOPIeV5p5sJC9FDXl1AZWD3+31tt9uW/DYjcM4IxmZv7E6YzfYMI5lndtb/+3ePITGwCQAYK2AF+Hm9bXowWBk7lAxgLiedByG5WTBK7N1XlI1h8coMh3SAocHm/f19claAc0TOS1MHYwXA0iY7i5xQzKUz1o1kNj35+/OeEWek4aunRx6XUxd9zTZn2J9MizrT4Ox8zVZ6TsEAbkBFD8xSDaAGfG99pRxYKhOirDf2sh7ayvOE8C7fTBM94T6Pm9ucsqSd6IHHI2WZKYCMGjIst2x7LN+X22V2mU7SYGmm2Yt6+ZvvmSj2yf1V1QjNqbTCyVl+z4JTiZf1uAEIGID1ILvBAIEBwEzH5XnJTzLZXrhi4ThkARw8QDA9L32wgHrgyKCwnAUwox0ArIXt7X14O7+d1G0n7K6qZhi5I4MdUqmwfk8UTJOcI0vBZrNZrVarxj5oL/fa89v4cUww8lzK5ecz0ugBpfUioxPXmUy5B9ppsJmbTAZl0DOTSQfAhUyyDZ5NR+a+11FIAicyo712XmajdtK2OSarOJKP16fM5/PabrftXk94UQ7bJykj2XWPjWP3tj1kmOdAUIZDfqdTrBfGC/cVO+X6yqFmtJdjloBs8LeeYb/Wd37zamn6ut/vWz6byUVfJ3OoCMzbshio7KBDLf/GCN2ZHlNNL2J2YoPwwKRA/JmvbB+fwU57EylV1YCUwWdrX56JCoBSFkx2sVg0x0R4t1gsGiOtOhqW3xXkVItTEFVVm82mGQCAyJpU+rFcLtt2RL9wkJ1cMCDPOI/j2A73yNSIwSbDQozSCnsqvE+QTMbaG79kLB6fZDLWjYymfI//Nrs0eJnVmanxDJFL1XQSz79Tb9MuvN0TfWMPvfUr+zYM0/eXjePYdI0T/P1Suky7+cg/9BIQTPLD81yesDK4JlNP1ph/O21n55eRRC9dZ4bLZfKXE5PUkWOY9n6KGR8Oh8ZSGXswkHM4fP2lE/udY0lwslAsLG93TPZiZeH3KVbRU6j02lz2Rj3DpFyzPgDKOUvvxbfnhTnkej9vBXUuiPawY4kj+DBGcl1eG2qwOxVykcdi1pHth/P5x+EqzOA/PDw0duF1hgBs5t6QmZcDOeLIaMKztNaXHOd0ksjS42/ltx6kslvp/ZkN28CYjMZlwAaRics0ETBI8L/DaJ8gZptI2SZDtj46XQNg8rmJhlmvAYSw1OxxHMf2ZgC3CcdPPz3Dz7jl2PwqJM+JKOOG01y50SGBzXpiJ5Xy9OdZhiM0xv0U2Updsrw9dpxfS7leo+3rZMjvCYqkzQyoLwApPZ2VIZlkgqc74Y7+Kudh1ounTmZMu8kN25M5PEO5EJi9IsuUuBzO86yVBNBCwX0wCYzEYZdfimeAZTwsZwzx/Py8vn//XrPZrE1+kTAfhmFykIrzpmbQzpcmY6maLuD32JjhJBMyu0JRk1Eme+0BTz6bz3O/Q0k/k8aWObYsk74b8HISkfHydlvK8IQgz/seMzPrtvPs3jzCZ/wQubh/TJJajwBXnxyVtuuZ/9TpHvicIjMe/wz1aXeumEkW6DCbdnA5tM8xtB65j9Sd/eLznB9IwM0y2HK8XC7r+vp6kg71dZKhurGwMi9Ct9H4x6wKIblMBgtvbNDM3E0KvcdCEmCTlaCQlOuDlj2DyAQRQOW6UOTMNVGGgWA2Ox6pttlsGhgBoigeXhTPjnF6UXXurWdgKRNQZOABbQAV9uX3gQGgZpZuk5lp1m0n65wgF/fnZAN9TEOyAXmsuD8/T2MxWHnCsAfeyWZtxP7MhzHT/gRfO0EbbQKn5Wyd7OVHnUagD0Q8qdvoLVHJMAzNubpMgzOf+347TdqVzhQZWo6WvccVPc40SMq4d/WYacrL+OPQ31jTSwukc89+nXIQadvYJs7hLwNqKr29ZHoFOmvQysblD0LyVs5e+T02auHn1WM6Bl7YqdmnZ0vn8+MhtF4iYiGmsQJuDvthBeN4PC3dIVUOJn03KJjF26HkLqhkO/ycn5/Xer2us7Oz2mw2k4M1vG3TB037d76byutPe+yFMeXys3bCmTbIcpwz87jaQNKZuw1Zrscf+aa+ZCja61vWl8zO0ZZB1fpjve0x5R45MbhXfYA5q0HQSUcQi8WiOU8W7XOv++sIB51yhJmExj+2e4+1HVpihnOvlqsdBjKxwzLBMHgm0aLcZK8J6pZz9imB1Trg5V273a5ubm66zuHLHGqGXu505sfs9anYJ/HQWQDUQMw92UB792S7PcNOoKEMvA3vxnJYQehmVkdbHfqYGfi1vB5ITttn9wrK6Rl8K52XOCUbTcPyLLC/9zg43wmIw0qqPlYSLBaLtpGBiSqWUlE//UFGXJ7VRMlIkRjsem3LfqRRoENfsYnUiXRINiQzZZeZxm+QTb1JMOVzPrP+GKSSTVKP9drf2WmN4ziZVbddVU0nMtFXL5OqqgaqTpl4tQqRkOUHeJlcGHRsr6ec0ilWmM41bddjCbAn03ZbaG/qQY5/jwTZxqxX6eSNe05XzGaztqc/Geo4jr/ey59KhXDdmOyYc4Aok40mc17ca+9o0E7B+14rqg02BVZ1nKH3QDlvmcfqIUD+d/lmHmdnZ/Xbb781gMJpeFtfGo7ZCqDnQQWk/KIxr4U1ezYz9cQChuGDQmDlMBtYaS+CMODwkwDUk3c6mwwlDdxW3AQrj2uG/L2/bfzJOByiJfu3DHtRBM9XTY+bs12YaGTobj123XyXE6S+3EbuI320XC4nLNFjnSk1xi0d18vLSyMAKVNC51wGeYoE0TfIiO+r+nzCF2V6MjhXVWQZyNhzCal3yTSti7Qz25xM1XL1Jgf0i1P8fQ3D8PXWU+cssgGZ46KDeQ6jG5l/I3wPdHoTwMWCtRH4Xi/HSGGSVGZQART24XtvvdvnwcEAYBD0+/r6uv71r3+1WXhPRCEPG5JzhM6Dud08XzVdUG22YnaWgEg9Zq/02+EfffDZnOlI7eDsUBLA+LsHaJmmsbH3DKCnj/7d+97992oLy4y63Q/rXbazl881I6s6noLve1wm8kiwThZndptMCdDxDkO/2JFyWBp3isyks8Mucpa/ZwvotsfBEU2PeVIWejeO4wQ4KRdnAEFJBurLKzNsC86vcmVajHt7l9tvffZKH357VZCvLyelzDDcYLPQBBt/n3lDBGeAQKmcHjCt/6rDtA3wGMdxEv5QLgLAo5jZWolT6GbUrBzg3VLU+ePHj/rHP/4xmbF3W614Htxsh42U8Mv5zXRsloFl7Db08mE+PNtKAsj6O8bCS1ByZ1ZO3nBlbssK2tOxZJsZcvsZM1l/5/RQls1P6p2dTdZBlOG3/vYYtpla9tEpJztzy89RGv1IYAXIcLQJNHaQMFh0m91Wti3ufXt7q91uV5vN5lPURx1JaACTlIVBhrI9QWQc4TNkbBnmbL2f91hnvpQLJ2KddZmURRn+PB0jJ8jZlpLI+ZkvJ6XceTfenoXO9X54jjJyRw5hLH9nGsB5MYeXPbaKspmV+ScXyaOUZjA2Yv43aLhNZ2dn9f379/rnP//ZcpAZxlvhHEIkW3C7qStnrTMNYmDA2OwYkJXHsyfXjAo8vqkstJ+6kqW4T8nkEuSTKeVl5pHMO8PWHEeXkQbs78xKXUcCZgJMpkN8f6/dKQPqyL9t7B5358YBN87A9cYRy8Nv2+XyErmqasutYGHsuMpoB7mnMzPh8LgDVGatBnR/bzmZwNnhWTaUmdiTqQKDs+818069seyRl1Nrqas5plVfMNTcfdDzDlTixLsFifBhNYQMZrVWHCurO8F9Bgnfg9Gkt3R7ewcSU45ZMuzQzsMs4vLysh2n9v3797Z0yayNPsDQrTQ91mZZ5MBZzmYnGJontrxW1QBtQLE8cz1jj92hrPSvl+dOOVKOmZ8V1bJPNsqVQGrgz8/5neyCem1ors+fJaD6SmdnZtO7ekAyn88/nTOaAGDQt2xx2GaHDkN78pvNPmb8ffKZmS3Po0ecSMWOvRxPL33rMWSDKu1LYmYdSEDNPK3lkOQuI0nKgk2mLifJyzJ7zJTycnWGZdO7vjxtysfaJbga4Q1u9iJWKhpCxxCgFSOfYSC9BpbvPZmCABh07vd3Zpk9hQb88Py00fXO5x87kTabTduRZAbhU3LcXw+EB8cgmms6GQfLeRyPWxaTuZhNJ1uyXO28zLxcp8OadHJm25TdY2PII5UwlTGBzc7W5bsMy4PPkiVZBkkAemBNP/2c28UY2dm4/GyrGXA6J+sl5bsPrjP7kcbv/lfVpzwsJMcydBjLeKHn6FDK1frgflrP3E6Dq7HDJKvH/BJXrHsGR98LCUoneipq9k/vwmlxdonlnHaU1y9f0uefUw3zoL++vjYPRjmeKc5lJQjX61EREL/9nhvyQ7yEzruiWJ6EcL0biM9gVuRBrTB+gV4Ki9f4Xl1d1XK5bGtNAbZ8a6IvD4rD1arPC8DTQLjMCg0sTk2ko0j255l+99F7x3spFTOCZJrui+uxLtFPK2QPPLIsP5POhXsSjO2IU1eRo8tAfum4AIOecdOfHjADYplrs/yrjpNm7qPlTlvRX7Nk25Y/c3SWqQfAnHKrPr9Ik7Kcg6Qu7ulFMKlzzlkCTukMLDOXif1btp4wpk6X58ghdSXBMwHWeuy2JIHzfYz/XwZUN9ygBuBYca2MXi5l6u5FsQ43h+EYFtN4FGK73U72onM6OQc1s6bUC5PHcWzH2vl8T3tflMZem9yuD0uhHhzEZrOp6+vrWq1WLT9Fv71uj//dn2RbyfTsea0oBqYeiPFZgoBBwsbiGWvLpeetXSbjSB+d501FMxByj4HDsnA9yMnG1XMu2dYeg/B9eX+yyTQKA14SBjs0l2tH5VymZTSbTd9zRQhOXeg4AJTOxOw5wZdnWLWSTA6Qwg57kR2E4HA4TEiK9cH6Y1C1/MdxnITKOWnpsc2xsdz8eQI87Ta2GPhPjXuSkd6PMc/9yjb1/q86AaiZfzMFZjGxBZqU3MsJbIwMrsMNMywG4/n5ufb7fWORME8f4pAUHFCztwdgzDwd/qFMKDuga0BbLpe12Wzq5v/aO5flOJbzWmc3yMaFm6SkCHnkCA89s9/BD+Z38Pv4GRQee+awwxdJQUt7kwRAEN1nQK/CVx9WVmPL9rF1zs4IBLrrkpf/sv6Vf2ZVv3+/ei8qGYvBi04XeTrS0xhtCGSbkQ2dw8U5IdaZz07G03BibGaRBDoboRdqPCbW0cDLbZChuM7GkglurI91Rse8jqyO9sL27Py0V8sw39MHL/xl3SCAyXSS7d/j4E4Upp0480v/Qggy42E9DLLROUGZ/eXCrWdJuZayCHlIn3JPMIPEhf6S6wPwtHGSsQZ41KXthJhF4sc+sJ9kuTxmJk49U08uU0DNtJgDj9Is6AASgSSKy4saCCbMrwV8Hx8fly1J6TzfnmPAjBJoFO39AGHXjGRpj4phkj59effu3Xj//v0y1achjTGWqJ62rDyyi4yJDIFAS/DKvXa0FMqSLGDGMmkgnprRWJ3PpgHTeVPM4GI7GYevNzg2UKJNeSyulwbf2EmCs+sh2yNryXeyOwbXgH0DXAZiloCX7x/jyfYNGNRzfM76zH2xAcuWrCrfM3vLj8xRprmW7WV25nQWF5ByP2XGt2UZqDiT4zjd39TnPHNAk8dYWC9TDZSnGSx9g0GFdTOFY99k2dzYH0ZqZdOgEykTmQmE2T9J0GMnA7pc9OKjjBSiO89ITCaY4ihG4DHDZlqBDOLm5mbc3Nys3hBFx2mLUFSsnYsr5DOwaYDcHMRGwXt4r9MbdHoyHgK6Zx9M0+Qatmlg9XECMsfLQGyWTzluFYIzc57M3VFuKZwpsS3rIP9Zt9l0mw3Q4R+uKhAAACAASURBVPh0XmM1bpOy48yB7DK6TTvUEVk4/SeBIesMZt7pW/yRq/kMQJGfWSDlZdYb//YMJO06WJioGES37IL1028IqOyHwZr5WuuJY2ylAup+//RC4s+fP6+icoCABsbcaZQYgXJTcDqUJ5a+fv06bm9vF0WThXpK5+moDYUKDNimnxECH92LEaQvZLd5U9T79++XV/DR8NyXMfr0o8nVCm7XE8Qoc55vQS5jM+t1ZCd4kTVw6uV76dwpDGQcW+ufA4CLnYzf2RcCDKeJlE3IQPRtIjDG055MgqMX7Qgk0THTYSYWaYtPM7GPkRNfDzkLammP3wlabL+Bu8EwNj/GWBZU8xtjJiKn0zd2f3l5uQJu26tZvJl7S88l15t2+OSVU10mK5SRGaTtlXprrL3ZYsbQWDHlw2MG981n+RPNOOWOsYSFRmBRCjsdtCfomDGlXlNo50NTNw2f1/J3nGbTwjAiCpTR/Hg8LjnTsNP2rDuBjv2iYniNAcHXWHlNYW08DipmSxkzjZQRmIGvTUlTGNU5RgdNtmXGS9Bx23SOxvYtQwcIOnMcwhu9Y38Ge9ohmYsDIoHW/XCO3FPo6M7vcMi9lAGZ/H6/X370kUDFHQwkMAwyXjS2XWU2ln6aqVqO1KWZWrNVE52k/bhWkTpSD+3S7DfHmH70roVGUuivvJapneACx9uIDseWP4NyBdRPnz6Nf/7nfx4fPnxYXgJwd3e32qOZTjLSU8gRRhaWbHAB6+RY6dQ0NhqDz9MACRZ5+oo/qZx+8f0E+Z92rq+vxy9+8Yvx9u3bxQi4kX6Mp8hvFmOjpwIYcAg0jvSOiFS+wdPXGAjplGSXuZcPOjAdwr6ZYbJN7jElu3CfPCYaoJlCCxb8vBVsWIdtlHWQ/RhUKQf2c6aj2fhaoPS1yWem3TGeAIW7U7joQzaaezLDyiPXfEzZM6LoKjLIb4wR4AjK3E5nIkGfN+hYr7Sz3Efiw7aZpjD5IbHwNSwMuC0A0HZiAxlvcu4eE/XkYMsyBdR/+Id/GL/73e+WhaK8QISoTgWQqeZctl/kWJhkjpH5Wbg0xjHWP3PMOtOHfA9QkI06kvNYjPhwOIyf/exn4+3btwsg+5FOTt+akRlIUjxlMzh4tbYpzewo9XlKbeMx0MZBuZ2JASF64CyC9fvpL+qhTa3IUC0D6phOTRnZDho7yjHuSOG1dH6CF+/lGKg365JtMohmrAE0z7C4EMt201e+AjG6ubi4GJeXl8+2LDKIs57IkNP4NkOw3+UdFxwrAbUFjtThdYncS4ZMPeQ8fZLybvpN/TlOMuTZLvOkBNzYRktPhO0STFtwZ18ZNFmmT0plm1S2LyUnZUcj2BDoYljZ8kQgJMDSoJlDJXCblTZ2F9aVqRWnWhaGo+erV6/Gu3fvxnfffbfsaeUjnY19pR6DEc+14ojM/wRs12OWw3EY1MmgWQfrMkszMBlM85+gT7nEmc1eOI2zHNiGZyPNYD1u9itOk8WPGXtq7dPGuCrtwM3gZB2eTk8vJclxA7kJwBijvviGK+H7/X7ZE83ZVfxzjLH4JncUuO9eHKat5gEYAs4YY9kh02wy7ZCoNEJAbPBTXBkH0y25lmBr4sA8Z0iUQZ9yZ4BtgBpm6pSUi22KPpSymUN1xLXAbKApFExjmGSjHjzfquMtJwRcKpZCjAGScXAfX4LDGE8/kvfmzZvx7t271YuWafQGKAL6jI2agXr6QwBrU/UGaLy+RVGOOfoyOKYPBEcn+N0+6/W0lM6Vfpg1k0GksG3qkv9tX23cY4wFXAhMZlRmlbMgm2PedeJx5I8/uphzM3ZjPZMgOPBwvNyDTaCJ/PwTN9G5AZUM0QCWa5ibzJu2vnz5sto6xYDjGY71xoVgvgTbKTCCnPXvGaf9PVhhdurdAek3+5q0ZHYzEY+aDh0Q7Kebj56msi22ZcblFV8aWdgjlcjrIxBOV9jZ3J/7cg+n+2M8TUcSfeJsZC+vXn37qZI8Unp5eTkFFTtgi1SOzJGFlUIjcOQnYwzosX33bcbgWn00zjGenCe6dloick2/OUVmfo7GzwBpFkBdESza+By02Tc7HJ1kxkzZBh3TU3rKnA7Px5ZDDAgmBNS03dgL62R/CESUT67l+FsgePXq1fJLt9yCyDF5nYMBNbOyADvB9+HhYdze3o43b94s46aN0sYYnANW1JF9gPKhDPgMvevm1J3HaNO0j9Pp6TFSMnCCafTbAjDlTLsi7lHv0ym/AYIdtEEYue1ozO2QqaYdGihBKiuRHpzrz7kYQgwjed8YB/ebHg6HcXNzs/xsCX/MrDGKtqjE742FNplatpxuE/ga2BCEmNIgONDQaGw0JH7neNN3shtPr6iDlgphG2STZs8818Zn3Tp4BBjpXH7m2yDFvpDNmJnwe4J0ZjP8RQbLjfbCvtsnbBfMW+dY+syFFe9uGWMsLNp5V/oWiQX1cnd3t9oHzJ0elNPt7e24v79/lpfNbPDz58+roMPdA6mXfkz7oN3GBtp+Z9oK/Yhvtsq1tNnIyIAcNs8Zq3VPu25kpZXN96HmcyttsFvFIJhjifINMOm0LbmdfnD/ZPpFAyJ7CVDHMbLLwCyDdTXHbqzGY6CxmGmkDbbXgMhsjvfnc9sORINyv82M/ErFBv4OoqzLgEH2kePtlW9pzzIwyFu2lhen/AZpsymnBVJ3Y73pN6f2fIlPQKyNxX1ugYFM0P40Y0TRt/e6st5GNi4vLxcAon3w3RyNNe52u4XFsQT0+WsXW7bCgGNfHeMpl5x6vUWKIJj+5jvf4EVfzznen7Fxqr9VqDfOxCN3lwqoWfHyqpgj8Es6QvbhnEOES9DMsaYUf2ZUzrHkT7krIQq/uPj29NMYY5kmJTfk9sgcx1g/qsprGwg4wtEZWmBxbi1t2LjZth3PYEWAJJtlisT10hhb3bMgS6dmvd6JQd0a1McYlYFRhgQo5hc/f/487u/vV3J1LtsyItgwaFFH/BVYB/58botp1KnZOVmjZclcqkGfQY46brOG+AWDbYhDyxnycW/+ykZA++LiYtkPyz6SRbfpffzQ9k92nzpZd/6n/wTtgCRTeHyAg+CeBTVP8yOD/MLxrBgXXkI0K6A+Pn57lr05fBpyozQkvrOzUWbnX3LMDmgnbNGb+df9fr+8IJdbvCLY6+vrxahev3697MNrDLO1R6dqbJuRywAdZVpmBiHLydNgy32M5z8c57H4HrLIFuRcR5ymgQYBwoZnh889/u5xE+DYB+thjOcvEncAbGOm/Al2+e5HjXPMtt5YGEHFMy8GndhDrifIxpZzzimBLV22AMb2ucBlOad9vmeDi7lMqbH/9lkHqxaA6TcEKYIrx8gAEVZNwtSm9M63pp4QRqZAKNf2P2OKr11cXCy7Izi+CqgPDw/j7u5uxW5cZkLg4Gn4ZhhmDqzLkcED4WplFJxoenV1tYpwx+Nx+R2lTNsOh8Py+J2dmX2jU7I9s4SZ8ZgNtSkCr2vFADVG39c6KwZhAj+vMcOlbppOaOh5nJD1+NHO1h87i1MFHD8ZJOtgDi3XNB2NsX4HaZhXY5gM1CYF7A9X+52yaUTidFq/pYsyJrA5QKUeskPqkP23fijT6Imvu3Q6zP3MuL5+/Tru7u5qbp07gNJujhHsqZcco34a0LIu4gBnXanDv1qcPrFvXIiyfl5SGKj8AvUxNnKoSUKzg3Y8G+EMNMjYPEVJ3TMWlv9ctLLRLIP5D2MxxU/eNHXlHaozQGpOn3Hk/yyvaaNhHQRcA0QbPwEn91DuNsAsUDC4GTjbtjOOx/LnbxOZXUYWNvAWpFhnzjuNxDGTCTkw5R5OB5uuDJSUHe0p4EqWxyk962NKpLFo1kF/4DmCL+2BumKQ4T0ONAz2Dj4tzcRZRfKq+e6tZ2OsF2O9HSugOrNzBiPuLbXNU760XdovbZOEKf3IZ9qv05Wc7hN8W7GsqSsSRV4/xsY+1Nvb20XoEYgFyE6334qi4VExnhLnGJ2drJcO7/16NNzkQ/0i7IAnhWj2yX7RUWbTE/Yp11H5BHUCAcdL5VMxs+mumSm/5y8Jehpa6rABmRnyOht823eavJwDC/XN/lJu1CHlzHG21wkSGMJO46x0IPbfgTiAwNy7WetMVn612+3t7ea7eu2YthcvlHjKTnkYiO1HHHfGadsIuEQPFxcXy1pCHuTJE0NZrI0fRd58Wi5ML32hTBthydip26ThqEMGoNzDfaXUaerJbgLndPOfL8p3oDHQ83sbw6xMATXRP4OxcbykITsO7zM7oCDpvLzfBmlji5FGaAFNPn/fQKmNoaUq2B9GdoIpGWUKc2Bmgk02/mwQNnNt9ZgB2XjogDlPsMt4WtLewYf5xTGev8mfevKYfC6yMrvjGNpYm55SH1ke8/usP9/ZfoCEcrAP0FlZD/Xkcdve7NQce6vHuiUjprxmgdd9jb/RTsNWM63lvQmiIVjZNUNwTb/iz7TVmU2yNLmZzDR9cPws0X/bWud7Z9hmgtFm4xVQc3MiFZ88SuOM0naCmZCoRDsADWmW1zLzISBkAYECYh/bFJ1j4jtYWWysY6xfDMy6Z0GHnz1uAstMkVvASeezLHne6QLqw/ohu25BMWM+Ho/LarF16sDhAPGS8RkgZudyf2yDsxjnJp064rhbYAzbaY5mGzc75j0u9J2WLmk6pRwDfO6Lg076QABqvhD5vH79elxfX6/YXrY05Ymp+ERIF0E5dTm/Shvf7/crf3MOl0x1jKenHVOf2WzbZ0q58Vx7ebTB1PLbCuguU4YaWh7hOdFvICADNLNIfYxcno6w0KhsADSQHM/UJNdnyxef6nDOMv3Y7Z6/OSkGQYCmDPLH6D0DbBt+AybLwGDRgMSKZz/CGgwCdq5WbFxM1fA+ypTOY+c1wLsvu93T74ulGOSte+o0cqYMZ/mtHOfsJvbjdE37+Q7LPTbQZj7Wj8GXgcdpJbZnYCbwEKDyv+UcUx8BIWDIp6Si77wDOHIIaCVfnZdPp4185w9kctyc9XBcTOuNMZ4tLtqGWF8jbA1gc08CQntQiHK3vTTba0EvZfNZ/t1ut7yENiyVCkmlZibuIFllG0j2+/l8BsH0QCIpmSl/KsXOls3H6UeLOGaHmRpSwKmXwG1ZeexmqDMW2jZVuz47VXOw9Ityo04MluwHc1UtZWGgYFDxinALXJQn62WgI+C3AES5+rlu5y6b0zHIBHyY90zdZkCWGf8nh5s26YS8lyBoX6GTOuhxxtB053st+9SRPGVKrknwTSAmcYhswkLHeNoBFBY7xjf7zesDuU5BMsYHAxioqa8t5mfyxuP5bxANTmVsSWPY3gym7kfqZuBl2yybT0pFmQFVO3QDyobgZHs0FB6jkUfA3iJCIE9fMo3ja/sC0PlVVEfr9N1g4qjj8RJ0Gquw/MxQrDDK0WzDdTdnTmEqhGMgqNiZGnMyA3XgYP3Ov1FG0S+DggttJNO43OfrHFjynW25vtiP2Q77HyD2zMP30uEZJPh/Zk/N6WbyaCxyjPUvsBpQabctOFJvrR3K1za+2z09EBD/enx8HJ8+fRqn02k5l4cqDofD8ipAB0UG3dQTuTpNEp1yxkvWmEDARTb+pU3qiHtqOfYGpg3LOJbGTFOmZ6igrJo7ohLwqARHWwMsr43gKGAKzlMxGkcURUCmYE6n0/L8vvu2FdV93nIhI0x7Y4xn7NWpDyuQzkGA8kIX9cEARNlTLzMdjLEGTYIIgZx6yT25hivkBFb3gfks9tmBgnW0qfvWVJqA2OrguVm/x1jv+PC+VrMeyt7HaJ++lvVwPM05qYcAk3OUlKPTaQYAy5yB53Q6LS+Opz1RvldXV+P6+nrZ8XN/f7+AKnOtqZPjsrxasR9SXkw7BIg9e7DcrJOkKxgUW6C3Lpr/019ePOV3JXlWerfb1albGuL96TSTz3xLN68lm2Fkaj+twUFmdZHRkM/vRpiZjpgxhdm9hEWQjVFGBJIWAWcy5XjZRqs7fZ0V9oHHPC5Pq1qwcDtbsvH9bteAbfbf7n9JWwb9FizTJvcfM/Cb+cRm/JMjuddgSULAsSZ3b2dsMws7dtONx0M25z6wEJBj5wZazlqYdnIgyELVfr8f33///fLkIR/3zW9QBWDdF5MV6mS/3z/7hdS0HUBNaoW6ibxtbwxezP2eszcH7VYo93bNFFCdj8vTRqwwg/Zm9sZEtiIVAYgGYiNgiiDtHg6HVb3MmdC4rUTT+cayCAQUIvtKZfi4ZcBjMQTW6WtYz36/X+0xNcNpDM6MPjJ1frGBbzMqyyDFUy2CDvvZAg3vcVs8H72znuiFtpV++2fGDVYG4DhefrLHttDYJffg5prUHSBnHewH/cIB4VwxsXAb7GOTs20/tuLFRS4y8iXxu923HUB3d3fLlsQAsgkT+8IZgYOEgTF9IdOkX9OGOXamEMhOGTyoM9vxjBBZd7PrNn9GmkrjC0acOyXTCtCR0dmBIxAanRXdBu8pGhPhNErmS/I9feYWsOZszgESbGeGmOup4DauFIO7ndf3Zsy8l/3mlJQ6oB5n+TT3xyx1xiqpD8sujteKGRnBaotBU+4MeJRjk2sLgg4kdL7WR+f4GNQYNOzYHIP7Zz0weHvbV/TAfG0Dfcus9cEytN0yMKTuLOhEp/G5u7u78fbt22e/s8b22IeQAn63PC1DzjjJSHldrrFOA75MV24V4gLt235iP13VMauciokyOTAKwTS8sa2G/o3NMV9nRbGdsID0Iwsb2dTP9maGfI4xsa0GpgbE3DuThet3fyizc46R62xcs+Kg0IykFTMzskFPfXx+1lfX5/YNXDNmYJm0PKmPN1nzxeMGFo/14uLpl4DTD+8S2NI9x9G+Wz7+zvZn97b6eb4FSYI5WfMYY9kqFeKSXGpeoJQ3+3t/tjGEOnW+nNvzxlhP9/kTJ07HWGdsl093uT8svm8mR7bR0ixjbDBUN3g8flvtzxYLRjaDFveApnEawAwInEvN9QTZ1J8VRkbTACrfIsPtXe0l0hY02/XihZ3FxtyArU2HqbRcQwc0QLl+R8/GgvyIHuvI98YIZywldbUgQ+Nu8sq9DgzsC+2Jsmp9boyR9xgwmiN4fFwEYV/p4DluVmWgYGmBgnXPSAZ/OoSgk+tmQdVpEcqb0942C/HCMMdgP7q8vBy3t7fjeDyOy8vL8fnz52f9bakYA+cY618izkyBM4b0iVP+9Ml7hTnbeXx8XPakmzjZti1Tf24BvoFqBVTnhhypZi8WMbI3gKHTGRR4LRWYSMOFJYJv2mR+pQEX2YQjfzPAsJocc77ObMzOz2AwU4Blw9KCT4vMbIv1uF0HPxq3QSXFIEJZzPrr8bTA1Uqbfja5tEDM+t23xpq9j5r1pg9mUXFiLgbRHp36YrrFsqE+2ph8DW3UQZayt33M/DB94n5ebtZP31kf7SQb+Y/H47i6uloWo/KQTVhlG2u+7/f7ZYEr9cbXM06yy9lTTiY5OR5WzTa3ZG384n32v5kPbD566mMZILdI2NnIkGYvyJiBg6+lM4+xZhVMmPMFDgYH96E5UgNG56m4gj8bE40xfWRpSnRpQHkOmOw8uYYpGd5rg+J35uxyvY1rVheBZuboLHzGm/bDKSF14wBK1rAlY9vabOwBFcvdcibYNJtoeeJM0xvItMDBsdE//HkWbEIcuDjrfGb82Kk05jo9DhbmVNNWyBZtwnrMvdF1+pbP/PlqAr5B3VvyzGK90JX+NDnyWPrV/M52ZLlsTvkdHU+n0zLtT3Si4tombw7EnYwA/OgnXzyQuvizznk6ylMKgwcfwWyMlcLKObLnLYHzOJloA70GbJ4+u37fb/Y5Y4O+l+M0eDAAsP+O+DlmJ2gLXbN8d5M5x9TYaZzbddGxDDxmMJ5esw+eMTQmaZ0S1OO8nMVYjx6j66LT8zwfa3a7+R5WSCace+gPjUn5QQrPvBhYrZ+0zRkjbYN6aHppdk6AZCCgHBkIZgEm4+CPc9rWqSvbpPXebDjjbKUCKg2LbC4DzeB5XQw/AJnjjoJklgQ8tm3Acnt8rRgNhVEpW6rGGM8AmhvwbehMRaTPZBeNFeRaG3XL09mRzSo5brZjwJuxFOeqm2PTqByQqIPoj8CWz2TwZG1mBWyfKRQ6n50un6k31t8MnflBOl3shEHVgZ0v1nHKw4GIMkoxABvoaV/WUYgJ23Nd/M60gp9eZD3eY8p2PetjwMoxY4DtOX3POPNkYpuZmqg4nWcfzH28zo8ap66wWW6l8mJUC+r24VxD+dJm+J+273qmj56yEpbd7tv7RrNlacu5rWxP38wY+BigKT2Nhb8RzrY9BcigLQA/0po+cZvXGP1Jp3ynAgx8LXpyvGZblhWL85kznbTvDXiY9zNAU24sLULnmNMafIy0GaQ/N8P2tMzAyADeirfmtPpsh7SN5iixR8uWKS/nHen8bCfneK+DtYNAkxkJD32m6YokYsa8Usxo85lbJy076v3169fLI6iUDfPKHBft7VxA45Te/UudWetp+uA9DWRf6l/Gr5QXASq/M49qg6ZR2ogIlmOsH9OMgOgkjBQEgfxSqaNJ2+ybaZOnZM24Z9N8GgrHuMVWeX87z3vt4Abtdn9z+C2noVx9r0Gf1zoKu09kRc1W6OgzuZj1cIyt3jA6gvaWfD0Oj9VAaDDh9zb7YFthUp6BkGk3+yHgECQNPrZPjmkWICzLZnvMmcaO2roCwTl+kXr4y8MmGiZdIS58eolg62k9yVWzPfaxAW4DTn+eAeTsutm1Zx89tXLGeHqcy1uoOFgmwtsU0Q7VHCxtpR+pK4pLnaT4BBbmdahk/vkt6x6/c5f57H7yeoKzQccgaeUwddIAJm2wHtaR9vhUW463IECnbIuIzaHbvkv30TbRAsdW0PH1Brbomcc8s/DeUtZp2fq89eaxpd+xK487NuDUlHXbACjHWSwr63CW02sgauJC+dFmCXC2P4N71jX4xBQB2L/hFJlyb3vTgYMB5W5bJgtmcGoBpgUc1m0ZW6bGiyXgz27YqiiA2ViCc3V+u3cMLBHROVODKVloADDthKkyd7rf71cLVlE8mZvHaQYxk0cTMA1yBlqpgwq0M86i3gwEZiCU/7PpcLsvRp/xbOmfT8rNIj1Lm+66v62uNu4GqjOmyv5YxgYw69dBiP01I+RirIsX7sboL6fx+POd/Qhx4LVm91wgbvrgzJH9IQkxs6RdM1e52+1Wj53m/qQD0w/bfdrnT5V4tptZMPXSctYEfo6R+VPqLfc0MOa5c4V4Yt1tTvnb8RgjX0BCQUQpZmhUBKN/OthYF38XPKzr+vp6aT9tmjHSGZmIpzDyOefMTu1cMzlw7DzP4GHnYLsE/vZSjcYE0y9HcPapRW+zgMa8KDuzpjgkx9SYZ+oiS2ChMZrdUUbWI1kVN4JzvHbClpMjqPC/ZeogE5BoOT6OPWBD+W6lNgzuW8wsxSDj+lsgsLwpZ/fHs7nM/uxrZOIXFxfj/v5+AWg/XOKZG2XBdIltnuPnC685DuJMruF4tohSCu0v5/Nnm2FunmXzfaiNbVExzKWaiVi5jAz8ieHU5Q35ZLAcfOrIxuKc5/VxfL9hyg4XwdBhZkzBit3K0ViOzu2mnw2Q3Se3QYebsTLL3QHM9xP4zQwbgMZh/E6HxrgcPNqChwOUgdqg0wAonx1gGEB5nRe52Ff2iWOkjixzjinbCg3Qbo//LRO2bXZm2eQ47TjnY6ec6fka10Od5j91Q3uJHfjPM0PaAH9GxekZ65dj8z5zE4YGqC2gu7Qx8xz/mt+xbALqrFBZbfOsjSbC5ZYm5jX9bLQXViJ873sb44niPz4+rjZlM983eyeqoyXBnkKjMZIZESwMLjluJ815g2xjKBy/QSB1NtCdsRP2i9953cyhZhHZhWNqAOU+NhAmoLDPHscYz3N/1G2uNXjQJt2npqf8Z042hSAWG+XioBeoPE7PzGay5LEGgByXZRpfZW69kYdmPzz35cuXuvgUZsmxUzapk4+MGvRjk8QUEwH3m0Abn+SP8DXwa8HQ55rOLJ9ZSm0zh0rDdDmdTqt3GFJRZjYxgAiL06EIlCv3BA/+ZSNz+nY8Hsfd3d0qOiWCspgpcHqdcxHQ7Hg+c4pOw+VxT41zv5kPz8+YW8vvmt023RjEuB3NBkN9E5AyXi9CsQ0Dku3FINfAjWNzoHLQobyoD/Y/7bJNHmN7LbBGtswRRnbZLM5+pGSzuwkB5dymqgbJnGszK9fZ8qpOt/AYgZCFQYn9ZUrNKRYSpfh15MWgQp+2/sl8xxir36Q6nU6rRavGXKnvLJa3wPeSYnlFDimzdAXL5pNSLVJxIAExCpBTO56/vLxcOkCjYw6Gg2GUSz+yUT91kN7zHirEixa73fNnlnNP6jAAk52kzKI5DZaAY2DgdbOIyP4zN53vZjYz9tL0aeNo1xtsKVvf43abQW8BW+tX/mZB3f1jQE4dtAl/N9imnllAzj15YbGZ2NbipnXVrvG1llcDSusv9ySHmbFkkacFwowh4zCZSMlahmdk9BcTg9TB+q17AnVjhKwnx1sKgG+mso3SB7dK82djUXQdHGOQfAaozRBm5wNonLZkoIz8zpfSGPkccKYNzvdFSHmXKfeoZQOxFwEoEPbb+2EpNEZ8O6L71NiZGU5jnWTxzWko59l3Gy9Bzbqi87FPro/XG3xmNsHrGrC3dmYLdY3R0QE9red1Tik1h27ttGDQxsspbh5o4b5NPpU1W/Fv+nGAdoBz/zm1NXtnIOLOg9Pp6ZdZSR5SvM+adRoMI7O8BMX2HLISf6KuiAkkXtaryQsfr6V/5TsDhd97SuC2XLdKIwKpgzPYvBRmE1Bbw60BCmo2/WyG5evp8Jk2tCmtp1K5Jq/qC8sl6yA4NhBypHRUawBo+TB6uUQBTcnsVwMlX5uAQ3nEALccIyGxegAAIABJREFUuIHhbLweU2O6M9aZzwxgBsm2z3WM/qhja8v1ph7qZSbHWRCb1bnVh/1+v9oO6AdHWKdtyHnF2fgiF9flc7EdX0vZEPA9bqaqUi/Bt6VVcjz+5MeJw+JTWpqAoM2gS0Dl+kjqCLimLwHcsFM/KUadbYHqFnNtdkIsYflRT0r58xjrfV8GLOc+jsfj8hx+BjnG06KOBZ1rEvn2+29bK8JU7+7ulik/f4qa02M7M5033wnqzm1GDjakHJ9Nd2ikrIeyNaC1bTozvTgozXSYz9Slp9XWWa61wRBo4zh0ypzz9R57AywHSt/HtsNG6eyzvFdrw3k7973lgakPgnerxwGbxXnFFqjZXgAmx2mvLW2T4jxi7IsyoA6a33GrlPV1f3+/vAMhRObu7u5Z2m3WR9ZrUkIbyPjbf/pkXobSfJG6cWmBr9lb+mVQtVzOLtueo8pUcgbnKJIB8xo6cJty+Mkqfr64uBiXl5dLFON/CsGGbqG0qO7ozEdaOT3h2JrzWNANIGfXE/B9vuV4m7G2+ikTX2cGZzBsoLE13nOFRjxjrlvtsQ73v/XDgWMGRFt1sx8vHWfucb6Tddh+2DenRXwf657JyuMlGMSGW0qAoESfoc/m/oAv1yfGeCJL/pUBy4ZpG6cY2hjHeNoRkPee8txs1tx00/TL8zN/avjxojf25yZ/JyDaYKx0CyXfmeuxUzLHkilWlLbf75eIxF9WteG09EEDO7MnGhgFbWNJmYEcmYgjp51kSyYGOEZWO5MZB9tvIMG6zJIt08amZkDh8dt22j0tCDqt4fZpL6zLTIM2Sj0zyBrcG5Nz/9ku9ctpMfO7tEs7tIvzjB4f5cd+mtVuMX/miPmZbaWu/GVa77E3PVEeJkZOD7DPxgT6pIkOf0eO9jzG9nS/BbWGR6wzY222Ot021Rxn9pmgyqkXI5+F6kFEUJm20wD3+/2yS+B0WrNSLzIZBHa7p1X9FOd0YvBmA5z+zxyLpUU7Awk/t/utwHY8Y7BjGUB4D3VCJ/dY3GYLFO53C1ruXzP0OH6bOvNeBhjaHkGpyZGycJ0NsA3IM+BvzkmA9vUem519jPWPMEaPZo2t7Vzb/JOA4zQH24qPpC7+PHSOhYFS3vkdqaurq6Vu7uPOtV6kZrszmXiBkX7o6b8fNbU/zMC06ck+bL8gkHo3yBhlyt8cuRVew8dQKRwqIIKNIPgyEzoo8yO5PgpP//KyBb/v0PkV/zF/NXPyMdavCMt13iZCA5lFNF9v5fFzFMVrGyudBYaZjjJe1zPG055b3+MxeSxbxc7BY82BZnlP93VWzp2nnTpw8C+ARubTxjB7kIXfUygrs2PX674SUKhDM0AGS14/C9buL8fOwJUFngbAY4wVgKVOByXPxiyLXMtZkeVmPXlMwRE/u29Z/SHF9dh+WlqhrvLPFJ7vZoHNCAlqAdCseD88PIyrq6sVeBNA83KT1DPGeg/cbrdbKZyMK1uyDHo2Oh+LoLiiSOPwiy4ybgICV/QNfAZdXkMWGHnNQNgRm6Bk/bTj/sw+empt5+Vi4rkFN29Nm4ECC+3Hzmk72Uq3cJxkv2Z4LRi6nwx0lJXHT7bMXK3lQf2wLQNhxt+cOtd7nGZkroNymAXt/f7b1sXsnsl4HWhJTnyv9+PmnvhHrk1ulS9CYQrC6yLpCx+nDbbYVvI/KbTIaVaICQ2423Wt1KN2qsYUqEzuR03hwJtAwjoJXlGUF6P4mCmn6BwYwT39evXq1bISacXnGgrLrIDCNPu2TLYYgY/PohsjNB2I33OvDS2fbVCeLnv87itBugWRlwB9m4bzmBcGG7OyHmg/PG+ZOuBb9gE3t8NrLAsW98Pn2I+t/nBc/kyfMwBa901G1g+fr08J+LEN1uMFvIYB6Q/HyRws66Sf2qYo6/ggU1S201znBSkHzLTb9Nh0xzZ43Hpp40iZLkp5IFtKPJ2eqHeeZmL+lI89Evh2u93CRrPoFCZr9shBOcfShOAXNPA4c0o28pnwHQFni0QGr+Yw7bNZqut03pe6sTFsBUHLdasPGbdBnW21QlbUpnGUe2N7rr8FhGaf6TedsoGA9WIZzK6jMzkApNCBLWPaHeXkfDZByDM9AxSDswHVAZr1eNw8RnIz87Nc5yclI/8EZKbm0q+WCiBx8uO9HAt1zL2n1Bk/Nx21a9txjtkkZ1amgGrlbhXmLm1onJYzCllAdtYW7XKu0fI4Jo245VLtwGYVORYlJVnPdptAuYhAxyQ75r0z521122kM3LzOjL0xLgOvAcBPf7jYYd1nMwlHdver6ZjTNI/BTm5Dt21YZ7y3BWxf5+++9pzjWnasl7qgrcVOCcDtnsiPurON+MEDgj5TBQZaBwLLLeeYg01KL+2w3Xz2d7Y1xtN2KG/NIn7kWFb3LRPLe+ZXW+dndr11z9n3oTYhstJcw4Fx4FYmnZ5Towa8MZD8JdI5IW5BM4/qfrecGoVjxdDhctx/BDyD5EwxLeIZZClfAw7Hw7YJRHYsysr9SfvUl+/h4kEDI/fNBthYUGur9Z8y3QpoDiruE9nYTKY+Fl15ms+2XAfrt421th2Ac47pLgLgLDiyPrZpn8v1PE5ZGjQpF37m4nL6nnei5vFUrglwhw6f4GLONm2a0XOsBtNz/uvS/CL3zWyY+mzrCGO8YGO/O9GUGQVEuBREY60cDH+Dm4JuDpbSjJtCbFOAGXjOgsQM3BqYtvMGI4Mg6zC4W94eB1lF6uDbfXh968MMlKgbFhtPu392zPlqb4exLFkH8+GtHd7r7835Pb527dbxFAKMA4PrZmlts3/WU5PRGH0hqTn4zCadl801sSGmygiCvjY+nzxmzmUabjIVYPUCHesjwSIuNB1w72mTU7Nly3dLX9YN75nZxhRQtyr3/wyQNN2daIbS9nGxPoJmlErGyoExqnOlkP1k+4yAfF7YwqJRWGGMvLmGyvdCW/rWgLQBa3P09N/TtrbQ0oCITmcZW068Lzrwtb7e7Id1pj1un/MClqedXuCxrLZKC0525DZ2O7Ptmtdv9SFAYT+ZscqMMzZg+TAgsQ0HJfqXF5y42NiAIf7A1FULpqw3i0OWRx4H9yo77fd4PK6eoiKDzmcH4VyX/OyMRGyB4QwUG3izZMyNne52u/62KSf9fb6xQzPUCGuM5y8QSa7l8fHpHYqZpvuH/xyVudCVfnKqGyNme36SKtc4/0JBOarbKThuswfmfgxiVogBtLFStuPj1knaZIBJv2KcTacE5xnTYr3sL8dnRtoCKT9v5WENMrwv+jMb8Zg5RrdHkJnZtNvcWrRifTPnbSDvvr1EZtSBA7n1yfvtT9RjY4Sn09OTiEw75P4EDE7fU4d/McPkg+Omrg2czKkyKAdrOJatYpLS5Gc7nAFna+t0Oj1nqAE1Vn6OCaTwqYUoPQ5MhpZrfS5tNafmgMNUue2D9bck/CwibY2t5eJs6M0AXT9ZVY5Zti+RscGWdb4kss6MKefNmP330tfTGUgbmFAnBgNf22TcAPAlZQaIrQ/57GDu4+fuae2yfQMuZ088zuk4ZdvY+ky3BlgTDdvqrM8e55cvX1aLUafTt3Sex8Xidyg7TcjPvIbkrfkmy0yvLudsmmPYqqcyVDuqK505gXMfyaOkI7PN3mSkY6zf0UiBN/BgvQkGTCWkroypRcEZwHk6bGGaqZFxzFIBDVQZDKg01p3r24KKdeDPHsvs/nZdA/EENOqC/2nkM+NLXX7G3ayReqcsKSOPh8eoa+aeKXeCCksAbBYw20zFsqN9ksG161gvwYX1u52mQ8ukgTbZne1qv3961JR1etaYayO/+/v7cXl5ucwyj8dv2yHv7+9XC8kER86YDKSRlx/LZYrOxGAmny1b3JIpy36/X73RrrHX+qSUjXDWATpvvidJnVfskYkwwlDg5wCOucivX7+OL1++PItuET4T6QQ6Apnb4zUEEBqzncuMuRmyHdfK470ch8GdcjEotOlwygwwKJcZqLINXsfcGkHNwW4WZGbs1QDfrvP4nFc1y+K4Uto7QXe7p0ebfY5yZB/JPGfkw2zSwO4/y6IF/4yhyc1T9rb4w3vcNz44Qxknz0ngj7+xT3d3dwuhyfm8kHuM8Sz/S1k0wpA+UUbpD3cWND23YhlTJw2Y3dfc19j+Mp52QwRphW91NIXTfitr5iTpXPKPzkGm3giUC1RRllmJc4az/FT7TFnYuM85vftNJTjANLk39uL+UD++z8BmcNkap69nnTSgl/Z9FhAMfO1+syP2s91DO+I4fQ9B0sFgS3/NgZpvbIFwihdbPBb2tU3n28JU/psQeD2D7VEXBLTdbv12N1/b8uTx3bA4EgTafutv+phfMvYeZI6V+dOGSbYh69CAObOnFoBYCP4s032oLfq7mA2EtXD1zUKJIXGLhgsVkY6ThVLxTWEcAxkdDY5tzF4C4Whm5/Z1ZKTpI1cwqbDWltkP2/a97L/7Rl3kPo+lFQIYHZn9a/ri/WS3M6PMoiRtwrlG39f67fEapGdTQv63DVsWlh9LA2/3jYzLfTZgsS3qwWSAMyXaAUGGeiJBCdNkn2aML+0xZeF+kiT4nag5b5k7pcE96JYn9Zhz3JFjOW7pi/rg+Fm2/CN1bxGj6U+g+MLGbHIdBxBADaheXl6OMZ4c3OyTj5qyTW8wb8/rcu9lphpRlt/rmc+pI4Ll9ImKM3gSQB3ZKWDKhVF+Fu342YYVuRsMtwDafWdhIMl1bRrutnPcj0e2nLZBKHr3YhbBogW6jJPs2HnGMZ7/rEoDTI/Fzsu+EwDYXwO9Ux8snMa21AxtgP7ge2aljY2r4PErjpOszywy+VTO9qKzkBIH8NTJcbAP6WP72Wn+Zdxk7Z7dprC/bXvmTFb2t1Z3sxP7HvHm4uJiWbxnmWrODrbVaZ6nUJKIphLohFyw4qDGeP4cMl/VZ5YbI+G2Fjtf2mF0pAD5ndH6HLuJkeU/mXcDvsZiZizJgJZi1hZ5OLLTMGZ9bjpk4eLBzAa26qEhss+UWWOhPmbQshzNcG27nn4yqLrv1LP7THtjuzNZcNbC8y1lY/k2YKZOWV/zgfY8PNku5ey9oJGRc6c8Tv9t9sEgaSJjm2940+oLtszssbHGWX28x+ebTXNWbBxJ2Xxjv1HbDbAzKZz239/fL5GOdTBPasXQ4WnQX758WU3hGWk5SG9wZ2QcoxuyFZ0xMcfl5HdzttTHxYCcs7wIfp6u2tgp85mxRK5xAPZra5pD52lO2qbNs2KDtQFahn4fLlmvgwIfwUzx2Cy3FmDSLxZfS9tjn9zHJlOD8TmdnZMpbc9204KQ2ybT9FjpR95ZQ/kmLcb7rSc+8UhCwfHbF8cYyyI2GSvHkD7kngAq+0mZ2o/IMCn3LXlv6Yb20cozQJ1Nh2ZsqZXT6ekFtQTBRLJ0KiyTUTNgPMZYXr3HyHR9fb2KiIfDYQESXsuBs306OY3LK6Icf455ywtzpDPga0phPxvQmsVs6YUON8unzoJhY6lpt11HXaZey5HyTR3UAfvQAovHP8b6xce73W4FqpSpZW7nTfvcZscxG6i2Aon1PQNOgwmP054iO97DQMKpN2c/lO3MR+NnmdJn/2YDWcrB9m9239hmcrmWm9Np0Rn15NwobSd1NDa8FbBow41Rcnz+7D7Yb1u70xdM+wYbpzvu8vj4uPxEAgdtoUbQ3DSeTudnT/L39evX5YW0carD4bB6GQo3+6ZQCQ2YWkTiuPyI7EsZW7vG0XPGSGf3NUP/MWUGri40xHauyeolMuE9Zlvn+kqnZB0z2xpjvQBG8KGcfV/7PtPLzElZT+7bclr2lcdbu02HlqVtm/X5EWIv+sTPSERIHLyI2/LZ7OcM8OL3BHSed46Xr+ujfc4YZbONl5QmMxamq1w23zblQTbm444SKAOoMWTv9Uu0zWOEWcShgKlEPoGVNvb7p8dV27SE0bQBEcdAZsYomjoa+NnQGVFt3G6PyjbQN0WSxXgaaPl7wWfLIVm/2Qnra/L3YhMDrw2TDmq7YXuNOc+23TmNMPtPlsFzZFYuLwlqBkrncJu9cOo7C+K8tgVh6zkkhIBJG0j9M6B1Wogyie4NgHyREcG6+ZltIvdwEcupr2bj9nPr0vprGOViPbNenqPvvX79etzd3T2r6yygckDtuA2Cx7IJP4pwVGuC2O2etkZRwHz+30Lg6r6FkD6RCTeB0VhZDx2CfWY/2ZbBlxG0MbIGPjaqtpBAJzN4sp7ZFJzjZ7Q3cFEHTimYCc0MMXV7fHwl41bgIcN039yGx0c58jvTQi8pBqAGqC24NqdvTm47Yz0ENuuLdedck6PTbbNxzcbkullnSggT+x9maVtJnXxjVNMr++fp/kvJCsuW7HmN7belwVqpR9vgf0zJPV+/fl1QPIDKCGcQJEBxisE/5me4ou4dA2M8ZzX8o8A9bdt6Gw+vYR+sSMrCgGY5bcl5S/7nwMz3tgUflq3pq+vOd/dnBlJ20mb8rU9hMQax9LfJsDmuFytbW+d01Mbs0sC2MR3b4Lky62tKfCDnWKeZpAM864iscj7fs+k+9ZGkUO9mxe3XSGeLpMYDbsNqW7J+jLxmeNaCyLmSMR8Oh2dbp87+SB9ZG4+dA9wIhNP+MZ4S5HxLTQT28PCwSgtEwDz28PCwSs4z12OGletpSImGzLVyjPnsRRSytAamBBEzOcrOU8LGYDytt/x9X9NFc8D0s4ETHdx9TXkJ6Nt+6EQGY4LvjOnxuxdf2F5jUjPmyLoolzYWs0AzfuvK32Pf3tJHNuapLe3bbI+2SR1aNpTD6fRtkTgpNaZqmA5zADgej8tPGsU3rV/uTWa+mqDI8XIstHVui+Sx1B+my50htlnXTzlsMdb2Pf3wi5ai291ut3qqazk3VBpKb9Hwdi+V8uXLl+V3vnOO0c0vUzGbcN15g00GYyNw/WY4LWCMsY66nMrE4PlntjOTXWvLyiWozKJlM/aZvFs9PufvW3JpRkln5bVul85xrm+ekjcQbPc2IJzJaqtegxEDZnOmWSCMvSXnnwdcvnz5smz9s8y3ZgYcY4jIlu5zjH0/Hr/tnMlvNRFEvTuCoM96TTC8yh8Wy21Nu91u9RIWgg/zsmM8PdTC9J1L5OrxWu/WS0ojDbz23HHX32Ziz47YuLYaaYbrax8fH8fd3V39WZLT6el5/DZwd5irfpxecBuDI6yNhgzCBnMOmGmgbawEhi25GYg4NrfZQG6mmxSCzJZucs0Wg+Bx/j8XSFp7bIvH2A+CtcGm2ZoZWcbPYJt6ZqSA9+Z+B4TWZ8rC9xMoeA0DN/Xk3KBtaSuQmh1bPpEH+9XkmhI9cFN/nkTkIjELj2dWmLrajM22ZOIT4E/hhn7qvemiEYAmN97HMsM020x7e15dlDK602Bs9OfuPR6P4/b29pmTRNFjjOXXUglWDbgS4R4eHsb19fVyD5VLgW8xvvQtUb8xHAvXhr7FegjorV5f4x0KvN5AYGBtK6jNAT1+B07KfmaMDC4GboNLjI5tEqw8ltaOncRTdU8zOZ1t42UhC2sgTRtlvxLIDQysIwyMdVK+BmvKlITAspgFyKS/0i/2zcGFfbJvBwADwn4cOmO/uLhYFpz9SDL7aHlZzuwPd/JQTmT8thPr1UGa/y03296sX/TD2QwlZfNXT1vlLylmDbe3t0vuc4yx2h7F68dYM8X25pkxxupFtqnz4eFhlZdtQqSCxhg1wuS/dwM0EN0CmxmjYVuJ5G2lP8XtpngBgkDDNszymyFS9q6jFbMn9pVOY9bWmEnbOcB7OAuhbiMPO7PbtGPkvxeGWp9834xAOF83xvNX6TFozRw4QOU3qDm4eHwZB/ttUOL5gKZtk9PwTN/jCyl85Dsg+fr163E4HFZEKew2gByAvru7GxcXF6t3c1AfBvcc48Jam4E1EHTZsm2TmEZ+TLIa6G4+euqbz0WC5hRjfAO7T58+jcvLy5p/jMCYa8nG/tRLZ43xEfjyq4k0hJlwmWym0eQ4HcuRyfU5EudzEzb7zifJDMJkSKyv/T4PFxesry2Wxj7O2mvGF3m0820c7X4b5JZceU87x3Ya8M2IQVtwa47Cc61fZmTu02wRcIz5m6gYJGbpJbZveyWj2u2e8pizPrHPJjBpi6DqdJC3RGZHwP39/dJP9pn9ia/vdrvVpn32P2k+T/dtQ21M1tWsNP05LbOFKTk3BVQnhpshtHNtJTZJ+SwocfWSTIvOGEH70TvWy/wp69jvn549Jiiy336jDaM2x5WUgFmnoxWZlp9EocBPp/VjuY7ELAS69D0Rn6yWPwXD+9gu+2MQmBkbr2sRuX22baSONuXzdfnfGGJjv1v1sW0zVda7BVq04xlbbMGD9zUA5rUEKvYlMqBOSSjYpklP7DZtNyZLeydQtSmtgxJX2ulv/H88fnuwp61fkAilHr9W0PjhnCplZlm08+3cjy0cb4rtanNjf+uADWx2bz43RuYo2hyIxsAodjqdxtXV1fKb31xF5C4BghrzQh4fAZ0gH+Ny9CVwGoAJfAQA5knbT21zHDbg9t+rzzFIys+6MDC30tqmHh04eH7Wrvvk7wRF1j27fsaiDTRehGpspjmbgWmmizYujsmg2xhx/jsvzHtaXtu6yX8CK9mdiUjsxUEqfed0PbI0c6Wdt5evBAQJ5ulX2GtysOkDH+hheoJvrmsA2nRkEkD52nZ5fKveZiu207qx39H3P4PsUapfucXItuXkVMRutxuHw2FcXV1NB5XoR2Y6xhpUc9zpB4Jn3nfoRZRZINnqfwLK3d3duLu7W71dx/tmvUgV2aUeGljySjMZ2nhmpa34GhzMWprsx+h5S9+XvvE/7/fndr8dZmtMbKfVZbDzfazLY2vX53/rG/VI2czeF8G2CDjugxljGxP9wqkjMtvWB6emAryzbVwEZAbz/X6/2gxPOXHxjIDvmahl/WPKOX9o523nW3VUhmqaPmNKrWGzgFzPehj5IjwaVoCM/Uk9LSHeHIsKJijaIDmeGOLpdFo9RkcDNTOdLcKk5OGGu7u7FXNp4JTzTgFw/Iz4aTvMfIxR38jOBSGmQ5qsPA5HbKcVmm1Q1o0h+dowoC2A9ljMIMxKtv5zrByb5cG6GfBsAy0oEFBm4895/sqwdddeBcnpuplhrjnnEwRQ7jBpMjTLZEA4HA7jcDg866MfqHE9TX+eveaPgMq+WZ4e848Jfu34DDhNOlhetCjFhlqnm2HnXgvV0yEaBgdCJsl6kvAOU2MupvW79ZVR1kYU53bO1HXOQJnROWCaX30k2zEzaXnUFsw8ld3qQ9OBV5lbfdZfHGg25llhSoNO4HSH7yF4chwEl9mCTo6ZuRnYEpwtc46NxzmT4EyHsnLufIvtzEAh17TcI88R2FlXAyMSBY/Rb7hqwYoAGruOfkhoGGz5iwFMy2V2lr4bKPk9481xyoC6tXwpzy0gZf0853tcV+RmYjLGBFA5zTNDaeUcovM6ghqfv+dvUHFbk4WXnQK5j8lwJsvzWr8tht0MOv1yv6ngljvlZ25CzqO3bedBrvUYCWRuu7Vpx3OAm/3lei/IzYyQztz6yz+23xaUrIf0I/UZADgrsU5Yn+10y0Ga3ToIeCzsz2yxq11vIM2x2DLPEawbA2Ug2GqfbZNAcLZF/TSZcPdN5LPb7RZiw8WzAE1Ak7Ki7/PR7fv7+2d6y71bv5Zqnc/GPpNNC2Qcdyv200ZsNhmqjYkKPtdoCp2WA/GUhbnLMdYvVWCdiahUeIDJq6A0AtbNCJ7xMfc0W8Biv903gpRX8PnIXEqbZrGenDO7y3jYDy7GUTYGOrJDAmqTF9tk7s3BowE762T7dCxex/42cPbYZ+y2AZXPUa+UMwGB+WvPHGas0kGK8ncONvc3wuB2zNLJOmlTtCP2xUBoe2O6hX2k3zJ1kXqYluMi1m633jVg3adOjteYQkDNOBsbZH+pY8qhFfs27/Vn1pfPTgGyTAG1RYStqMDGHclzD6cKFLSnvbkmwsz5CJhsJVuxopjko6g0vz3HTrwlPINT6nYqIiybbfNnIXK8gQ6nkFvXEVwMcOkDQajdT9BnndyPO5MB62tgxnbNrBoL2pI7HY2MzYbvoGMASXHus8kndTLnbHkx39nudX8stxQHbQKgQdn15BqnLAgsM6bNOmg/eXF7ZDVG39LlrYxuI7t5cr/trLHvpAIoP/bv3MJ1wyIGEAe+3GOg53HXHf0whdJmKPUnUNpv3W8NYAaurXhA/O/IHeURGF+9ejVev369TO+zxzWLWazLDraVd8t3R3b2lQsCvJ4r7f6zsXvalXM+bidI/Rlnk3nrO4+nffaVY3TUbcGkya+xAeb27AyRJcfZAMjszaBqEJ8BL9vlZ9td64/1mBSTf1WUdbmdFgTa2oFnGGamBACeczC03TQikTr8wpIAIkGP93AnjAHydPr2VGSAmcDLv9zH/vBNUukLZ3hbJK4FtXYu59vncySR47Xv8LpnSQDn0mZshJ9blGRhlKcB0RhYH42HjhdlRhkZHPMwHAfvTb38UT8aGV/SwqjKMTShh5lmfHm7kNmqHZjHLD8yNAKxj2WcPL7V5/SRPyXhaS0f8ZsVO6WLg8UWGDf2wMLxzxirA9EsYBJsaOOUd5teWmdkrDk3S4vYJrfeFsWFr5n8m54JUGR3bNM2l3MMzrRPp33aYlHaDQljAEp//I4KB5QUvmXKfW3vubBs+X3mC/xs+2s2M7NzByIef8ZQifAtis8UbYCyYDydj6DyghNel3cv8iXTfGIp05OsoCeiEmwp/CiYDJbjawtRrDPtmyEQkAhEDh6NoTUWOEslWObe5OypB/tJnbhvNMAUTmmcj7XBsk4at6f7fIGJ62osbxa86GRtYdCy9H083qbb+R4HbguG+ex6SQAIDu7nGGO1TdDOz88OFuwjg5bTBM6Lnk6n1S/SXUBgAAAanUlEQVSFOghkISnnm6zCzNkG+8ZHuZlzzTX2p8gsm/tzLsSm+ZXBrpEQBpemtxkLbT7JtAGZOZ9MfKbbVjGLjZPXtIjRjMzRoBmPFZWoSCUyv7fb7VY/seI3+1A4Tuzzc4TTBGp5mAU5ijKKbzEx95H95OJIxpi22XcaKPvR2gtgeNrlwJI+5eXbfKFwM8QWXNMnAxrbe0mxfGmHzW62ZMv6xuiLejN22PQWR+csqPWL+uEUf8upCeJeyEmdZpG5NoXBkAGDNkZ5kGFmXJa3c+sGzCavmS02nKDsyEidlnIhOOd7s9kt2zOO0T6sNxMA28f00VNGTnbS1/kediod8f5BGqQHHEdmHfnLOxldx+n0tABkI090CSvjOx6d+CZzmCmhOV171thTfRtLonHOsS8tGHBhzXW85O1EBFMGhtTD7wRr5rCt85mcnOfjcfZvlquesULKip+pG/dnFtwzRqZs2Ebbo2od+kclG8BRlwTC6MSO3Jgrx5BzHucs955jsZ/4R67349qZFXJjPllaC9qp208oWp9eW2j5WdffZmhNzw4wszI7b1maABBUtxjvdJW/0dnWiZd0kILlwD29JUPjghTBmtF7jOdvweFn1p/rAxLcs5pC1mG2SkXTgbxFxNGS/53MdnQnO+AY2f+kRMYYy6+9Rg6NYee7DW7GEnJtWJsdlf11GywEvVnej/lEtt0YTeqkQ1rWW+OO7BwYTqfTajEkxbMyjsesyn1oLI7ji3wbWPM6j4v1sC+UPx2f4O4+pHBBi/fHtgmm9Bv2jePINZ45mZTRJtgWZ1AEYBe32/RPucy+W3855mDvOhr2nU6TF0znZOtAu+ZcYV1ZFBljPAMPOh8Xj2KYXD30W6qYpyOrIlWn8Hh9M7a06ZdCEFRmbNYGxn60usgc3V+2dQ48+LMw7BMd2UY402GMnHlnMxPW4zyu227MydexvDRQ2+hn9fE8bcNjsg34PuemG8vOf+cZk0u0LBrQNSZkG7BN2ZcYTGhHBmmCFtlZZj4mGCZb9KPXr1+vdgqYtRO80+9cS3CNrFoqbwaSW1j1Y8uW/STA+JdGdrvJ+1ApZDMant9qfAYwNDAKkBHLAJlrveHazCLH2nQ6CoryuCrZnIlsOcfMgP3H8TZ2EEOxI+QaTst4L9vLdVQsp3Gz6NkAsQGl66cM2WZ0xzHTLqx/z0aaUzSm0MZjUPM9bqsxQQKbHZIzBcvA9cwAPZ8NjGyT9teCoNtqcnJgdsrLNszzuY9MNDNDbgvj7Mg6YVDZ7/fLhn/WSbk2vyFoerwt5+9i+7B8t4B25iu2Vc9cbQ8pdZW/ff8xbLQNwOBm8Jq1ncEEkBo4c9qdrUthVm2qxv4YBNhH9t1ToHzPFimuvDulkaR/gIi/uMqxWD5bUzV/5z123FzvJ2JYl+tkn/mWoxkbaDK2E5OFzNgu9UqGRwbf+u7Al2sNqC23TefgQkwLQrRJ68CByYGYumxB3HowGNgXaWv+4z0ECP/PGscstWMCkPHsdrtlNZ46PhwOy2yS/heCFNtnO6mHthH/anjiYw7ilpNlTtnMAjyPzQC3gfz0Z6S3WMIMNDkYdjj3tIgXR+ex4/E4Li8va5Qb48nZqVA6bxuD86Oe4tjYmIJwNGakzU4DbpkiI07U5mJawD7jbQpujwPamclMm+x976tXr8bhcHi24EAjiZ7MfGfskTKaFcrdG83pdNYh3/FKJ2U/miOwv2aALOwP7cDXUD75nAdMLMOtfJ8DyczmPB7KisfI3hpDy/hNDihv9j3nAnpMO3kbIP2INh+5xMZIeBgoUk90G19qOVSPzXKdFdqK72ufrTO3w0DTwHSMDUBlhxz1tkpD9tY5CotKJyPh/dyTajCxUaZuv3S5veuRQuJuAII5lT/GU2ohDDX/eU3YaOrxu1UNQlu5TwYNrqTmux8RTB85zsgmj0560c9pBAe53EMdWl+z4oDscTqokDXZVjImXsvPMwex/RJo7bTsWwrZefJn5xyabXscWz5lAGkMq91Pe6GNGFQ5vpw3G/T4YstsN7K37fKlKbb3BDEHkARx7vDhWLdAsJEoX9d0tUUMW3mJvqcb+1+qdHfIDIafmcc0uyKw0UnIyE6nb9ujDofD6k00zjVyesHn/wm8duqc96N4acOb9vnEEZ2kAZeDBftAh+b2Ez/dwr4S7NLv9ntT1gmZbcuB0+n8RE8KHcPynDEJszOO2UbPetJH56jdhsHaTuwUjIMNp5yWBW2FdtQe8zRIm1gQlGyDngmxD80HZ/Yb8LSNUQ60U86kuAjEoGbd5dj9/f04HA6rfl1cXIzD4bDkYdlH9smA6aARWbWn1liX7WCrWL4urpOPzlLeTgmynP0JlJeA66zz7XumBatO/Mf0nW+aurq6Wo7RkMMEo7g8dkqWxXF468eMFeV6GiPHzST64+O31/LlO/fAZoxxVO4RpVLMlpkO4P7G9oQJ2+D0fDaeFPbPDudisJqxy1nkj4xnj+gRfNwP76zwZ4+RAESdOZVgYLfMrCOWyNkb3DNOMy7aEGXoe1tQoL0bdFvffJ3H4X6w367PY+BUn/f70Wq2QxJDWbTFLvuZbaJhTrODWWnA2+7dOudjGUtSeSzTbVOzZ+ybElqEmBlPjsVAm2O06MscXJSeAZE50hDzAupE0aQB6FQGWTIwOzPZaPaC5vFXslIbSAOvZuABAUbG9M95KOuF31l/05EdsDEhOyXBKn1rDIFA5tyuA/PMMbau8z3NZnyMqQOzIQOP008EeaadZn1kHbYj52nTvkGeMy6WBqRNhhwbZeA0loGQdpe38Ac46S/cLcNiQmF2m3N8dJPB03bIFInzy1t23sbf5NgCaPNRyyvX3dzcLL/MnDJlqI3SNhT3gNzh1kkXCjbon2u5wmwjiPHlWPKZNPwx1u9YpXCcZ0pfeA3HmWtiZPkl1wSfMEsaAutyLstTUT9a63Fyvx5l7nznDEzz2YCa+5oODdYGAx/LfwMX66DD0T44tgaizI8z723WZeCiXeXY7Ek9B4EmB+rT96cO276vt3Pm+wxMWXjednbOb2f+6kCYz3wCMOPmrhqfy97MFih2u28/FR1iwicTHZz4PeN0v1vA5RhbsOX17Rqfb2RljOe/AZay+YJpG6XLjC20eloHx5g/kUVh0xm4kMVVa7/IIpvSxxjLz9nSoRrTYoQ0E2e7zKGSyfN/Fn0sFyfkmftqSnL+xnL147IzI3OZgddW4Gt9YF2z866/AXpK8t9uj20Y9Fo7vpfjarOQNnbb60tl4qAzxvOA1eqffZ61TwBlOyYETkflXsqiTdEbgaEPMjA6TWFC4pRZjof55xhfjuLAvCUbnjtn+39IoS1lrE2nm09KcSCOGu2coyMHx5Xz3DPGUzQPe8x1ySdSkbnv4eFhyWcFUFueh5GSgEoW01ZE859jiPKz2MVfLs11nKJnzDYE/tEIG6vZ7XbPjI/jJJOg0i17jsHy9wINr7eOZ8Bku2F7HE8DL0+x2T6DDgMX6+NnBymzo9STY7bDJgf2zTnZOJXrYn9y3IyLRILtULe8txXrw0zUCzrsI0HR8jIgjrGe6lPuDZBnY/LYPNsYYywkKX1vqYUmB47vHPg20vASH+JfA/oxJtumPMjWiVkENYi1a7ztJIrNAg4HEkUy5/rw8LAo8ObmZtzd3Y37+/tVFOTjp9yCQ4eLcpthxlkC7rw2AYA/PsZpu3+JNX3JGGLMZpdjrH+VoDlS5Je2fD+dtN1L+RogeF0zOjrRrG7ez+DUgL+BeAplzftzjafsrQ9NHgYq6jX1zpiux5VzZLznFqjaWB2ACT4E41k97f58z3XtvQwMiv4eWXj8KX6HBv0p9XimkeMG8vh+3trPPdsmSueA3zJp8m7Hm980fTkAnwXUrY40ptHu8THS9zHW24IIaP7ufaQEsyxI7XbffpAvP4aX9gJeVJxXzGfBgSuR6Td/3+by8nIxFhpqDIN5JOaGOS4bVe5npCewGliarKmX2YqwQYQMNf89/XPuzzppAOu2Z0bfgIWfKR/KnMDBOs/1I9+3Flf9mccaa9lqy4VBzI7vKTPrm42t9ZF9IRC7LoJcvhNQ+USf2a7thPX7EWrmXPNwBonSGGP1QECIygzwXiqLJpOtcg77WF/G7/Ki96HmeGMKrRPNyE6n9RYmKjmA1QaSQqeNsB8fH5ffBXd0TJ9THxWf/Cv7T9BvLIYvQ8jn29vb1Yt5ud3JU6kA/BhP+WEHkdRDRTV2kpQHx2g5zdiQATrnPKOYfWadZgeUL4sXjhqran2ljMhM+UBCAzDb1kyWPj6zzejf97Z6WnFQ8pSX42+6tFx5HY+zXvZnxuzMiEk4eC7rBWa0rNM2mzqafWTtIX3lAwNOKdjGKK+toNeOp30fa9dkDPTlfOdj5K73bA6VgthidSxmUuxslJ1cCR2l5WD8FwWERSbXejgcxqdPn1aLO+eM3QZsxfHtVnFkgubFxfpncP3EEp9qSj273foXI92f2fe02d4ARAdKniv9ZV4xDGEmD4JqFvWih9zTHDNObeDgNS0FdI6d5hpO+5ozs2+tfoMP+8vr6EQOdFsMuwEs7Z3g1EDI9TSbpK3ymMGT/QgYGoDTNvtIf2eaiyDHfriPXJ9IOoz5aveTL4fPFJ8+T124NNm7tOBsHc3ua4Vky3bDz2c39lPYM/a4JWwWLkz5qR6uiqeuDICRIkbCpDX3CNo5TqfTsx0D+W/QJ/NlfpRRkX25uLhY3jmQ9tI2Hwll+oH3kjHZuVwI4h4n//ieARo6H42loTYQ4mIBjZ3XNIbHvhp0I9+073Gx3i3m4RnSFtB5fAatxp48FtfLNv0/YyFYMyB5rFuEpenXC2AMZk329lvn/RjsCKAtj0o7oA2zzpCisNms3lsGKVyjMJttj6++hNTN5LgFoimRlx88Yr0cS0t1TV/flwYs/Jmzu2P+bmaQz1xgseFxCu8tRXzNWJ4uynYL9t97UgmMKXT0KJmKDjNMP7x/jnUzNzzGWL2j1IYYoDO4EzRYP52J+wNpRPwb4+nXBPKQA3N4XLhrDkxnam1sAXOb8m0ZemNfvmf23e3OwMoEge1x7PycsXuqu5Wjpl3YwVshkDmP2kCc9uL2Cdq5zjMMzyYoE+ZKnabwglsD5lxHpunUggO7+0ssMOGwzJtsWzDn+Ge6cL0+ltIWg1M2GSoHz+PudDvvayiQMLqwOAtx6RzynBygI2oWiq6urp6tDCZyGrTHeIqQ7G/bW8po7Uhl9utcEuVj407eteWFbIg0ZOacGGwydr53IOM3y3bEb86bexzM7EjWD53ANuFFGdpECyy+j87P+ylX2szM8Nl3yuqljjsDyhkjMkA2fbNet+k0FglK66sDvuVFndOnvFYRefCdpR4bA/N+v1/NIKk3P5tv+8sxP0Fp+WzJmOUcgG6V2XoRg1RL251lqO6oFbXVYbIUAsBsldZRje24f7zucDiMN2/eLNONu7u76hyeQpiRUOlmNdwPl9yidytw8YXGTmU0ebbpUORnmTdZEwA9PfeTLmQHDnjeItbanAFF6w/boTxn42htuG9Mr7htOsC5XBfbMSjN9NTkQRnYN2ZjmhXL3HU6aNCnLC/K2qQoPsm93y1PbT/k2Gw7OZ492vY/1k/d0cYJUiQxlrM/N11wvC8pM/LTbNszCZbNRakGmAbZLfo8A8IoseWWvA8woOxBZAqbzf37/X5cXl6ON2/erJ73txLbGHi9p9F5CouPtB6P61cDzvaDZtHNm5Mb87HD8nhzRuqGjsE6x1hvnm4OQieN0TNHZB01sEhpbwYiONmW2kIV++bxMDgzVeL7LGMHVgKu91r6c+ptzsVxtOKg1cYZeTIYOy3BfqdkodT32Bapy4zXOohsHfRIiGJfDo673W5cXl4u9+TdwGk3//24aup32iiyZA7VZSbLreu27HZWrHfiyAxwNx89HaM/SePPbSAz44szEOh4nz/PcnH575+/vb6+Hre3t8vUfZbLcR7J1H72ZAjHbgNsLDR18ZgBk+03w/ZiDvNZvN9j4RSO4+NLZCx36pzswwsiM9Ch05FpzZidZTdLfxiYop/Iw+xl1kZjWHY89zEymdXV7jVLbMXy9/1mqmzLfknnzvpC6nbQYUrIgN7YunXJwkdHs3DVdhawDvbbtt5kcK6ck/NL8YpkYmv8kVF7VLyHADQyy5+9tDQQ4UDdQbeXPjBvQabYWFFe/UdDITCmXgK1FUmHaM7BKJV7fD3rpYKacdpx3N4sn9OMoY2J99HxtoyQ7c1YmIvtI1P1rXbO1dccrbV1ri/tfGzEOpsFjVa/9TBrl7be+mgbse21wuk2faf11YtP9D9e75elt1X4tHF1dbWkZJg/be2nn153oC/xScHZ+o3LSzDpXOCcldPpNK6vr8fbt2/H9fX1skVzxqCfMdREHG7kTYccYVqnmxPz84zdtakIp+KNdSRRng3+zt8QjBipyU4JLizMpbYxcmGNwB3D5ZhnAJt6LLcWhGb9YF6RgOx72rTXm5OpaztR+tryur4ndbkfbYxmvilmZXZwBhCWHGeKqIEx62jMa7boYPufAaLBmb60xYY4do7b52hnM/l6zSD1efGpjYszBa8rkNxcXFws0/zj8bjal21ZcLZIH81/bjNM3emTnzhs6S2Pp+nBOmv35f/xeBxv3rwZ7969G3/2Z382bm5uxuvXr8f79+/Hly9fxufPn5/VVR893QKAc8VRdlY3HTQb3XO991q2PF7+Hh4expcvX5aXTfMnqp0IJ0A6/3Q8Hld5Od5vxsoV1kRcGgbBxQGhRUoaL+VG0KfszC4IXhwPZUddUr9Nb84Tua5mkDM2OwsUrLMFOzP0WZtmcykz4G/FAXjGrv7QYj3OQJn/GeBbMPRiL+VFe3LqgPd6Sm0fYd6VaYTUf3l5uWxdDLDmzW4hGdYb/YhEhIuN2d/dyBTlNvvuczNCsqWDnAs+XV1djTGe2Pvp9C1f7DLNodrxX1K2jJ8OakZAAc++m3Ww3N7eLuB8OBxWgJJ9qjEkA0yOM+dqcGIfGgPkeAyerK+Nq7EFOkZKYyNsk/2lETEH2tpwLtWAOmOYY6wXDBtY2JDp6Na9708d3tc7y7HyntbmVgBppW3jmjHBWdsEMR/j/ZZx+jt7OYlt4Jw9ui+tPdfVgjptjOm5r1+/juvr6/H58+fx8PBQ33PK+0lMWP9MHtbbFs6wnAuMzWd5brfbjc+fP48PHz6Mr1+/jsPhMN6/fz/ev38/9vv9uLq6enbfdB+qO/OSPBgrt2Ka0uz8Y6x//oKOEEVFkbw3v7D43XffLU8uPT4+rn6NlD9XwE37AVOCdUtz5Hzby0rQJHjleivO4GHn9lan1OXFBjMfg7PB3U4WZu1rXb+ZBoGYIGygYF8sM/fHcsnni4uLcXt7O77//vvx3XffPZuKzxyB/eR4LHc7sIMfA1OTEwvtlbbQQJT/3X7k04Jd+sQHDty+H08meDnPap9On7nIxLpj09fX18u+77x3+Pb2dhyP33bAXF9fr2ZPHE/7xdj0j2sf/EWO9G1LBy34NR1t6TD1X11djT/90z9ddjD87Gc/G4fDYfzyl78cf/InfzLevXvX3xY3q7ANoClg1vnGlMiW8peneBIBIkwyWR6jg/gVYo52XDByX1m3/wiKMYC8hIUvNknJj5KNMZ5N1cis7ajpR0snOGiwf1xN5W9WWSd2cAME+2IZ+YGLfGYf0l8yVU4b03ffb7bN/jjF8fr16/HrX/963N7ejqurq3F1dTVubm4WHRHs2P9zzteYiq9zEJnJedZ2y1O2vGzuS125xn7QZlcsBm/rOXXyfQ+5hs/e0/4ZpGNvNzc3y5ZATn/zfo3T6bRa36DcYrd5c//ptN51QBk6j9rkbz2awM1k3erKuZCIX/7yl+MXv/jF+PTp03j37t3Y7XbLm+Y+fvw4fv/7368eeBhjAqgEAX43GGwVR/jD4TAuLy/H5eXl8jkOkr/r6+sVePGeRNc4GXOeu91uUSgZZ/an5i/ML3XEmJKHzVgzvhjQmzdvVtHSyh/j+X6+HIvi+LmxRt+fdtwep1leOEg9u93TBmuzMhpcxkP5MF/MJ9kIiLyH/aZOUtj+/f398nauXJMfO6S9MIheXFyMf/u3fxsXFxfj3//93xd2lLoZbGh7ycOZkcwck8eci727uxsfP358lj5oMqVeGdzPMaeca/2lji2jlOPxOH73u9+tFoUciG2P9Ad+j33RDyKLy8vLcX19/czGj8fj+Pz58+Kn/FXi1P34+Dh+85vfjO+//345lmsCrMnHvnr1anz48GHc3d3VlNKsnGOfW4UB/fe///34u7/7u2Vaf3NzM96+fbukFd++fTv+5V/+ZXz48GFVxzNAfXx8HB8/flxFHRvHuUJFxgjv7+/Hhw8fxufPn8fHjx/HDz/8MA6Hw7i+vh6Hw2FZmMpTTtmewPee0smo/DHW08gYiaNzlGhmFIbsMWQKkvcE7Hbf8lp3d3erFb6t6UVjOTNG72vaDIFTz4zHoDvGN6AKCLh9M2WyQ7MkzizMkDy2GVu4uPj2Vq5//dd/HZ8+fVrdl18+2Cppi6kUjscyPZ2+Tdl+/vOfP0tFuN52P8tutxu3t7fjhx9+qDngWV9d/0vLLADMgmLK8Xgcnz59embHs/rd11lb7X6W2MU5Hab4MejWD/blf6p8/fp13N7ero7ZllofnwHq/f39+M1vfvNf3sHf/va347e//e2PuuelbPin8r+v/E/rbrfbjX/6p386e83/C/ZFEP5jGc/W1D3lf9t4XhI09mE25yLb/0T53yTMn8qPK2Z/f+g07L+i/f/MNX8MZSuN8cdc/tjGczwex6vd7tuTRe/fv18WXX4qP5X/TPEULtP1H374YZVD/e90mMPhsOwK+GNzzJ/KH1/5+PHjuLm5GbvT6XT69a9/PX71q1+ttuX8VH4q/xUl+cx//Md/HH/zN38zfvWrXy3n/vzP/3z81V/91bi5ufmDZ0j7/X7c39+Pv/3bvx1///d/vxz/i7/4i/HXf/3X4+c///m4v7//v86Qfyr/f5X7+/vxl3/5l+P/ALVL1CZxgA1MAAAAAElFTkSuQmCC;" vertex="1" parent="1">
          <mxGeometry x="354" y="80" width="120" height="119.65" as="geometry" />
        </mxCell>
        <mxCell id="5jSk7rVsMKAFzGFvwQ8h-3" value="Atrous Conv" style="rounded=0;whiteSpace=wrap;html=1;opacity=70;fillColor=#f5f5f5;strokeColor=#666666;fontColor=#333333;fontFamily=Times New Roman;fontSize=14;" vertex="1" parent="1">
          <mxGeometry x="89" y="270" width="80" height="40" as="geometry" />
        </mxCell>
        <mxCell id="5jSk7rVsMKAFzGFvwQ8h-4" value="Atrous Spatial Pyramid Pooling" style="rounded=0;whiteSpace=wrap;html=1;opacity=70;fillColor=#f5f5f5;strokeColor=#666666;fontColor=#333333;fontFamily=Times New Roman;fontSize=14;" vertex="1" parent="1">
          <mxGeometry x="219" y="270" width="120" height="40" as="geometry" />
        </mxCell>
        <mxCell id="5jSk7rVsMKAFzGFvwQ8h-6" value="" style="endArrow=classic;html=1;rounded=0;fontFamily=Times New Roman;fontSize=14;" edge="1" parent="1">
          <mxGeometry width="50" height="50" relative="1" as="geometry">
            <mxPoint x="169" y="289.5" as="sourcePoint" />
            <mxPoint x="219" y="289.5" as="targetPoint" />
          </mxGeometry>
        </mxCell>
        <mxCell id="5jSk7rVsMKAFzGFvwQ8h-7" value="Output after Fusion" style="shape=ext;double=1;rounded=0;whiteSpace=wrap;html=1;fontFamily=Times New Roman;fontSize=14;opacity=70;" vertex="1" parent="1">
          <mxGeometry x="388" y="270" width="101" height="40" as="geometry" />
        </mxCell>
        <mxCell id="5jSk7rVsMKAFzGFvwQ8h-8" value="" style="endArrow=classic;html=1;rounded=0;fontFamily=Times New Roman;fontSize=14;" edge="1" parent="1">
          <mxGeometry width="50" height="50" relative="1" as="geometry">
            <mxPoint x="339" y="289.5" as="sourcePoint" />
            <mxPoint x="389" y="289.5" as="targetPoint" />
          </mxGeometry>
        </mxCell>
        <mxCell id="5jSk7rVsMKAFzGFvwQ8h-9" value="1 x 1 Conv" style="rounded=0;whiteSpace=wrap;html=1;opacity=70;fillColor=#f5f5f5;strokeColor=#666666;fontColor=#333333;fontFamily=Times New Roman;fontSize=14;" vertex="1" parent="1">
          <mxGeometry x="539" y="270" width="80" height="40" as="geometry" />
        </mxCell>
        <mxCell id="5jSk7rVsMKAFzGFvwQ8h-12" value="" style="endArrow=classic;html=1;rounded=0;fontFamily=Times New Roman;fontSize=14;" edge="1" parent="1">
          <mxGeometry width="50" height="50" relative="1" as="geometry">
            <mxPoint x="489" y="289.5" as="sourcePoint" />
            <mxPoint x="539" y="289.5" as="targetPoint" />
          </mxGeometry>
        </mxCell>
        <mxCell id="5jSk7rVsMKAFzGFvwQ8h-13" value="" style="shape=ext;double=1;whiteSpace=wrap;html=1;aspect=fixed;fontFamily=Times New Roman;fontSize=14;opacity=70;" vertex="1" parent="1">
          <mxGeometry x="549" y="350" width="50" height="50" as="geometry" />
        </mxCell>
        <mxCell id="5jSk7rVsMKAFzGFvwQ8h-14" value="" style="endArrow=classic;html=1;rounded=0;fontFamily=Times New Roman;fontSize=14;" edge="1" parent="1">
          <mxGeometry width="50" height="50" relative="1" as="geometry">
            <mxPoint x="573.5" y="310" as="sourcePoint" />
            <mxPoint x="573.5" y="350" as="targetPoint" />
          </mxGeometry>
        </mxCell>
        <mxCell id="5jSk7rVsMKAFzGFvwQ8h-15" value="Encoder" style="rounded=0;whiteSpace=wrap;html=1;fontFamily=Times New Roman;fontSize=14;opacity=70;fontColor=default;labelBackgroundColor=none;" vertex="1" parent="1">
          <mxGeometry x="80" y="250" width="570" height="170" as="geometry" />
        </mxCell>
        <mxCell id="5jSk7rVsMKAFzGFvwQ8h-18" value="" style="endArrow=classic;html=1;rounded=0;fontFamily=Times New Roman;fontSize=14;fontColor=default;" edge="1" parent="1">
          <mxGeometry width="50" height="50" relative="1" as="geometry">
            <mxPoint x="413" y="200" as="sourcePoint" />
            <mxPoint x="413" y="250" as="targetPoint" />
          </mxGeometry>
        </mxCell>
      </root>
    </mxGraphModel>
  </diagram>
</mxfile>
